<svg width="21" height="21" viewBox="0 0 21 21" fill="none" xmlns="http://www.w3.org/2000/svg">
<path fill-rule="evenodd" clip-rule="evenodd" d="M10.9734 20.9785C5.44108 20.917 0.944127 16.4201 0.937507 10.9426C0.930887 5.46517 5.41698 0.979074 11.004 0.985826C13.7427 0.989136 16.2637 2.08767 18.0734 3.89742C19.8832 5.70717 20.9817 8.22813 20.985 10.9669C20.9369 16.499 16.4508 20.9851 10.9734 20.9785ZM2.52643 11.328C2.5368 11.5353 2.55462 11.7407 2.57964 11.944C3.09678 16.1462 6.68729 19.4396 10.9715 19.4448C15.2626 19.45 18.8498 16.1546 19.3477 11.944C19.371 11.7474 19.3875 11.5488 19.397 11.3484L19.3961 10.4644C19.3841 10.2242 19.3622 10.1037 19.3309 9.86922C18.7761 5.71878 15.2542 2.52758 10.9511 2.57423C6.6436 2.51712 3.0776 5.75538 2.57964 9.86922C2.55204 10.0973 2.53386 10.211 2.52551 10.444L2.52643 11.328Z" fill="#252332"/>
<path d="M2.52643 11.328L19.397 11.3484L19.3961 10.4644L2.52551 10.444L2.52643 11.328Z" fill="#252332"/>
</svg>
