<svg width="499" height="487" viewBox="0 0 499 487" fill="none" xmlns="http://www.w3.org/2000/svg">
<path d="M542.38 157.569H476.363V209.099H542.38V157.569Z" fill="#2D2A2B"/>
<path d="M114.813 301.565H48.7954V367.329H114.813V301.565Z" fill="#2D2A2B"/>
<path d="M547.569 144.107L541.276 143.997C541.939 96.5495 541.939 80.5498 541.939 73.7086V72.2742C541.939 36.1923 512.573 6.73091 476.363 6.73091V0.441406C515.995 0.441406 548.231 32.6613 548.231 72.2742V73.7086C548.231 80.5498 548.231 96.5495 547.569 144.107Z" fill="#73E3F2"/>
<path d="M535.204 144.107L528.912 143.997C529.464 100.853 529.464 86.1774 529.464 79.9982V78.6741C529.464 45.9025 505.618 19.31 476.363 19.31V13.0205C509.04 13.0205 535.756 42.4819 535.756 78.6741V79.9982C535.646 86.2877 535.756 100.853 535.204 144.107Z" fill="#73E3F2"/>
<path d="M522.729 144.107L516.437 143.997C516.878 104.935 516.878 91.8046 516.878 86.1772V84.9634C516.878 55.5021 498.663 31.6682 476.363 31.6682V25.3787C502.196 25.3787 523.171 52.0815 523.171 84.9634V86.1772C523.171 91.8046 523.171 105.046 522.729 144.107Z" fill="#73E3F2"/>
<path d="M485.525 338.088C505.728 338.088 522.287 354.971 522.287 375.715C522.287 396.459 505.838 413.342 485.525 413.342H436.067V419.19H485.525C508.929 419.19 528.028 399.659 528.028 375.715C528.028 351.771 508.929 332.24 485.525 332.24" fill="#40C2B0"/>
<path d="M42.5028 119.942C22.3002 119.942 5.74064 136.824 5.74064 157.569C5.74064 178.313 22.1898 195.195 42.5028 195.195H73.8555V201.043H42.5028C19.0987 201.043 0 181.513 0 157.569C0 133.624 19.0987 114.094 42.5028 114.094" fill="#40C2B0"/>
<path d="M308.007 133.293H223.995V295.827H308.007V133.293Z" fill="#73E3F2"/>
<path d="M73.7451 73.157C73.7451 55.6126 88.5383 41.2681 105.76 41.2681H223.885V47.1162H105.871C91.8502 47.1162 79.5961 58.8125 79.5961 73.157C79.5961 87.5014 90.967 99.1977 104.987 99.1977H136.34V105.046H104.987C87.7655 105.046 73.7451 90.7014 73.7451 73.157Z" fill="#FF5E6B"/>
<path d="M114.813 301.345H48.7954V123.914L70.654 139.031L114.813 141.348V301.345Z" fill="#4759CC"/>
<path d="M374.135 301.565V325.509L287.805 328.599L261.972 345.261L247.289 370.308L241.99 428.569L234.042 441.92L223.664 449.203H210.858L189.662 434.859V421.507V301.565H374.135Z" fill="#FCABF2"/>
<path d="M436.068 364.129H412.112L409.021 277.621L392.351 251.801L367.291 237.015L309.001 231.608L295.643 223.774L288.467 213.292V200.492L302.709 179.196H316.067H436.068V364.129Z" fill="#73E3F2"/>
<path d="M348.634 127.335H308.449V133.073H348.634V127.335Z" fill="#FCABF2"/>
<path d="M348.634 115.639H308.449V121.376H348.634V115.639Z" fill="#FCABF2"/>
<path d="M348.634 104.053H308.449V109.791H348.634V104.053Z" fill="#FCABF2"/>
<path d="M348.634 92.3564H308.449V98.0943H348.634V92.3564Z" fill="#FCABF2"/>
<path d="M348.634 81.4326H308.449V87.1704H348.634V81.4326Z" fill="#FCABF2"/>
<path d="M348.634 69.957H308.449V75.6948H348.634V69.957Z" fill="#FCABF2"/>
<path d="M348.634 58.4814H308.449V64.2192H348.634V58.4814Z" fill="#FCABF2"/>
<path d="M348.634 47.0059H308.449V52.7437H348.634V47.0059Z" fill="#FCABF2"/>
<path d="M542.38 92.3564H436.067V157.569H542.38V92.3564Z" fill="#73E3F2"/>
<path d="M476.252 92.3564H470.512V439.714H476.252V92.3564Z" fill="#FCABF2"/>
<path d="M464.771 92.3564H459.03V439.714H464.771V92.3564Z" fill="#FCABF2"/>
<path d="M453.29 92.3564H447.549V439.714H453.29V92.3564Z" fill="#FCABF2"/>
<path d="M441.809 92.3564H436.068V439.714H441.809V92.3564Z" fill="#FCABF2"/>
<path d="M317.17 243.084H348.523V248.932H317.17C293.766 248.932 274.667 229.401 274.667 205.457C274.667 181.513 293.766 161.982 317.17 161.982H348.523V167.831H317.17C296.968 167.831 280.408 184.713 280.408 205.457C280.519 226.312 296.968 243.084 317.17 243.084Z" fill="#40C2B0"/>
<path d="M317.391 254.67H348.523V260.518H317.17C287.694 260.408 263.628 235.581 263.628 205.457C263.628 175.223 287.584 150.728 317.17 150.617H348.523V156.465H317.391C291.006 156.465 269.479 178.423 269.479 205.568C269.479 232.491 291.006 254.67 317.391 254.67Z" fill="#40C2B0"/>
<path d="M317.171 266.256H348.523V272.104H317.171C280.74 272.104 251.043 242.201 251.043 205.568C251.043 168.824 280.629 139.031 317.171 139.031H348.523V144.879H317.171C283.941 144.879 256.894 172.134 256.894 205.568C256.894 239.001 283.941 266.256 317.171 266.256Z" fill="#40C2B0"/>
<path d="M286.039 205.568C286.039 188.023 300.832 173.679 318.054 173.679H436.178V179.527H318.054C304.033 179.527 291.779 191.223 291.779 205.568C291.779 219.912 303.15 231.608 317.17 231.608H348.523V237.456H317.17C299.949 237.346 286.039 223.112 286.039 205.568Z" fill="#40C2B0"/>
<path d="M367.18 92.3564C367.18 62.233 391.578 37.8474 421.716 37.8474C451.855 37.8474 476.252 62.233 476.252 92.3564" fill="#FF5E6B"/>
<path d="M436.179 92.3564H348.744V98.0943H436.179V92.3564Z" fill="#40C2B0"/>
<path d="M436.179 104.053H348.744V109.791H436.179V104.053Z" fill="#40C2B0"/>
<path d="M436.179 115.639H348.744V121.376H436.179V115.639Z" fill="#40C2B0"/>
<path d="M436.179 127.335H348.744V133.073H436.179V127.335Z" fill="#40C2B0"/>
<path d="M308.449 133.073C272.018 133.073 242.432 103.501 242.432 67.0881C242.432 30.6752 272.018 1.10352 308.449 1.10352" fill="#4759CC"/>
<path d="M413.989 364.129L408.248 364.019C408.8 320.434 408.8 305.648 408.8 299.358V298.034C408.8 264.821 381.753 237.787 348.523 237.787V232.05C384.954 232.05 414.541 261.621 414.541 298.034V299.358C414.541 305.758 414.541 320.544 413.989 364.129Z" fill="#4759CC"/>
<path d="M402.618 364.129L396.877 364.019C397.319 324.296 397.319 310.944 397.319 305.096V303.883C397.319 273.759 375.46 249.263 348.523 249.263V243.525C378.662 243.525 403.06 270.67 403.06 303.993V305.207C403.06 310.944 403.06 324.406 402.618 364.129Z" fill="#4759CC"/>
<path d="M391.137 364.129L385.396 364.019C385.727 328.158 385.727 316.02 385.727 310.834V309.73C385.727 282.697 369.057 260.739 348.523 260.739V255.001C372.259 255.001 391.578 279.607 391.578 309.841V310.944C391.578 316.13 391.578 328.268 391.137 364.129Z" fill="#4759CC"/>
<path d="M374.245 341.178C374.245 347.247 374.135 354.86 374.025 364.129H379.765C379.876 354.75 379.876 347.247 379.986 341.068V335.33C379.986 333.233 379.986 331.358 379.986 329.592V323.854C379.986 320.434 379.986 318.227 379.986 316.682V312.379C378.882 286.779 365.083 266.476 348.413 266.476V272.214C359.563 272.214 369.057 284.131 372.7 300.903" fill="#4759CC"/>
<path d="M476.363 157.569C533.438 157.569 579.694 203.802 579.694 260.849C579.694 317.896 533.438 364.129 476.363 364.129" fill="#40C2B0"/>
<path d="M223.995 241.208C223.995 271.331 199.598 295.717 169.459 295.717C139.321 295.717 114.923 271.331 114.923 241.208" fill="#FCABF2"/>
<path d="M120.664 201.043H114.923V241.208H120.664V201.043Z" fill="#FCABF2"/>
<path d="M132.145 201.043H126.404V241.208H132.145V201.043Z" fill="#FCABF2"/>
<path d="M143.627 201.043H137.886V241.208H143.627V201.043Z" fill="#FCABF2"/>
<path d="M155.107 201.043H149.367V301.565H155.107V201.043Z" fill="#FCABF2"/>
<path d="M166.589 201.043H160.849V301.344H166.589V201.043Z" fill="#FCABF2"/>
<path d="M178.071 201.043H172.33V301.344H178.071V201.043Z" fill="#FCABF2"/>
<path d="M189.552 201.043H183.811V301.565H189.552V201.043Z" fill="#FCABF2"/>
<path d="M201.033 201.043H195.292V241.208H201.033V201.043Z" fill="#FCABF2"/>
<path d="M212.514 201.043H206.773V241.208H212.514V201.043Z" fill="#FCABF2"/>
<path d="M223.996 201.043H218.255V241.208H223.996V201.043Z" fill="#FCABF2"/>
<path d="M253.251 420.404V389.067H259.102V420.404C259.102 443.796 239.561 462.885 215.605 462.885C191.649 462.885 172.219 443.796 172.219 420.404V301.565H178.07V420.404C178.07 440.596 194.961 457.148 215.716 457.148C236.47 457.148 253.251 440.596 253.251 420.404Z" fill="#FF5E6B"/>
<path d="M264.732 420.183V389.067H270.583V420.404C270.472 449.865 245.633 473.92 215.495 473.92C185.246 473.92 160.738 449.975 160.627 420.404V301.565H166.478V420.183C166.478 446.555 188.447 468.071 215.605 468.071C242.542 468.071 264.732 446.665 264.732 420.183Z" fill="#FF5E6B"/>
<path d="M276.213 420.404V389.067H282.064V420.404C282.064 456.817 252.147 486.499 215.495 486.499C178.733 486.499 148.926 456.927 148.926 420.404V301.565H154.777V420.404C154.777 453.617 182.045 480.651 215.495 480.651C248.945 480.651 276.213 453.617 276.213 420.404Z" fill="#FF5E6B"/>
<path d="M215.716 451.63C198.163 451.63 183.811 436.845 183.811 419.631V301.565H189.662V419.521C189.662 433.534 201.364 445.782 215.716 445.782C230.067 445.782 241.769 434.417 241.769 420.404V389.067H247.62V420.404C247.62 437.617 233.269 451.63 215.716 451.63Z" fill="#FF5E6B"/>
<path d="M374.135 323.634L374.025 329.372C330.418 328.82 315.625 328.82 309.332 328.82H308.008C274.778 328.82 247.731 355.854 247.731 389.067H241.99C241.99 352.654 271.577 323.082 308.008 323.082H309.332C315.625 323.082 330.418 323.082 374.135 323.634Z" fill="#4759CC"/>
<path d="M375.35 334.999L375.239 340.737C335.497 340.295 320.924 340.295 315.184 340.295H313.969C283.831 340.295 259.323 362.143 259.323 389.067H253.582C253.582 358.943 280.74 334.558 314.08 334.558H315.294C320.924 334.558 335.607 334.558 375.35 334.999Z" fill="#4759CC"/>
<path d="M375.35 346.474L375.239 352.212C339.36 351.881 319.82 351.881 319.82 351.881C292.773 351.881 270.804 368.543 270.804 389.066H264.953C264.953 365.343 289.571 346.033 319.82 346.033C319.82 346.143 339.36 346.143 375.35 346.474Z" fill="#4759CC"/>
<path d="M320.151 363.357C326.223 363.357 364.752 363.467 374.135 363.577V357.84C364.752 357.729 322.359 357.619 322.359 357.619C296.747 358.722 276.434 372.515 276.434 389.177H282.175C282.175 378.032 294.098 368.543 310.878 364.901" fill="#4759CC"/>
<path d="M374.135 295.827H48.7954V301.565H374.135V295.827Z" fill="#4759CC"/>
<path d="M548.231 255.884H476.363V261.621H548.231V255.884Z" fill="#FF5E6B"/>
<path d="M436.178 139.031H348.523V167.941H436.178V139.031Z" fill="#40C2B0"/>
<path d="M95.1617 138.921H114.812V145.21H95.1617C55.75 145.21 23.6245 112.88 23.6245 73.157C23.6245 33.4338 55.75 1.10352 95.1617 1.10352H223.995V7.39302H95.1617C59.1723 7.39302 29.9171 36.8544 29.9171 73.157C29.9171 109.46 59.1723 138.921 95.1617 138.921Z" fill="#FF5E6B"/>
<path d="M114.812 145.21V119.501H114.923C114.923 89.3773 139.321 64.9917 169.459 64.9917C199.597 64.9917 223.995 89.3773 223.995 119.501H223.885V145.21H114.812Z" fill="#73E3F2"/>
<path d="M223.995 133.293H114.922V201.044H223.995V133.293Z" fill="#40C2B0"/>
<path d="M436.067 362.805C436.067 392.929 411.67 417.314 381.531 417.314C351.393 417.314 326.995 392.929 326.995 362.805" fill="#4759CC"/>
<path d="M114.812 301.565C114.812 319.772 100.019 334.557 81.8036 334.557C63.5881 334.557 48.7949 319.772 48.7949 301.565" fill="#74E2F3"/>
<path d="M148.815 367.329H48.7954V373.067H148.815V367.329Z" fill="#74E2F3"/>
<path d="M54.536 302.558H48.7954V370.308H54.536V302.558Z" fill="#74E2F3"/>
<path d="M48.7956 177.651C37.4247 177.651 28.1514 168.603 28.1514 157.569C28.1514 146.424 37.4247 137.486 48.7956 137.486" fill="#FCABF2"/>
<path d="M148.925 133.293C148.925 121.707 158.088 112.218 169.459 112.218C180.83 112.218 189.993 121.707 189.993 133.293" fill="white"/>
<path d="M148.925 133.293C148.925 121.707 158.088 112.218 169.459 112.218C180.83 112.218 189.993 121.707 189.993 133.293" stroke="#2D2A2B" stroke-width="4" stroke-miterlimit="10"/>
<path d="M476.363 219.36C499.877 219.36 518.976 237.898 518.976 260.849C518.976 283.8 499.877 302.337 476.363 302.337" fill="white"/>
<path d="M476.363 219.36C499.877 219.36 518.976 237.898 518.976 260.849C518.976 283.8 499.877 302.337 476.363 302.337" stroke="#231F20" stroke-width="4" stroke-miterlimit="10"/>
<path d="M114.813 373.067C114.813 391.825 100.02 406.942 81.8041 406.942C63.5886 406.942 48.7954 391.715 48.7954 373.067" fill="#40C2B0"/>
<path d="M401.624 92.3564C401.624 80.9911 410.677 71.7224 421.716 71.7224C432.866 71.7224 441.809 80.9911 441.809 92.3564" fill="#2D2A2B"/>
</svg>
