<svg width="1440" height="293" viewBox="0 0 1440 293" fill="none" xmlns="http://www.w3.org/2000/svg">
<g clip-path="url(#clip0)">
<rect width="291.3" height="1438.75" transform="translate(1439.2 0.442749) rotate(89.9638)" fill="#B5BDEB"/>
<path d="M489.265 215.583L489.257 202.918L313.05 203.029L313.058 215.695L489.265 215.583Z" fill="#FF5E6B"/>
<path d="M489.281 240.913L489.273 228.248L313.066 228.359L313.074 241.024L489.281 240.913Z" fill="#FF5E6B"/>
<path d="M489.297 266.243L489.289 253.578L313.082 253.689L313.09 266.355L489.297 266.243Z" fill="#FF5E6B"/>
<path d="M489.313 291.19L489.305 278.525L313.097 278.636L313.105 291.301L489.313 291.19Z" fill="#FF5E6B"/>
<path d="M1382.94 215.786L1532.72 215.692L1532.71 203.026L1382.93 203.121C1352.29 203.14 1325.46 177.827 1325.44 146.355C1325.42 114.884 1350.3 89.5379 1380.95 89.5185L1532.64 89.4228L1532.63 76.7574L1380.94 76.8532C1343.4 76.8769 1312.77 107.984 1312.8 146.363C1312.82 184.743 1345.4 215.81 1382.94 215.786ZM1381.04 241.118L1532.73 241.022L1532.72 228.357L1381.03 228.453C1336.6 228.481 1300.57 191.659 1300.54 146.755C1300.51 101.467 1336.5 64.9836 1380.93 64.9556L1532.62 64.8599L1532.61 52.1945L1380.92 52.2902C1329.59 52.3226 1287.87 94.9504 1287.9 147.147C1287.93 198.575 1329.71 241.15 1381.04 241.118ZM1381.06 266.065L1532.75 265.969L1532.74 253.304L1381.43 253.399C1323.59 253.436 1276.44 205.491 1276.41 146.386C1276.37 87.2817 1323.45 38.8936 1381.3 38.8571L1532.6 38.7616L1532.6 26.0964L1380.91 26.1921C1316.17 26.6168 1263.72 80.3813 1263.77 146.394C1263.81 212.407 1316.7 266.105 1381.06 266.065ZM1532.76 291.3L1532.76 278.634L1381.06 278.73C1308.28 278.776 1248.87 219.325 1248.83 146.404C1248.78 73.4824 1308.12 13.9566 1380.9 13.9106L1532.59 13.8149L1532.58 1.14966L1380.89 1.2454C1301.21 1.29568 1236.13 66.5821 1236.19 146.412C1236.24 226.241 1301.4 291.446 1381.07 291.395L1532.76 291.3Z" fill="#73E3F2"/>
<path d="M142.855 14.6915L142.847 2.02625L-2.33274 2.11787L-2.32474 14.7832L142.855 14.6915ZM142.871 40.0222L142.863 27.3569L-2.31675 27.4486L-2.30876 40.1138L142.871 40.0222ZM142.887 65.3529L142.879 52.6875L-2.30076 52.7791L-2.29277 65.4445L142.887 65.3529ZM142.903 90.2998L142.895 77.6343L-2.28502 77.726L-2.27703 90.3914L142.903 90.2998ZM142.919 115.63L142.911 102.965L-2.26903 103.057L-2.26104 115.722L142.919 115.63ZM142.935 140.961L142.927 128.296L-2.25304 128.387L-2.24505 141.053L142.935 140.961ZM142.951 165.908L142.943 153.243L-2.2373 153.334L-2.22931 165.999L142.951 165.908ZM142.967 191.239L142.959 178.573L-2.22131 178.665L-2.21332 191.33L142.967 191.239ZM142.983 216.569L142.975 203.904L-2.20533 203.996L-2.19733 216.661L142.983 216.569ZM142.998 241.516L142.99 228.851L-2.18958 228.942L-2.18159 241.608L142.998 241.516ZM143.014 266.847L143.006 254.181L-2.17359 254.273L-2.1656 266.938L143.014 266.847ZM143.03 292.177L143.022 279.512L-2.15761 279.604L-2.14961 292.269L143.03 292.177ZM142.847 2.02625L142.998 241.516L142.847 2.02625Z" fill="#4759CC"/>
<path d="M628.236 89.6116C652.751 89.5961 673.453 116.065 681.521 152.521L628.275 152.554L628.236 89.6116ZM628.284 165.603L683.827 165.568C684.213 169.79 684.599 174.011 684.984 178.233L628.292 178.269L628.284 165.603ZM628.299 190.55L684.992 190.514C684.994 193.585 684.997 197.806 685 203.18L628.307 203.215L628.299 190.55ZM628.315 215.881L685.008 215.845C685.011 219.683 685.013 223.905 685.016 228.51L628.323 228.546L628.315 215.881ZM697.625 177.841C695.291 121.424 665.001 76.9231 628.228 76.9463L628.22 64.281C673.421 64.2524 709.842 112.588 709.879 172.076L709.881 174.379C709.888 185.893 709.905 212.375 709.189 291.438L721.83 291.43C722.546 212.367 722.529 185.885 722.522 174.371L722.52 172.068C722.478 105.672 679.925 51.5831 627.829 51.616L627.821 39.3344C686.812 39.2972 735.112 93.3821 735.153 159.395L735.155 162.082C735.163 174.747 735.182 204.299 734.088 291.806L746.729 291.798C747.823 204.291 747.804 174.739 747.796 162.074L747.794 159.387C747.748 86.082 694.082 26.6274 627.813 26.6692L627.805 14.0038C700.586 13.9579 759.998 73.4089 760.044 146.33L760.046 149.401C760.055 163.217 760.075 195.84 758.986 291.79L771.627 291.782C772.716 195.832 772.695 163.209 772.687 149.393L772.685 146.322C772.634 66.1088 707.473 0.904503 627.414 0.955031L627.596 290.338L627.565 241.212L684.258 241.176C684.266 254.609 683.894 271.112 683.907 291.837L696.548 291.829" fill="#3FC1AF"/>
<path d="M823.54 1.59714L996.099 291.638L1083.82 291.583L1084.2 291.583L911.644 2.30905L911.643 1.54153" fill="#FF5E6B"/>
<path d="M325.749 292.446L325.565 1.52844L312.924 1.53642L313.108 292.454L325.749 292.446Z" fill="#FCAAF2"/>
<path d="M351.03 292.43L350.846 1.5127L338.205 1.52067L338.389 292.438L351.03 292.43Z" fill="#FCAAF2"/>
<path d="M376.312 292.414L376.128 1.4967L363.487 1.50468L363.671 292.422L376.312 292.414Z" fill="#FCAAF2"/>
<path d="M401.211 292.398L401.028 1.48071L388.386 1.48869L388.57 292.406L401.211 292.398Z" fill="#FCAAF2"/>
<path d="M911.827 291.691L911.644 1.5415L899.003 1.54948L899.186 291.699L911.827 291.691Z" fill="#4759CC"/>
<path d="M886.928 291.707L886.745 1.55725L874.104 1.56523L874.287 291.715L886.928 291.707Z" fill="#4759CC"/>
<path d="M861.646 291.724L861.463 1.573L848.822 1.58098L849.005 291.732L861.646 291.724Z" fill="#4759CC"/>
<path d="M836.364 291.74L836.181 1.58899L823.54 1.59697L823.723 291.748L836.364 291.74Z" fill="#4759CC"/>
<path d="M142.855 15.0754L142.847 2.41015L142.855 15.0754ZM142.998 241.9L142.99 229.234L142.998 241.9ZM142.998 241.9C208.884 241.858 262.479 188.093 262.437 122.079C262.395 56.0663 208.733 2.36856 142.847 2.41015" fill="#FF5E6B"/>
<path d="M628.364 292.255L628.18 1.33765L540.077 1.39325L540.26 292.311L628.364 292.255Z" fill="#73E3F2"/>
<path d="M1084.2 291.584L1084.2 278.919L996.091 278.974L996.099 291.64L1084.2 291.584Z" fill="#FCAAF2"/>
<path d="M1084.19 265.868L1084.18 253.203L996.075 253.258L996.083 265.924L1084.19 265.868Z" fill="#FCAAF2"/>
<path d="M1084.17 240.538L1084.16 227.872L996.059 227.928L996.067 240.593L1084.17 240.538Z" fill="#FCAAF2"/>
<path d="M1084.15 214.825L1084.15 202.16L996.042 202.215L996.05 214.881L1084.15 214.825Z" fill="#FCAAF2"/>
<path d="M1084.14 190.645L1084.13 177.979L996.027 178.035L996.035 190.7L1084.14 190.645Z" fill="#FCAAF2"/>
<path d="M1084.12 165.698L1084.12 153.032L996.011 153.088L996.019 165.753L1084.12 165.698Z" fill="#FCAAF2"/>
<path d="M1084.11 140.368L1084.1 127.703L995.995 127.758L996.003 140.423L1084.11 140.368Z" fill="#FCAAF2"/>
<path d="M1084.09 115.037L1084.08 102.372L995.979 102.428L995.987 115.093L1084.09 115.037Z" fill="#FCAAF2"/>
<path d="M1084.08 90.0916L1084.07 77.426L995.964 77.4816L995.972 90.1472L1084.08 90.0916Z" fill="#FCAAF2"/>
<path d="M1084.06 64.7585L1084.05 52.0929L995.947 52.1485L995.955 64.8141L1084.06 64.7585Z" fill="#FCAAF2"/>
<path d="M1084.04 39.4277L1084.04 26.7623L995.932 26.8179L995.94 39.4833L1084.04 39.4277Z" fill="#FCAAF2"/>
<path d="M1084.03 14.4818L1084.02 1.81641L995.916 1.87201L995.924 14.5374L1084.03 14.4818Z" fill="#FCAAF2"/>
</g>
<defs>
<clipPath id="clip0">
<rect width="291.3" height="1438.75" fill="white" transform="translate(1439.2 0.442749) rotate(89.9638)"/>
</clipPath>
</defs>
</svg>
