<svg width="698" height="424" viewBox="0 0 698 424" fill="none" xmlns="http://www.w3.org/2000/svg">
<g clip-path="url(#clip0_2721_10407)">
<rect width="697.794" height="422.75" transform="translate(0.0947266 0.604004)" fill="#4759CC"/>
<path d="M73.6384 245.332L141.211 276.842L165.806 224.098L98.2332 192.589L73.6384 245.332Z" fill="#2D2A2B"/>
<path d="M580.007 302.018L647.579 333.528L678.968 266.215L611.395 234.705L580.007 302.018Z" fill="#2D2A2B"/>
<path d="M61.9027 256.635L68.291 259.751C44.9668 308 37.3303 324.376 34.0651 331.379L33.3804 332.847C16.1588 369.779 32.1545 413.95 69.2178 431.233L66.2158 437.671C25.6497 418.754 8.03265 370.389 26.9395 329.843L27.6242 328.375C30.8895 321.373 38.526 304.996 61.9027 256.635Z" fill="#73E3F2"/>
<path d="M74.5586 262.536L80.9467 265.652C59.7896 309.549 52.7851 324.57 49.8358 330.895L49.2038 332.25C33.5622 365.794 45.2773 404.394 75.2217 418.357L72.2197 424.795C38.7724 409.198 25.4887 366.292 42.763 329.247L43.395 327.891C46.5099 321.507 53.3487 306.546 74.5586 262.536Z" fill="#73E3F2"/>
<path d="M87.3273 268.49L93.7155 271.606C74.6199 311.377 68.3527 324.817 65.6667 330.577L65.0874 331.819C51.0258 361.975 58.2946 395.064 81.1201 405.708L78.1182 412.146C51.6768 399.816 42.9523 362.472 58.6466 328.816L59.2259 327.574C61.9119 321.814 68.2317 308.261 87.3273 268.49Z" fill="#73E3F2"/>
<path d="M217.994 87.6965C197.315 78.0539 188.423 52.8701 198.324 31.6372C208.225 10.4042 233.12 0.975162 253.911 10.6704L304.534 34.2762L307.326 28.2904L256.703 4.68453C232.747 -6.48609 203.877 4.3889 192.449 28.8972C181.02 53.4055 191.247 82.5118 215.202 93.6824" fill="#40C2B0"/>
<path d="M301.945 382.044L387.937 422.142L465.513 255.779L379.522 215.681L301.945 382.044Z" fill="#73E3F2"/>
<path d="M579.902 302.244L647.474 333.754L562.788 515.363L547.63 489.458L503.537 466.009L579.902 302.244Z" fill="#4759CC"/>
<path d="M314.576 178.245L326.004 153.737L415.843 191.78L450.237 187.055L477.22 168.425L510.452 111.322L524.96 101.449L539.058 98.9484L552.165 105.061L567.014 129.86L560.642 143.526L503.395 266.293L314.576 178.245Z" fill="#FCABF2"/>
<path d="M281.046 84.6477L305.567 96.0818L267.441 186.103L272.18 220.488L290.773 247.583L347.855 280.938L357.788 295.333L360.13 309.487L354.021 322.589L329.28 337.589L315.607 331.213L192.779 273.938L281.046 84.6477Z" fill="#73E3F2"/>
<path d="M257.518 368.752L298.649 387.932L301.388 382.059L260.257 362.879L257.518 368.752Z" fill="#FCABF2"/>
<path d="M251.935 380.724L293.066 399.904L295.805 394.031L254.674 374.851L251.935 380.724Z" fill="#FCABF2"/>
<path d="M246.406 392.582L287.537 411.762L290.276 405.889L249.145 386.709L246.406 392.582Z" fill="#FCABF2"/>
<path d="M240.824 404.554L281.955 423.734L284.694 417.861L243.563 398.681L240.824 404.554Z" fill="#FCABF2"/>
<path d="M235.61 415.736L276.741 434.915L279.48 429.042L238.349 409.863L235.61 415.736Z" fill="#FCABF2"/>
<path d="M230.133 427.481L271.264 446.661L274.002 440.788L232.871 421.608L230.133 427.481Z" fill="#FCABF2"/>
<path d="M42.5135 312.081L151.33 362.823L182.455 296.074L73.6388 245.332L42.5135 312.081Z" fill="#73E3F2"/>
<path d="M110.198 343.643L116.074 346.383L281.865 -9.15675L275.989 -11.8967L110.198 343.643Z" fill="#FCABF2"/>
<path d="M121.951 349.122L127.827 351.862L293.618 -3.67713L287.742 -6.41711L121.951 349.122Z" fill="#FCABF2"/>
<path d="M133.702 354.603L139.578 357.343L305.369 1.80309L299.493 -0.936867L133.702 354.603Z" fill="#FCABF2"/>
<path d="M145.455 360.083L151.331 362.823L317.122 7.28295L311.246 4.54298L145.455 360.083Z" fill="#FCABF2"/>
<path d="M344.97 265.293L312.878 250.329L315.67 244.343L347.761 259.307C371.716 270.478 381.943 299.584 370.515 324.093C359.086 348.601 330.216 359.476 306.261 348.305L274.169 333.341L276.961 327.355L309.052 342.319C329.73 351.962 354.738 342.586 364.639 321.353C374.48 299.954 365.648 274.936 344.97 265.293Z" fill="#40C2B0"/>
<path d="M350.273 253.329L318.408 238.47L321.199 232.484L353.291 247.449C383.408 261.63 396.192 298.529 381.814 329.362C367.384 360.308 331.172 373.947 300.836 359.938L268.745 344.974L271.536 338.988L303.401 353.847C330.408 366.44 362.922 354.24 375.878 326.456C388.729 298.898 377.28 265.922 350.273 253.329Z" fill="#40C2B0"/>
<path d="M356.029 241.576L323.938 226.611L326.729 220.625L358.82 235.59C396.109 252.978 412.233 297.759 394.748 335.256C377.211 372.865 332.708 389.238 295.306 371.797L263.214 356.833L266.006 350.847L298.097 365.811C332.109 381.671 372.802 366.684 388.76 332.463C404.717 298.242 390.041 257.436 356.029 241.576Z" fill="#40C2B0"/>
<path d="M358.928 318.553C350.555 336.51 328.566 344.132 310.939 335.912L190.032 279.532L192.823 273.546L313.73 329.926C328.081 336.618 346.206 330.495 353.052 315.813C359.899 301.13 353.843 283.731 339.492 277.039L307.401 262.075L310.192 256.089L342.283 271.053C359.858 279.386 367.302 300.595 358.928 318.553Z" fill="#40C2B0"/>
<path d="M221.841 395.702C207.463 426.535 170.852 439.851 140.003 425.466C109.155 411.081 95.8218 374.476 110.199 343.643" fill="#FF5E6B"/>
<path d="M151.217 362.77L240.711 404.502L243.45 398.629L153.955 356.897L151.217 362.77Z" fill="#40C2B0"/>
<path d="M156.799 350.798L246.293 392.529L249.032 386.656L159.537 344.925L156.799 350.798Z" fill="#40C2B0"/>
<path d="M162.329 338.939L251.823 380.671L254.562 374.798L165.068 333.066L162.329 338.939Z" fill="#40C2B0"/>
<path d="M167.911 326.967L257.405 368.699L260.144 362.826L170.65 321.094L167.911 326.967Z" fill="#40C2B0"/>
<path d="M301.389 382.059C338.678 399.447 354.847 443.837 337.468 481.107C320.088 518.378 275.69 534.525 238.401 517.137" fill="#4759CC"/>
<path d="M303.644 95.1862L309.468 98.0391C288.1 142.388 281.043 157.522 278.041 163.959L277.409 165.315C261.556 199.31 276.338 239.89 310.35 255.75L307.611 261.623C270.322 244.235 254.153 199.845 271.533 162.575L272.165 161.219C275.219 154.669 282.277 139.535 303.644 95.1862Z" fill="#4759CC"/>
<path d="M315.283 100.613L321.107 103.466C301.695 143.915 295.323 157.58 292.531 163.566L291.952 164.809C277.574 195.642 288.256 231.148 315.827 244.004L313.089 249.877C282.241 235.493 270.224 196.064 286.129 161.956L286.708 160.713C289.447 154.84 295.872 141.062 315.283 100.613Z" fill="#4759CC"/>
<path d="M327.036 106.093L332.859 108.946C315.403 145.494 309.61 157.918 307.135 163.226L306.608 164.355C293.705 192.026 300.287 222.458 321.305 232.258L318.566 238.131C294.272 226.803 286.242 192.396 300.672 161.45L301.199 160.32C303.674 155.012 309.467 142.589 327.036 106.093Z" fill="#4759CC"/>
<path d="M333.369 137.647C336.266 131.435 340.013 123.695 344.55 114.261L338.674 111.521C334.084 121.068 330.503 128.748 327.441 135.02L324.702 140.893C323.702 143.039 322.806 144.959 321.964 146.766L319.225 152.639C317.592 156.14 316.539 158.399 315.802 159.98L313.748 164.385C302.659 191.114 307.094 218.482 324.156 226.438L326.895 220.565C315.482 215.243 311.452 198.514 315.728 179.608" fill="#4759CC"/>
<path d="M141.212 276.842C82.7922 249.6 57.5132 180.2 84.7412 121.81C111.969 63.4189 181.382 38.1742 239.802 65.4157" fill="#40C2B0"/>
<path d="M439.443 311.685C453.821 280.852 490.433 267.537 521.281 281.921C552.129 296.306 565.463 332.911 551.085 363.744" fill="#FCABF2"/>
<path d="M526.039 402.115L531.915 404.854L551.085 363.744L545.209 361.004L526.039 402.115Z" fill="#FCABF2"/>
<path d="M514.288 396.635L520.164 399.375L539.334 358.264L533.458 355.524L514.288 396.635Z" fill="#FCABF2"/>
<path d="M502.535 391.155L508.411 393.895L527.581 352.784L521.705 350.044L502.535 391.155Z" fill="#FCABF2"/>
<path d="M490.784 385.675L496.66 388.415L544.638 285.526L538.763 282.786L490.784 385.675Z" fill="#FCABF2"/>
<path d="M479.032 380.195L484.908 382.935L532.781 280.271L526.905 277.532L479.032 380.195Z" fill="#FCABF2"/>
<path d="M467.281 374.715L473.157 377.455L521.03 274.791L515.154 272.051L467.281 374.715Z" fill="#FCABF2"/>
<path d="M455.529 369.236L461.405 371.975L509.383 269.086L503.508 266.346L455.529 369.236Z" fill="#FCABF2"/>
<path d="M443.776 363.756L449.652 366.496L468.823 325.385L462.947 322.645L443.776 363.756Z" fill="#FCABF2"/>
<path d="M432.027 358.276L437.902 361.016L457.073 319.905L451.197 317.165L432.027 358.276Z" fill="#FCABF2"/>
<path d="M420.274 352.796L426.149 355.536L445.32 314.425L439.444 311.685L420.274 352.796Z" fill="#FCABF2"/>
<path d="M495.029 114.305L480.072 146.381L474.083 143.588L489.04 111.512C500.205 87.5689 529.316 77.3565 553.837 88.7905C578.357 100.225 589.134 129.037 577.969 152.981L521.248 274.619L515.259 271.826L571.98 150.188C581.618 129.52 572.229 104.517 550.985 94.6108C529.742 84.7048 504.666 93.6369 495.029 114.305Z" fill="#FF5E6B"/>
<path d="M483.171 109.051L468.319 140.901L462.331 138.108L477.288 106.033C491.462 75.9302 528.368 63.1646 559.216 77.5494C590.177 91.9869 603.834 128.193 589.833 158.514L533.112 280.151L527.123 277.359L583.739 155.947C596.326 128.954 584.109 96.4447 556.312 83.4825C528.74 70.6258 495.811 81.9454 483.171 109.051Z" fill="#FF5E6B"/>
<path d="M471.525 103.345L456.568 135.42L450.58 132.628L465.537 100.552C482.916 63.2816 527.705 47.1798 565.221 64.6734C602.849 82.2197 619.244 126.715 601.812 164.098L545.091 285.736L539.102 282.944L595.823 161.306C611.675 127.31 596.668 86.6248 562.429 70.6592C528.191 54.6937 487.378 69.3495 471.525 103.345Z" fill="#FF5E6B"/>
<path d="M548.353 100.258C566.319 108.636 573.952 130.62 565.736 148.239L509.384 269.086L503.395 266.293L559.694 145.559C566.383 131.215 560.251 113.093 545.561 106.244C530.872 99.3936 513.469 105.441 506.781 119.785L491.824 151.86L485.835 149.068L500.792 116.992C509.008 99.3733 530.386 91.8797 548.353 100.258Z" fill="#FF5E6B"/>
<path d="M325.108 155.658L327.96 149.837C372.33 171.215 387.472 178.276 393.913 181.279L395.269 181.912C429.281 197.772 469.868 183.011 485.721 149.015L491.596 151.755C474.217 189.026 429.819 205.173 392.53 187.785L391.174 187.152C384.733 184.149 369.592 177.088 325.108 155.658Z" fill="#4759CC"/>
<path d="M329.29 143.445L332.142 137.625C372.61 157.045 387.526 164.001 393.402 166.741L394.645 167.32C425.493 181.705 461.006 171.04 473.857 143.482L479.733 146.222C465.355 177.055 425.918 189.053 391.793 173.14L390.55 172.561C384.787 169.874 369.759 162.866 329.29 143.445Z" fill="#4759CC"/>
<path d="M334.767 131.699L337.619 125.879C374.185 143.342 394.185 152.669 394.185 152.669C421.87 165.578 452.309 159.01 462.104 138.002L468.093 140.795C456.77 165.078 422.355 173.092 391.394 158.655C391.447 158.542 371.446 149.215 334.767 131.699Z" fill="#4759CC"/>
<path d="M399.324 140.765C393.109 137.866 353.725 119.364 344.173 114.772L341.435 120.645C350.987 125.237 394.325 145.584 394.325 145.584C421.067 156.679 448.442 152.256 456.394 135.202L450.518 132.462C445.199 143.869 428.466 147.891 409.553 143.609" fill="#4759CC"/>
<path d="M311.837 184.119L644.841 339.401L647.579 333.528L314.576 178.246L311.837 184.119Z" fill="#4759CC"/>
<path d="M36.6378 309.34L42.5137 312.08L122.986 139.506L117.111 136.766L36.6378 309.34Z" fill="#FF5E6B"/>
<path d="M114.574 141.909L188.136 176.211L190.874 170.338L117.313 136.036L114.574 141.909Z" fill="#FF5E6B"/>
<path d="M173.495 314.995L263.215 356.833L277.013 327.242L187.293 285.405L173.495 314.995Z" fill="#40C2B0"/>
<path d="M522.491 477.873L502.378 468.494L505.38 462.057L525.493 471.436C565.833 490.247 583.285 538.672 564.325 579.331C545.366 619.989 497.052 637.748 456.712 618.937L324.844 557.446L327.846 551.008L459.714 612.499C496.551 629.677 540.557 613.485 557.884 576.327C575.211 539.169 559.329 495.051 522.491 477.873Z" fill="#FF5E6B"/>
<path d="M505.38 462.056L493.109 488.371L492.996 488.319C478.618 519.152 442.006 532.467 411.158 518.082C380.31 503.697 366.976 467.093 381.354 436.26L381.467 436.312L393.738 409.997L505.38 462.056Z" fill="#73E3F2"/>
<path d="M387.938 422.143L499.579 474.202L531.916 404.856L420.274 352.797L387.938 422.143Z" fill="#40C2B0"/>
<path d="M280.414 86.0036C294.792 55.1706 331.403 41.8553 362.252 56.2401C393.1 70.6249 406.433 107.23 392.056 138.063" fill="#4759CC"/>
<path d="M580.007 302.018C588.696 283.383 610.895 275.31 629.54 284.004C648.184 292.698 656.269 314.893 647.579 333.528" fill="#74E2F3"/>
<path d="M576.591 218.476L678.967 266.215L681.705 260.342L579.33 212.603L576.591 218.476Z" fill="#74E2F3"/>
<path d="M642.177 329.772L648.053 332.512L680.389 263.166L674.513 260.426L642.177 329.772Z" fill="#74E2F3"/>
<path d="M170.703 213.595C146.635 202.371 135.934 174.282 146.888 150.79C157.843 127.298 186.239 117.44 210.308 128.663" fill="white"/>
<path d="M170.703 213.595C146.635 202.371 135.934 174.282 146.888 150.79C157.843 127.298 186.239 117.44 210.308 128.663" stroke="#231F20" stroke-width="4" stroke-miterlimit="10"/>
<path d="M614.134 228.832C623.087 209.632 645.443 201.22 664.088 209.914C682.733 218.608 690.606 241.255 681.706 260.342" fill="#40C2B0"/>
<path d="M186.586 379.263C181.161 390.896 167.471 396.062 156.172 390.793C144.759 385.471 140.03 371.716 145.455 360.083" fill="#2D2A2B"/>
</g>
<defs>
<clipPath id="clip0_2721_10407">
<rect width="697.794" height="422.75" fill="white" transform="translate(0.0947266 0.604004)"/>
</clipPath>
</defs>
</svg>
