<svg width="33" height="33" viewBox="0 0 33 33" fill="none" xmlns="http://www.w3.org/2000/svg">
<path d="M16.5004 0C7.40199 0 0 7.40199 0 16.5004C0 25.598 7.40199 33 16.5004 33C25.5984 33 33.0004 25.598 33.0004 16.5004C33.0004 7.40199 25.5984 0 16.5004 0ZM23.5449 24.2878C23.3378 24.9531 22.6301 25.3249 21.9637 25.1174C21.2981 24.9096 20.9267 24.2025 21.1338 23.5369C21.2869 23.0464 21.7106 22.7161 22.1891 22.6585C22.0912 21.6874 21.6221 20.6384 20.809 20.2435C20.2031 21.0186 18.5029 22.1333 16.5004 22.1333C14.495 22.1333 12.7937 21.0155 12.1885 20.241C12.0891 20.1146 12.0196 19.9819 11.9828 19.845C11.1823 20.4067 10.6094 21.4926 10.5325 22.3478C10.7558 22.4349 10.9313 22.6311 11.0078 22.8779C11.7082 23.1633 12.3549 23.8634 12.8468 24.8917C12.9124 25.0282 12.8966 25.1813 12.8215 25.2996C13.1339 26.0607 13.3168 26.8973 13.3168 27.6167C13.3168 28.8237 13.235 29.339 12.4055 29.4833C12.3437 29.5599 12.2499 29.6083 12.1443 29.6083H11.4249C11.2395 29.6083 11.0882 29.4573 11.0882 29.2716C11.0882 29.2709 11.0882 29.2702 11.0882 29.2695C11.0896 29.0849 11.2403 28.9349 11.4249 28.9349H12.1443C12.2103 28.9349 12.2713 28.9536 12.3233 28.9862C12.5473 28.9486 12.634 28.883 12.6846 28.7956C12.7913 28.6106 12.812 28.2381 12.812 27.6156C12.812 26.9528 12.6407 26.1797 12.3482 25.4762C12.238 25.4432 12.1415 25.3663 12.0874 25.254C11.5847 24.2022 10.9138 23.5741 10.2931 23.5741C9.66008 23.5741 8.95688 24.2524 8.45731 25.3421C8.39798 25.4716 8.28107 25.5562 8.15082 25.5812C7.88436 26.2559 7.72989 26.9861 7.72989 27.6163C7.72989 28.2258 7.75236 28.6158 7.86891 28.8026C7.92368 28.8904 8.01707 28.956 8.26141 28.9925C8.31548 28.956 8.38042 28.9349 8.45029 28.9349H9.16893C9.3543 28.9349 9.50526 29.0852 9.50596 29.2709V29.2716C9.50596 29.4573 9.35465 29.6083 9.16893 29.6083H8.45029C8.34918 29.6083 8.2586 29.563 8.19681 29.4931C7.86119 29.4436 7.60315 29.3306 7.44026 29.0694C7.2584 28.777 7.2247 28.3508 7.2247 27.6163C7.2247 26.9135 7.39953 26.1011 7.69864 25.3554C7.64423 25.2455 7.63756 25.1132 7.69232 24.9928C7.9809 24.3615 8.34497 23.8248 8.74484 23.4396C8.99339 23.1998 9.2567 23.0194 9.52737 22.9004C9.60145 22.6371 9.78857 22.4271 10.0266 22.3411C10.0789 21.6464 10.3991 20.8477 10.8892 20.2098C11.4818 19.4385 12.2187 19.0042 12.9742 18.9719C13.0943 18.7844 13.1761 18.5576 13.1764 18.2845C13.1768 18.2845 13.1768 18.2845 13.1768 18.2845C13.7557 18.8578 14.3988 19.3117 15.0862 19.5845C15.5486 19.7674 16.0306 19.8692 16.526 19.8692C17.0217 19.8692 17.5037 19.7678 17.9664 19.5845C18.6468 19.3138 19.2854 18.8659 19.8598 18.3003C19.864 18.3017 19.8671 18.3038 19.8713 18.3059C19.8854 19.2155 20.7985 19.6144 21.0453 19.7053C21.0446 19.7109 21.0443 19.7155 21.0436 19.7211C21.0408 19.7435 21.0348 19.766 21.0302 19.7881C21.645 20.0862 22.14 20.6837 22.4426 21.5052C22.5844 21.89 22.6715 22.3018 22.7024 22.7024C22.7069 22.7038 22.7105 22.7052 22.7154 22.7069C23.3806 22.9144 23.7524 23.6222 23.5449 24.2878ZM11.4958 11.6521C11.5239 11.3775 11.8894 8.30249 14.191 8.51559L21.2314 12.1397L21.8029 11.5889C21.8229 11.5924 21.8419 11.5987 21.8602 11.6075C22.1119 11.7251 22.219 12.3114 22.0999 12.9802C22.0083 13.4931 21.8078 13.9154 21.5951 14.0962C21.5098 14.1682 21.4231 14.2019 21.3395 14.1871C21.2925 14.1791 21.2496 14.1562 21.2121 14.1201C20.7416 15.5805 19.8443 17.0354 18.7114 17.9103C18.0503 18.4204 17.3092 18.7332 16.5256 18.7332C15.7375 18.7332 14.9922 18.4165 14.3279 17.9004C13.201 17.0252 12.3075 15.5753 11.8402 14.1201C11.802 14.1559 11.7595 14.1787 11.7124 14.1871C11.6159 14.204 11.5137 14.1559 11.4161 14.0576C11.2185 13.8599 11.0373 13.4597 10.9517 12.9798C10.839 12.3486 10.9285 11.7907 11.1504 11.631C11.1809 11.6092 11.2132 11.5945 11.2483 11.5885C11.3284 11.5748 11.4116 11.6054 11.4934 11.6714V11.6717C11.4937 11.6714 11.4944 11.6647 11.4958 11.6521ZM28.6825 25.1757C27.2884 20.3818 24.714 20.2168 24.1597 20.0872C24.0951 20.0722 24.0301 20.0585 23.9648 20.0458C22.2832 18.4916 23.4309 12.0052 23.4309 12.0052C23.4309 2.11731 16.7426 3.08978 16.7426 3.08978C16.6611 3.08557 16.58 3.08206 16.5004 3.07925C16.4203 3.08206 16.3396 3.08557 16.2578 3.08978C16.2578 3.08978 9.5695 2.11696 9.5695 12.0052C9.5695 12.0052 10.7175 18.4927 9.03552 20.0458C8.96952 20.0585 8.90457 20.0722 8.84068 20.0872C8.28598 20.2168 5.71158 20.3818 4.31783 25.1757C4.30168 25.2311 4.28974 25.2877 4.27745 25.3438C2.47224 22.8565 1.40393 19.8015 1.40393 16.5004C1.40393 8.17645 8.1761 1.40429 16.5004 1.40429C24.8239 1.40429 31.5961 8.17645 31.5961 16.5004C31.5961 19.8015 30.5278 22.8565 28.7225 25.3438C28.7103 25.288 28.699 25.2315 28.6825 25.1757Z" fill="black"/>
<path d="M22.4823 23.4468C22.3801 23.4148 22.2751 23.418 22.1804 23.4496C22.0322 23.4988 21.9086 23.615 21.8584 23.775C21.777 24.0387 21.9237 24.3182 22.1863 24.3992C22.4503 24.4814 22.7294 24.335 22.8112 24.0713C22.8699 23.8828 22.8105 23.6852 22.6754 23.5595C22.622 23.5089 22.5571 23.4696 22.4823 23.4468Z" fill="black"/>
</svg>
