<svg width="1210" height="414" viewBox="0 0 1210 414" fill="none" xmlns="http://www.w3.org/2000/svg">
<g clip-path="url(#clip0)">
<path d="M177.814 296.93C232.419 296.906 276.695 253.983 276.828 201.084L276.672 126.977C276.997 49.9445 341.953 -12.7334 421.423 -12.7679C500.893 -12.8025 566.113 49.8189 566.275 126.851L566.879 414.016L551.277 414.022L550.674 127.345C550.529 58.114 492.393 2.0714 420.968 2.34619C349.542 2.62098 291.155 58.7142 291.299 127.458L291.453 200.59C292.07 262.021 240.739 312.016 177.845 312.044C114.952 312.071 63.1673 262.364 63.2823 201.177L62.1305 -346.337L77.732 -346.344L78.3962 201.17C78.507 253.825 122.964 296.71 177.814 296.93Z" fill="#FCAAF2" fill-opacity="0.1"/>
<path d="M177.141 325.453C248.322 325.422 306.71 269.329 306.809 200.341L306.655 127.209C306.527 66.2662 357.858 16.2704 420.751 16.2431C483.645 16.2158 535.429 65.9229 535.314 127.11L536.162 414.031L520.56 414.037L520.2 127.117C520.09 74.4617 475.388 31.3332 420.783 31.357C366.178 31.3807 321.901 74.304 321.769 127.203L321.925 201.31C321.599 278.342 256.644 341.02 177.173 341.055C97.7033 341.089 32.484 278.468 32.322 201.436L31.1702 -346.078L46.7717 -346.085L47.4338 200.454C47.8227 269.442 105.959 325.484 177.141 325.453Z" fill="#FCAAF2" fill-opacity="0.1"/>
<path d="M177.453 358.362C265.699 358.324 337.464 287.842 337.037 200.815L336.882 126.708C336.787 81.8542 374.251 45.272 420.568 45.2519C466.885 45.2318 504.507 83.7316 504.846 128.829L505.446 414.044L489.845 414.05L489.246 129.324C489.169 92.7579 458.385 60.5932 420.601 60.8534C382.572 60.8699 351.92 90.6235 351.996 127.189L352.152 201.296C352.352 296.368 273.776 373.678 176.999 373.964C80.4643 374.006 1.31869 296.52 1.11868 201.449L-0.0332031 -346.065L15.5683 -346.072L16.9634 201.198C17.146 287.981 89.2074 358.4 177.453 358.362Z" fill="#FCAAF2" fill-opacity="0.1"/>
<path d="M246.199 127.236C245.999 32.1644 324.575 -45.1457 421.352 -45.4315C517.887 -45.4734 597.032 32.012 597.232 127.083L597.592 414.004L581.991 414.011L581.874 126.846C581.692 40.0632 509.873 -30.5998 421.628 -30.5615C333.382 -30.5232 261.617 39.9584 262.043 126.985L262.199 201.092C262.294 245.946 224.83 282.529 178.513 282.549C132.196 282.569 94.5735 244.069 94.2349 198.971L93.0871 -346.593L108.689 -346.599L109.105 198.721C109.181 235.287 139.965 267.452 177.749 267.191C215.778 267.175 246.431 237.421 246.354 200.855L246.199 127.236Z" fill="#FCAAF2" fill-opacity="0.1"/>
</g>
<defs>
<clipPath id="clip0">
<rect width="1210" height="414" fill="white"/>
</clipPath>
</defs>
</svg>
