<svg width="20" height="19" viewBox="0 0 20 19" fill="none" xmlns="http://www.w3.org/2000/svg">
<path fill-rule="evenodd" clip-rule="evenodd" d="M19.2825 17.5423C18.1951 13.8029 16.187 13.6742 15.7546 13.5731C15.7042 13.5614 15.6535 13.5507 15.6026 13.5408C14.2909 12.3285 15.1861 7.26896 15.1861 7.26896C15.1861 -0.44388 9.96906 0.314671 9.96906 0.314671C9.90553 0.311385 9.84227 0.308646 9.78011 0.306455C9.71767 0.308646 9.65469 0.311385 9.59088 0.314671C9.59088 0.314671 4.37386 -0.444154 4.37386 7.26896C4.37386 7.26896 5.26934 12.3293 3.95734 13.5408C3.90586 13.5507 3.8552 13.5614 3.80536 13.5731C3.37269 13.6742 1.36458 13.8029 0.277418 17.5423C0.264821 17.5855 0.28702 18.9215 0.277436 18.9653H19.2825C19.2825 17.8585 19.2954 17.5858 19.2825 17.5423ZM14.0417 17.4968C14.5614 17.6586 15.1135 17.3686 15.2751 16.8497C15.4369 16.3305 15.1469 15.7784 14.628 15.6166C14.6242 15.6152 14.6214 15.6141 14.6179 15.613C14.5938 15.3006 14.5258 14.9793 14.4152 14.6792C14.1792 14.0384 13.793 13.5723 13.3135 13.3398C13.3171 13.3226 13.3217 13.305 13.3239 13.2875L13.3253 13.2752C13.1328 13.2043 12.4205 12.8932 12.4096 12.1837C12.4063 12.182 12.4038 12.1804 12.4005 12.1793C11.9525 12.6204 11.4544 12.9699 10.9237 13.181C10.5628 13.3239 10.1868 13.4031 9.8001 13.4031C9.41371 13.4031 9.03772 13.3237 8.67706 13.181C8.14087 12.9682 7.63892 12.6141 7.18735 12.167C7.18707 12.38 7.12327 12.5569 7.02961 12.7031C6.4403 12.7283 5.8655 13.0671 5.40325 13.6687C5.02096 14.1663 4.77121 14.7893 4.73041 15.3312C4.54474 15.3983 4.39878 15.5621 4.341 15.7675C4.12987 15.8603 3.92448 16.0011 3.7306 16.1881C3.41869 16.4885 3.13472 16.9072 2.90961 17.3996C2.86689 17.4935 2.8721 17.5967 2.91454 17.6825L3.26726 17.8585C3.36885 17.8391 3.46004 17.7731 3.50632 17.6721C3.896 16.822 4.44452 16.293 4.93826 16.293C5.42242 16.293 5.94573 16.7829 6.33788 17.6033C6.38005 17.6909 6.45536 17.7509 6.54135 17.7767L6.91049 17.6389C6.96909 17.5466 6.98141 17.4272 6.9302 17.3207C6.54655 16.5186 6.04213 15.9726 5.49581 15.7499C5.43611 15.5574 5.29918 15.4043 5.12502 15.3364C5.18499 14.6693 5.63191 13.8223 6.25627 13.3842C6.28503 13.491 6.33925 13.5945 6.41675 13.6931C6.88885 14.2972 8.21591 15.1691 9.78011 15.1691C11.3421 15.1691 12.6684 14.2997 13.141 13.695C13.7752 14.0031 14.1411 14.8213 14.2175 15.5788C13.8442 15.6237 13.5137 15.8814 13.3943 16.2639C13.2327 16.7832 13.5225 17.3347 14.0417 17.4968ZM7.97876 4.54694C6.18343 4.38072 5.89836 6.77933 5.87645 6.99347C5.87535 7.00333 5.87453 7.00853 5.87453 7.00853C5.81073 6.95705 5.74583 6.93323 5.68339 6.94391C5.656 6.94856 5.63081 6.96006 5.60699 6.97704C5.43392 7.10164 5.36409 7.53678 5.45199 8.02915C5.51881 8.4035 5.66011 8.71568 5.81429 8.86986C5.89042 8.94654 5.9701 8.98405 6.04541 8.97091C6.08211 8.96434 6.11524 8.94654 6.14509 8.9186C6.50958 10.0537 7.20651 11.1847 8.08556 11.8674C8.60367 12.2699 9.18504 12.5169 9.79983 12.5169C10.411 12.5169 10.9891 12.2729 11.5048 11.875C12.3885 11.1926 13.0884 10.0578 13.4554 8.9186C13.4847 8.94681 13.5181 8.96461 13.5548 8.97091C13.62 8.98241 13.6876 8.95612 13.7541 8.89998C13.9201 8.75895 14.0765 8.42952 14.1479 8.02943C14.2408 7.50775 14.1572 7.05043 13.9609 6.9587C13.9467 6.95185 13.9319 6.94692 13.9163 6.94418L13.4704 7.37384L7.97876 4.54694Z" fill="#252332"/>
</svg>
