<svg width="13" height="8" viewBox="0 0 13 8" fill="none" xmlns="http://www.w3.org/2000/svg">
<path d="M12.2064 0.792625C12.1135 0.698974 12.003 0.624641 11.8812 0.573914C11.7595 0.523187 11.6289 0.49707 11.497 0.49707C11.3651 0.49707 11.2345 0.523187 11.1127 0.573914C10.991 0.624641 10.8805 0.698974 10.7876 0.792625L6.5011 5.08908L2.21463 0.792625C2.02648 0.604476 1.7713 0.498776 1.50522 0.498776C1.23914 0.498776 0.983951 0.604476 0.795802 0.792625C0.607654 0.980774 0.501953 1.23596 0.501953 1.50204C0.501953 1.76812 0.607654 2.02331 0.795802 2.21146L5.79169 7.20734C5.88457 7.30099 5.99508 7.37532 6.11684 7.42605C6.2386 7.47678 6.3692 7.50289 6.5011 7.50289C6.633 7.50289 6.7636 7.47678 6.88536 7.42605C7.00712 7.37532 7.11763 7.30099 7.21052 7.20734L12.2064 2.21146C12.3 2.11857 12.3744 2.00806 12.4251 1.8863C12.4758 1.76454 12.502 1.63394 12.502 1.50204C12.502 1.37014 12.4758 1.23954 12.4251 1.11778C12.3744 0.996021 12.3 0.885511 12.2064 0.792625Z" fill="black"/>
</svg>
