<svg width="818" height="714" viewBox="0 0 818 714" fill="none" xmlns="http://www.w3.org/2000/svg">
<path d="M423.947 109.938C475.206 109.96 516.769 150.251 516.894 199.906L516.747 269.468C517.053 341.776 578.028 400.61 652.628 400.642C727.227 400.675 788.45 341.894 788.602 269.586L789.169 0.0327148L774.524 0.0263672L773.957 269.122C773.821 334.107 719.248 386.713 652.2 386.455C585.152 386.197 530.343 333.544 530.478 269.016L530.623 200.369C531.202 142.706 483.016 95.7764 423.977 95.7508C364.938 95.7252 316.327 142.384 316.435 199.819L315.354 713.754L329.999 713.76L330.623 199.825C330.727 150.399 372.459 110.144 423.947 109.938Z" fill="#FCAAF2" fill-opacity="0.1"/>
<path d="M423.316 83.1637C490.135 83.1927 544.945 135.846 545.037 200.603L544.893 269.249C544.772 326.455 592.958 373.385 651.997 373.41C711.036 373.436 759.647 326.777 759.539 269.343L760.334 0.0186157L745.689 0.0122681L745.351 269.337C745.247 318.762 703.285 359.246 652.027 359.223C600.768 359.201 559.205 318.91 559.08 269.256L559.227 199.694C558.921 127.385 497.946 68.5515 423.347 68.5191C348.747 68.4867 287.524 127.268 287.372 199.575L286.291 713.511L300.936 713.517L301.558 200.497C301.923 135.74 356.496 83.1347 423.316 83.1637Z" fill="#FCAAF2" fill-opacity="0.1"/>
<path d="M423.609 52.2731C506.447 52.309 573.814 118.468 573.413 200.158L573.267 269.72C573.178 311.823 608.346 346.162 651.825 346.181C695.303 346.199 730.62 310.061 730.938 267.729L731.501 0.00634766L716.856 0L716.293 267.265C716.221 301.588 687.324 331.78 651.856 331.536C616.158 331.52 587.383 303.592 587.456 269.268L587.602 199.706C587.79 110.465 514.029 37.8965 423.182 37.6282C332.564 37.5889 258.269 110.322 258.081 199.563L257 713.499L271.645 713.505L272.955 199.798C273.126 118.338 340.771 52.2371 423.609 52.2731Z" fill="#FCAAF2" fill-opacity="0.1"/>
<path d="M488.142 269.225C487.954 358.465 561.715 431.034 652.561 431.302C743.179 431.342 817.474 358.608 817.662 269.368L818 0.043396L803.355 0.0370483L803.245 269.59C803.074 351.051 735.657 417.38 652.819 417.344C569.981 417.308 502.615 351.149 503.015 269.46L503.162 199.898C503.25 157.794 468.082 123.456 424.604 123.437C381.125 123.418 345.809 159.557 345.491 201.889L344.413 713.994L359.059 714L359.449 202.124C359.521 167.8 388.418 137.608 423.887 137.852C459.585 137.868 488.359 165.797 488.287 200.12L488.142 269.225Z" fill="#FCAAF2" fill-opacity="0.1"/>
</svg>
