<svg width="18" height="18" viewBox="0 0 18 18" fill="none" xmlns="http://www.w3.org/2000/svg">
<path fill-rule="evenodd" clip-rule="evenodd" d="M10.164 5.9128C10.1643 5.68141 10.096 5.45512 9.96772 5.26257C9.83947 5.07002 9.65701 4.91986 9.44344 4.83109C9.22987 4.74232 8.99477 4.71893 8.76791 4.76388C8.54105 4.80883 8.33261 4.9201 8.16897 5.0836C8.00532 5.24711 7.89383 5.45551 7.8486 5.68244C7.80336 5.90936 7.82642 6.14461 7.91485 6.35842C8.00328 6.57223 8.1531 6.75499 8.34537 6.88358C8.3946 6.9165 8.44603 6.94549 8.49921 6.9704C8.65374 7.04281 8.82292 7.0808 8.99498 7.0808C9.14842 7.08101 9.30039 7.05096 9.44221 6.99235C9.45899 6.98542 9.4756 6.9781 9.49201 6.9704C9.61425 6.91308 9.72575 6.83491 9.82147 6.73927C9.93004 6.63079 10.0162 6.50196 10.0749 6.36015C10.1337 6.21833 10.164 6.06632 10.164 5.9128ZM7.92836 7.9704V13.2504H10.0616V7.9704H7.92836ZM10.7508 0.172969C12.4955 0.520207 14.098 1.37714 15.3559 2.63537C16.1938 3.4696 16.8587 4.4612 17.3124 5.5532C17.7663 6.64561 18 7.81698 18 9C18 10.183 17.7663 11.3544 17.3124 12.4468C16.8587 13.5387 16.1939 14.5302 15.3561 15.3644C14.0982 16.6228 12.4956 17.4798 10.7508 17.827C9.00571 18.1744 7.19686 17.9961 5.55304 17.3149C3.90923 16.6336 2.50432 15.48 1.51592 13.9999C0.527522 12.5199 0 10.7799 0 9C0 7.22008 0.527522 5.48009 1.51592 4.00006C2.50432 2.52002 3.90923 1.36639 5.55304 0.685145C7.19686 0.00389272 9.00571 -0.174354 10.7508 0.172969ZM14.6495 14.6568C13.5313 15.7756 12.1066 16.5376 10.5556 16.8463C9.0046 17.155 7.39692 16.9965 5.9359 16.391C4.47487 15.7856 3.22611 14.7602 2.34752 13.4446C1.46894 12.129 1 10.5823 1 9C1 7.41774 1.46894 5.87102 2.34752 4.55542C3.22611 3.23983 4.47487 2.21445 5.9359 1.60895C7.39692 1.00346 9.0046 0.845039 10.5556 1.15373C12.1066 1.46243 13.5313 2.22437 14.6495 3.3432C15.3945 4.08467 15.9856 4.96613 16.389 5.93691C16.7923 6.90769 17 7.94867 17 9C17 10.0513 16.7923 11.0923 16.389 12.0631C15.9856 13.0339 15.3945 13.9153 14.6495 14.6568Z" fill="#4F6D8D"/>
</svg>
