<svg width="25" height="25" viewBox="0 0 25 25" fill="none" xmlns="http://www.w3.org/2000/svg">
<path d="M24.9902 1.78781C24.9902 0.830402 24.2282 0.0488472 23.2708 0.00976944C23.2122 0.00976944 23.1536 0.00976944 23.1047 0.00976944C16.061 0 9.01719 0 1.97343 0C1.34818 0 0.810864 0.214928 0.410316 0.7034C0.127003 1.03556 0 1.42634 0 1.86596C0 3.57562 0 5.2755 0 6.97538C0 12.3486 0 17.7218 0 23.1047C0 23.4662 0.0390778 23.8179 0.205158 24.1403C0.410316 24.5604 0.732708 24.8339 1.19187 24.9512C1.23095 24.9609 1.28957 24.9512 1.31887 25C1.34818 25 1.37749 25 1.4068 25C1.44588 24.9609 1.50449 24.9707 1.55334 24.9707C8.65572 24.9707 15.7679 24.9707 22.8703 24.9707C22.9289 24.9707 22.9875 24.9609 23.0363 25C23.0657 25 23.095 25 23.1243 25C23.3392 24.9316 23.5639 24.9023 23.7691 24.8046C24.3064 24.5604 24.7265 24.1989 24.9316 23.6225C24.9805 23.4857 25 23.3392 25 23.1927C24.9902 16.0512 24.9902 8.9195 24.9902 1.78781ZM7.15123 21.2974C7.15123 21.4048 7.12192 21.4342 7.01446 21.4342C5.91051 21.4342 4.80657 21.4342 3.70262 21.4342C3.58539 21.4342 3.56585 21.3951 3.56585 21.2876C3.56585 19.3435 3.56585 17.4091 3.56585 15.465C3.56585 13.5404 3.56585 11.6159 3.56585 9.69129C3.56585 9.55451 3.60492 9.51544 3.7417 9.52521C4.83587 9.53498 5.92028 9.52521 7.01446 9.52521C7.12192 9.52521 7.161 9.55451 7.161 9.66198C7.15123 13.5307 7.15123 17.4189 7.15123 21.2974ZM7.59086 5.5002C7.5127 6.73114 6.4576 7.66901 5.21688 7.59086C3.98593 7.5127 3.08714 6.46737 3.12622 5.2755C3.17507 4.00547 4.26925 3.04807 5.46112 3.12622C6.6823 3.1653 7.66901 4.23017 7.59086 5.5002ZM21.2485 21.4342C20.1739 21.4244 19.0993 21.4244 18.0148 21.4342C17.8683 21.4342 17.839 21.3853 17.839 21.2485C17.839 19.2946 17.8488 17.3408 17.839 15.3869C17.839 14.8105 17.7511 14.2438 17.5068 13.7163C17.0965 12.8175 16.3638 12.4072 15.3771 12.5244C14.6151 12.6123 13.9898 12.9347 13.5795 13.5991C13.3451 13.9801 13.2181 14.4099 13.1497 14.8496C13.1008 15.1817 13.0911 15.5139 13.0911 15.846C13.0911 17.6534 13.0911 19.4607 13.0911 21.2681C13.0911 21.4146 13.052 21.4342 12.9152 21.4342C11.8308 21.4244 10.7562 21.4244 9.67175 21.4342C9.54474 21.4342 9.50567 21.4048 9.50567 21.2681C9.50567 17.4091 9.50567 13.5404 9.50567 9.68152C9.50567 9.55451 9.52521 9.51544 9.66198 9.51544C10.678 9.52521 11.7038 9.52521 12.7198 9.51544C12.8468 9.51544 12.8761 9.55451 12.8761 9.67175C12.8664 10.1309 12.8761 10.5901 12.8761 11.0492C12.8761 11.0981 12.8761 11.1469 12.8761 11.2055C12.8859 11.2055 12.8957 11.2153 12.9152 11.2153C13.1399 10.8343 13.4428 10.5412 13.8042 10.2872C14.6639 9.68152 15.6409 9.3982 16.6862 9.36889C17.3798 9.34936 18.0637 9.40797 18.728 9.60336C19.8906 9.94529 20.6526 10.7073 21.0434 11.8503C21.3169 12.6612 21.4048 13.5014 21.4146 14.3513C21.4439 16.6471 21.4146 18.9429 21.4342 21.2388C21.4342 21.3951 21.3951 21.4342 21.2485 21.4342Z" fill="#4F6D8D"/>
</svg>
