<svg width="26" height="32" viewBox="0 0 26 32" fill="none" xmlns="http://www.w3.org/2000/svg">
<path d="M13.4721 0C6.58128 0 0.943359 5.4291 0.943359 12.1111C0.943359 14.756 1.84821 17.2618 3.4491 19.3499L12.9152 31.7394C13.124 32.0178 13.6113 32.0874 13.8897 31.8786C13.9593 31.809 13.9593 31.809 14.0289 31.7394L23.495 19.3499C25.0959 17.2618 26.0008 14.756 26.0008 12.1111C26.0008 5.4291 20.3629 0 13.4721 0ZM12.4976 16.8441C9.85266 16.2873 8.11256 13.7816 8.66939 11.1366C9.22622 8.49168 11.732 6.75158 14.3769 7.30841C16.3258 7.72603 17.8571 9.18772 18.2051 11.1366C18.6924 13.7816 16.9523 16.3569 14.3769 16.8441C13.7505 16.9834 13.124 16.9834 12.4976 16.8441Z" fill="black"/>
</svg>
