<svg width="21" height="21" viewBox="0 0 21 21" fill="none" xmlns="http://www.w3.org/2000/svg">
<path d="M19.397 11.3489L2.52643 11.3286C2.5368 11.5359 2.55462 11.7413 2.57964 11.9446L19.3477 11.9446C19.371 11.748 19.3875 11.5493 19.397 11.3489Z" fill="#252332"/>
<path d="M2.52551 10.4446L19.3961 10.465C19.3841 10.2248 19.3622 10.1043 19.3309 9.8698L2.57964 9.8698C2.55204 10.0979 2.53386 10.2116 2.52551 10.4446Z" fill="#252332"/>
<path fill-rule="evenodd" clip-rule="evenodd" d="M10.9734 20.9791C5.44108 20.9176 0.944127 16.4207 0.937507 10.9432C0.930887 5.46575 5.41698 0.979654 11.004 0.986406C13.7427 0.989715 16.2637 2.08825 18.0734 3.898C19.8832 5.70775 20.9817 8.22871 20.985 10.9674C20.9369 16.4996 16.4508 20.9857 10.9734 20.9791ZM2.52643 11.3286C2.5368 11.5359 2.55462 11.7413 2.57964 11.9446C3.09678 16.1467 6.68729 19.4402 10.9715 19.4454C15.2626 19.4506 18.8498 16.1552 19.3477 11.9446C19.371 11.748 19.3875 11.5493 19.397 11.3489L19.3961 10.465C19.3841 10.2248 19.3622 10.1043 19.3309 9.8698C18.7761 5.71936 15.2542 2.52816 10.9511 2.57481C6.6436 2.5177 3.0776 5.75596 2.57964 9.8698C2.55204 10.0979 2.53386 10.2116 2.52551 10.4446L2.52643 11.3286Z" fill="#252332"/>
</svg>
