<?xml version="1.0" encoding="UTF-8"?>
<!-- Generator: Adobe Illustrator 12.0.0, SVG Export Plug-In . SVG Version: 6.00 Build 51448)  -->
<!DOCTYPE svg PUBLIC "-//W3C//DTD SVG 1.1//EN" "http://www.w3.org/Graphics/SVG/1.1/DTD/svg11.dtd">
<svg version="1.1" id="us-map-svg" class="us-map-svg" xmlns="http://www.w3.org/2000/svg" xmlns:xlink="http://www.w3.org/1999/xlink" width="100%" viewBox="0 0 600 430" overflow="visible" enable-background="new 0 0 600 430" xml:space="preserve">
<style id="style_css_sheet" type="text/css"> 
.state{
    fill: #ffffff;
    stroke: #000000;
    stroke-width: 1.4;
    stroke-linejoin:round;
}

</style>

<rect id="background" fill="none" width="600" height="430"/>

<path id="mx" class="state mx" d="M88.501 248.497C88.501 248.497 86.738 249.766 86.851 251.273L89.63 252.924L112.987 266.385L128.271 274.98L146.069 277.497L161.994 279.399L162.713 273.117L183.133 275.306C188.259 279.495 191.868 285.328 196.779 290.439C201.928 295.8 201.137 305.439 206.94 309.5C208.263 310.424 219.924 319.909 220.788 317.313C222.027 313.61 226.432 308.255 230.124 307.155C240.575 304.034 248.949 313.46 252.872 323.261C254.458 327.216 259.372 331.437 260.168 335.418C260.858 338.878 265.158 338.247 264.811 342.058C264.72 343.059 264.683 346.225 265.549 347.314C268.328 350.787 269.659 359.566 275.495 358.515C278.191 358.028 281.433 361.396 285 361.249C287.617 361.138 289.288 363.435 291.513 364.157L291.797 365.135V367.635L289.705 371.375L288.456 375.295L234.606 376.135L234.436 351.841L198.167 316.437L143.165 317.435L103.669 278.173L104.767 273.82L103.306 272.392L101.862 272.411L98.2226 270.144L98.7762 268.401L96.5906 266.694L93.7133 267.599L92.4064 267.182L89.464 262.881L85.5533 261.919L84.8658 264.531L83.2119 270.626L84.2529 272.927L69.0932 273.268L66.5876 269.25L66.106 265.497L64.0243 260.602L65.1317 257.122L62.7841 254.111L61.6279 250.133L61.1279 247.633L60.6279 245.633L74.5639 247.066L88.501 248.497Z"/>


<g id="ak" class="state pacific ak">
	
<path d="M73.2888 392.939C73.8418 392.17 73.9728 391.349 74.8948 391.161C75.0358 391.14 75.9158 391.525 75.9398 391.53C76.5228 391.667 76.9518 391.52 77.0068 392.133C77.1008 393.147 75.5048 393.02 75.0208 393.381C74.4408 393.819 73.0088 394.21 73.2888 392.939Z"/>
<path d="M18.4519 357.782C16.8169 359.237 16.0579 356.94 16.9909 355.674C18.3239 356.849 18.8479 356.684 20.2919 356.537C21.1819 356.446 22.0179 358.003 22.7829 358.538C23.3209 358.914 25.8009 359.632 24.7579 360.297C23.9969 360.782 22.9039 360.493 21.8629 361.353C21.8979 360.165 19.7969 357.47 18.4519 357.782Z"/>
<path d="M27.3378 381.374C26.9848 380.758 26.4518 380.404 27.0878 379.958C27.5268 379.648 28.2288 379.664 28.7438 379.533C29.7548 379.278 31.0368 378.86 31.8348 379.892C32.6688 380.97 31.9828 382.59 30.6388 382.671C29.3038 382.753 28.3818 382.084 27.3378 381.374Z"/>
<path d="M31.8989 416.659C32.6839 416.277 32.8749 415.895 33.2489 415.145C33.5819 414.479 34.3049 414.979 34.8279 414.642C36.0229 413.881 37.4219 413.878 37.5269 415.518C37.6679 417.706 35.7879 416.246 34.5519 416.872C33.8509 417.226 33.8729 417.849 33.0919 418.013C32.1839 418.198 31.5959 417.514 31.8989 416.659Z"/>
<path d="M73.0208 399.758C72.6218 400.058 72.5338 400.379 72.5338 400.834C72.5338 401.186 71.9358 401.62 71.7088 401.924C70.9088 402.989 70.3508 402.644 69.7908 401.522C69.5348 401.011 69.1258 401.37 69.1258 400.67C69.1258 400.095 68.8378 399.909 68.6378 399.433C68.3158 398.675 68.0228 399.264 68.4158 398.141C68.5588 397.73 69.1448 397.184 69.5018 396.947C69.8138 396.736 70.1778 396.776 70.5228 396.515C70.8428 396.272 70.6568 395.507 71.1248 395.32C71.8778 395.014 71.6778 395.862 72.1808 395.862C72.7458 395.86 72.8758 395.172 73.0208 394.758C73.1248 394.469 75.4018 394.495 75.6708 394.668C76.4088 395.147 75.5568 395.502 75.7258 395.804C75.9228 396.158 76.4828 396.424 76.8598 396.509C76.6298 396.863 76.4198 397.254 76.1568 397.59C76.0398 397.739 75.6428 397.654 75.5118 397.794C75.4688 397.839 75.5498 398.211 75.4918 398.326C75.1098 399.096 73.6188 398.936 73.0208 399.758Z"/>
<path d="M20.3739 422.668C20.0949 423.851 18.6709 423.687 18.1049 424.466C17.4169 425.415 16.2309 425.621 15.2329 426.137C15.7409 425.738 16.1879 425.318 16.2469 424.668C16.3079 423.98 17.3349 423.923 17.7429 423.516C18.3679 422.893 19.2959 421.299 20.3739 422.668Z"/>
<path d="M20.7 424.24C20.7 424.24 20.293 424.017 20.104 423.915C20.574 423.285 21.889 423.295 22.646 422.992C24.226 422.364 22.707 421.165 23.152 420.621C23.943 419.648 24.742 419.989 25.831 420.058C27.076 420.133 26.292 421.79 25.959 421.936C25.57 422.082 25.252 422.186 25.053 422.553C24.665 423.262 24.318 423.066 23.629 423.253C22.666 423.515 21.625 423.868 20.7 424.24Z"/>
<path d="M130.523 383.246C129.571 382.922 128.088 381.876 128.376 380.469C128.598 379.376 128.901 380.108 129.566 379.278C130.109 378.596 130.535 379.428 131.081 379.437C131.542 379.446 132.36 379.034 132.758 379.33C132.903 379.436 132.897 380.1 132.901 380.236C132.921 380.939 133.439 380.566 133.734 381.062C135.149 383.432 133.601 382.847 131.677 382.253C131.719 382.847 131.841 383.335 131.781 383.977C131.321 383.808 130.905 383.564 130.523 383.246Z"/>
<path d="M135.357 382.033C134.526 381.304 132.27 378.338 132.379 377.381C133.035 377.813 134.063 378.216 134.814 377.839C135.188 377.652 136.689 379.331 136.98 379.814C137.802 381.187 138.164 383.962 136.332 384.793C135.997 383.784 136.656 382.434 135.357 382.033Z"/>
<path d="M135.847 388.204C134.679 387.387 134.526 386.441 133.682 385.391C132.795 384.287 132.043 384.663 132.49 382.847C135.152 383.16 138.177 387.016 138.067 389.826C137.109 389.615 136.511 388.865 135.847 388.204Z"/>
<path d="M141.203 387.119C140.123 386.735 140.893 385.246 139.695 384.862C139.348 384.751 138.742 384.241 138.924 383.847C139.191 383.262 139.711 383.493 140.305 383.492C140.744 383.492 141.1 383.054 141.582 383.221C142.229 383.446 142.12 384.059 142.459 384.542C143.471 385.989 141.49 386.182 141.203 387.119Z"/>
<path d="M142.719 388.525C142.106 388.547 141.347 388.395 141.312 387.66C141.727 387.582 142.596 387.218 142.99 387.334C143.56 387.504 143.554 388.342 143.965 388.579C144.319 388.783 145.105 388.57 145.588 388.794C146.077 389.023 146.494 389.334 146.756 389.815C147.222 390.671 151.83 393.444 150.674 394.887C150.383 395.25 150.402 395.286 149.953 395.287C149.581 395.287 149.997 394.837 149.812 394.69C149.36 394.338 148.844 394.334 148.45 393.883C148.022 393.394 147.689 393.391 147.105 393.393C146.806 393.394 146.48 393.492 146.184 393.539C145.936 393.579 145.934 393.271 145.666 393.3C145.072 393.359 145.024 392.756 144.751 392.259C144.418 391.654 143.927 391.829 143.872 391.223C143.823 390.689 144.207 390.452 143.851 389.892C143.532 389.39 143.25 388.836 142.719 388.525Z"/>
<path d="M145.316 386.034C145.691 386.472 146.021 386.619 146.548 386.801C146.723 386.864 147.003 387.758 147.212 387.983C146.844 388.445 145.451 388.257 145.047 387.877C144.607 387.458 144.64 386.126 145.316 386.034Z"/>
<path d="M150.534 390.82C149.319 390.635 150.234 389.866 149.82 389.327C149.278 388.621 148.978 387.723 149.706 387.034C150.257 386.51 151.312 387.902 151.596 388.354C152.044 389.069 152.37 389.974 152.11 390.873C151.592 390.635 151.06 390.561 150.534 390.82Z"/>
<path d="M109.214 371.437C109.544 372.347 112.351 372.35 112.806 371.583C113.138 371.02 113.726 369.877 114.627 370.083C115.696 370.327 114.851 371.313 115.47 371.751C116.046 372.152 116.716 372.202 117.332 372.569C117.962 372.943 118.468 373.421 119.159 373.779C121.061 374.767 121.944 375.233 123.178 376.951C123.556 376.229 125.192 374.67 125.248 374.036C125.331 373.126 124.875 371.443 125.674 370.932C126.814 370.205 127.089 368.917 128.589 370.077C129.065 370.445 129.302 370.956 129.674 371.515C130.087 372.13 130.556 371.691 131.133 372.186C132.07 372.23 132.248 373.07 133.026 373.457C133.923 373.904 134.733 373.943 135.626 374.511C137.12 375.463 138.454 376.622 139.847 377.756C141.228 378.881 142.534 379.988 143.827 381.167C144.464 381.744 145.083 382.35 145.803 382.787C146.754 383.37 147.268 383.282 148.43 383.447C149.109 383.546 150.172 383.308 150.702 383.596C151.278 383.91 152.411 384.365 153.027 384.03C153.901 383.551 154.209 385.137 154.083 385.76C153.987 386.24 154.993 387.633 155.275 388.14C155.768 389.029 156.514 391.98 155.115 392.632C153.832 393.228 151.736 390.108 153.436 389.709C152.848 389.495 149.996 384.407 148.938 386.912C148.624 387.658 149.253 389.747 148.619 390.062C147.077 390.835 147.687 388.466 147.603 387.916C147.39 386.499 147.23 385.65 145.828 385.116C144.872 384.753 144.498 384.244 143.53 383.759C142.753 383.371 141.685 382.569 140.799 382.654C139.348 382.792 139.134 382.396 139.47 380.948C138.719 380.703 138.095 380.304 137.721 379.404C137.587 379.082 135.638 377.447 135.309 377.3C135.008 377.163 132.211 376.484 132.043 376.619C131.331 377.188 132.593 379.305 130.863 378.246C129.413 377.488 127.385 380.574 126.805 380.168C125.396 379.183 121.878 377.484 120.229 377.032C118.827 376.65 117.039 376.697 115.763 376.06C114.711 375.535 114.953 373.943 114.353 373.82C112.977 373.526 111.863 375.52 109.836 375.197C107.991 374.901 105.812 374.056 104.019 374.955C103.184 375.373 101.54 376.424 100.583 376.336C99.7068 376.257 97.1758 373.937 96.3078 374.906C95.8748 375.385 89.8358 371.647 87.2408 373.229C86.9698 372.861 86.6688 372.526 86.3758 372.146C86.0698 374.231 87.3078 375.7 87.2958 376.584C87.2428 380.805 84.8598 378.091 83.2948 380.7C82.1158 382.66 80.1538 384.819 78.0748 385.922C74.5658 387.784 78.2378 382.871 78.3168 382.377C74.9568 384.704 76.8628 377.125 77.7118 375.823C78.3318 374.874 81.4178 373.462 81.2178 372.948C80.4888 371.061 78.0488 373.12 77.4468 373.558C74.8208 375.476 74.1878 378.43 73.5268 381.215C72.8598 384.023 69.9038 384.302 68.9568 387.414C69.2048 387.77 70.9948 387.957 71.6078 388.142C73.2088 388.625 71.1898 390.391 70.5218 390.925C69.6518 391.621 70.0418 393.392 69.2838 393.772C67.8968 394.469 67.2208 394.881 66.1458 395.966C65.4108 396.707 64.2208 397.376 63.6028 398.077C62.9408 398.83 62.8468 400.501 62.5378 400.833C61.8678 401.556 60.8778 402.76 59.8158 402.868C58.9828 402.954 58.1378 404.56 57.4488 405.072C56.4218 405.83 56.5218 405.917 55.8138 406.846C55.3618 407.442 54.8018 407.962 54.0818 408.468C53.7368 408.714 51.7688 410.092 51.5258 409.692C50.9658 408.766 49.3808 410.348 48.7788 410.813C48.2858 411.195 48.1558 411.751 47.4748 411.801C46.9758 411.836 46.2848 412.207 46.0208 412.208C44.6798 412.209 44.7558 411.541 43.7488 412.316C42.7708 413.066 42.8898 413.919 41.7478 414.537C40.8688 415.01 39.0508 414.408 38.3918 415.297C36.2938 413.463 40.8428 412.833 41.0968 411.559C41.4738 409.671 44.8338 408.041 46.5608 408.581C46.2808 410.208 47.8048 408.984 48.1848 408.418C48.8318 407.45 48.7098 406.757 49.6378 405.828C50.4518 405.011 53.6978 402.621 54.3518 403.275C55.3718 401.457 55.6138 400.21 57.3218 398.615C58.4728 397.537 58.2988 394.66 58.2988 393.099C58.2988 392.248 58.8998 391.824 59.3258 391.149C59.5978 390.715 60.3678 390.753 60.1378 390.172C59.9578 389.723 59.3548 389.783 58.9548 389.978C56.6788 391.081 55.7708 392.069 54.6178 389.473C53.5778 390.446 54.7758 392.253 54.0768 392.777C53.3478 393.32 51.5208 389.984 51.3708 389.474C51.0418 389.917 50.6418 389.99 50.2358 390.287C49.1368 388.291 47.6268 389.122 45.9048 390.289C45.0158 390.891 44.6068 392.438 43.9218 391.011C43.7458 390.644 44.2888 388.754 44.6068 388.612C43.0598 387.56 43.4778 387.107 44.3358 385.705C44.5648 385.328 43.3878 382.511 42.8518 382.265C42.0508 381.895 36.0108 385.411 36.7368 382.177C35.9978 381.078 33.7568 379.659 33.5598 378.551C33.4458 377.902 35.1268 375.557 35.2928 374.927C34.0648 375.037 34.1938 374.457 33.0738 374.871C32.4978 373.676 32.1638 373.365 32.5308 372.222C31.9038 372.007 32.0158 372.079 31.4478 372.004C31.5088 369.617 33.8228 368.072 35.2888 365.618C35.8138 364.736 36.1778 361.716 38.2638 361.178C39.5848 360.837 39.4858 362.935 40.9698 362.637C42.1818 362.397 43.1658 359.124 44.4318 360.01C48.4688 362.835 47.2428 354.709 46.1058 353.381C48.0678 353.193 48.0688 350.639 46.7828 351.109C45.2018 351.684 43.9888 352.308 42.5358 353.918C42.2588 353.534 41.9518 353.121 41.7248 352.702C41.4128 352.89 41.4828 353.422 41.1758 353.487C39.2628 351.81 37.2288 353.781 35.3638 352.982C32.1398 351.6 33.1968 351.168 31.5828 348.646C32.1968 348.498 32.7408 347.991 33.4408 347.868C33.0538 347.618 31.2108 347.101 30.8158 346.624C29.1368 344.594 29.2328 346.038 30.0308 344.515C30.6408 343.349 33.7658 341.914 35.2368 342.32C35.1788 340.536 36.6998 340.664 38.2548 339.884C41.9158 338.052 39.1578 341.853 40.0958 342.78C42.0968 344.757 45.7528 342.602 47.2378 342.071C45.9498 341.497 42.7958 338.772 44.1338 337.258C39.9208 336.955 41.5548 333.961 38.6308 331.903L38.9538 332.117C38.2288 331.453 34.0808 328.336 34.9468 327.466C35.7438 326.67 35.1608 325.445 36.1368 324.762C36.9688 324.177 39.5248 325.142 40.7918 324.379C42.9958 323.058 43.9038 319.099 45.2918 316.981C45.7788 316.239 46.9988 316.703 47.8228 316.205C49.0948 315.442 49.6878 314.373 50.6358 313.474C51.6818 312.48 52.0218 313.429 53.2348 313.115C54.9588 312.671 55.0898 311.468 56.2628 310.683C57.7338 309.704 56.6928 309.547 58.2368 310.284C58.7568 310.534 60.4038 311.318 58.6718 311.794C58.1488 311.936 58.1998 312.49 58.6978 312.688C59.5398 313.016 59.4748 311.469 59.8878 311.497C59.6308 311.479 61.4028 309.968 61.4038 311.819C61.4038 312.809 64.0358 311.692 65.9888 312.34C66.6118 312.496 68.9878 314.041 70.7138 313.764C72.9038 313.415 74.7518 313.332 77.0438 314.248C78.9218 315 83.2888 314.271 84.9908 313.72C87.8908 312.78 89.3468 314.434 92.3588 314.35L109.214 371.437Z"/>
<path d="M139.625 389.039C138.804 388.046 139.112 388.423 138.557 387.314C138.418 387.036 137.807 386.507 137.848 386.384C138.028 385.833 137.514 385.13 138.195 385.205C138.604 385.251 139.12 385.428 139.507 385.584C140.116 385.83 139.653 386.569 139.751 387.027C139.886 387.656 140.051 388.252 140.234 388.867C140.335 389.21 139.938 389.351 139.625 389.039Z"/>



</g>
<path id="al" class="state south al" d="M425.926,227.785l-27.826,2.884  l-0.827,44.007l2.865,21.359c0,0,1.292-0.223,3.403,0.175c0,0,0.174-3.361,0.764-4.948c0,0,2.104,0.405,1.216,2.951  c0,0,0.44,0.893,1.719,1.325c0,0,0.924,0.874,1.493,1.8c0,0,2.215-0.594,3.13-3.73c0.021-1.293,0.145-2.576-1.218-3.258  c-1.737-0.867-2.355-2.709-0.693-3.863l11.197-1.129l18.847-2.258c0,0-1.203-2.433-1.566-6.402c0,0-0.326-1.859-1.333-4.973  c0,0-0.341-1.42,1.688-6.391c0,0,0.415-1.105-2.644-5.025c0,0-1.271-2.222-1.704-3.779L425.926,227.785"/>
<path id="ar" class="state south ar" d="M372.525,232.822  c0,0,0.545-1.746,1.477-2.678c0,0,0.761-0.773,0.813-2.043c0,0-0.162-1.351,0.627-2.402c0,0,1.603-3.522,2.645-7.549l-6.514,0.692  c-0.377-0.824-0.522-1.106,0.053-1.896c0.554-0.76,1.289-1.023,1.84-1.711c1.163-1.449-0.041-2.977-1.371-3.774l-20.318,1.303  l-17.803,0.782l-11.201,0.261c0,0-0.019,1.649,0.647,4.046c0,0,1.567,6.805,1.784,11.758l0.164,25.072v-0.021  c0.313,0.145,0.576,0.324,0.879,0.563c0.535,0.431,3.074-0.188,4.254,0.261l0.262,7.641l14.5-0.521l19.102-1.039  c0.531-3.121,0.177-5.56,0.177-5.56c-1.509-1.946-0.525-4.86-0.525-4.86s0.862-1.496,1.353-2.195c0,0,0.845-1.932,1.012-3.034  c0,0,0.189-1.461,1.262-2.345c0,0,2.192-2.811,2.924-5.607c0,0,0.148-1.234,0.461-2.048  C371.021,235.917,372.425,232.998,372.525,232.822z"/>
<path id="az" class="state west az" d="M162.132,198.699l-15.196-1.997  l-14.674-2.169l-15.023-2.435l-10.158-1.822c-0.62,3.42-0.501,8.78-2.431,11.679c-2.81,4.219-3.006-2.435-6.425-0.826  c-2.25,1.061-1.122,5.029-1.303,7.209c-0.095,1.146,0.092,2.955-0.086,3.994c-0.332,1.914-1.21,2.011-1.303,4.861  c0,3.603,0.756,3.233,1.216,4.948c0.185,0.693,0.448,1.646,0.39,2.345c-0.097,1.176,1.344,1.356,1.693,2.347  c0.818,2.3-1.586,1.942-3.212,3.387c-1.641,1.455-1.243,2.817-1.822,4.772c-0.592,1.996-2.716,3.05-3.388,4.604  c-0.305,0.703-0.785,3.846-0.433,4.604c0.318,0.688,3.934,1.926,1.432,3.517c-1.271,0.808-1.118,1.043-2.823,0.912  c0,0-1.763,1.269-1.65,2.776l2.779,1.651l23.357,13.461l15.284,8.595l17.798,2.517l5.905,0.696l0,0L162.132,198.699"/>
<path id="ca" class="state west westcoast ca" d="M96.748,222.144  c0.185,0.693,0.448,1.646,0.39,2.345c-0.097,1.177,1.344,1.356,1.693,2.347c0.818,2.3-1.586,1.942-3.212,3.387  c-1.641,1.455-1.243,2.817-1.822,4.772c-0.592,1.996-2.716,3.05-3.388,4.604c-0.305,0.703-0.785,3.846-0.433,4.604  c0.318,0.688,3.934,1.926,1.432,3.517c-1.271,0.808-1.118,1.043-2.823,0.912l-27.872-2.867c0,0-0.673-1.362-1.478-2.168  c1.409-5.276-0.117-10.894-4.472-14.459c-0.903-0.739-3.982-2.321-4.296-2.737c-1.172-1.727,0.021-3.883-1.737-5.207  c-6.78-5.102-18.361-8.845-21.1-15.543c-0.58-1.414,2.115-3.863,1.041-5.341c-1.726-2.375-1.615-3.082-2.952-5.947  c-1.502-3.219-5.67-9.258-5.904-12.592c-0.088-1.246,1.648-4.891,1.648-5.557c0.057-0.73-1.318-3.917-1.476-4.599  c-0.678-4.443-5.298-8.979-0.609-12.854c-0.171,3.296,0.446,3.681,2.779,5.818c-0.459-1.695-2.857-7.266-1.649-8.42  c1.649-1.576,8.896,1.932,9.812,2.777c-1.028-1.968-1.028-1.968-2.17-2.777c-1.143-0.81-8.885-5.013-9.726,2.169  c-1.668-1.569-3.582-3.166-3.675-3.733c0-0.526,0.29-0.997,0.29-2.864c0-2.068-3.285-5.425-4.604-10.595  c-1.238-4.856,2.664-10.349,1.042-15.542c-2.604-8.336-1.955-7.449,1.476-14.153c2.489-4.861,2.129-11.252,4.254-14.935  l22.577,6.251l19.103,4.862l-7.728,31.868l-2.346,9.376l32.823,47.844l13.893,20.493C95.532,220.797,96.288,220.429,96.748,222.144z  "/>
<polyline id="co" class="state west co" points="162.132,198.699   180.539,200.871 196.951,202.521 216.749,204.171 229.253,204.951 240.195,205.646 242.277,163.012 243.013,148.808   231.684,148.251 222.046,147.555 205.548,146.254 196.43,145.386 179.324,143.563 169.252,142.346 162.132,198.699 "/>
<path id="ct" class="state northeast newengland eastcoast ct" d="M555.391,101.798l-8.372,1.967  l-8.731,1.767l1.823,10.159c0,0,0.687,0.559,0.499,1.911c0,0-0.063,0.175-1.073,1.182c0,0-0.602,0.335-0.101,0.833l0.762,0.764  l0.869-0.348c0,0,3.161-3.341,5.231-4.661c0,0,2.658-1.262,5.843-2.034c0,0,0.624-0.16,1.169-0.425  c0.545-0.265,3.691-1.203,4.164-1.563c-0.173-1.046,0.18-1.565,0.18-1.565L555.391,101.798"/>
<path id="de" class="state south eastcoast de" d="M522.223,143.39  c0.656-3.694,3.563-2.085,3.563-2.085c-1.51,2.165-1.058,3.386-1.058,3.386c1.333,2.487,3.043,4.624,3.043,4.624  c0.603,1.76,1.781,4.597,3.45,5.04c0.003,0.001,0.004,0.002,0.006,0.003c1.663,0.683,1.541,1.689,1.541,1.689  c0.153,2.086,1.357,3.136,1.357,3.136l-0.526,0.096l-6.608,1.476L522.223,143.39"/>
<g id="fl" class="state south eastcoast gulfcoast fl">
	<path id="fl_1_" d="M482.281,281.104   c0,0,3.192,11.803,13.084,24.227c0,0,3.394,3.242,3.854,5.042c0,0-0.221,2.783,2.271,6.853c0,0-2.382-2.256-2.886-7.122   c0,0,0.322-0.791-3.221-2.831c0,0,0.563,3.898,6.8,12.578c0,0,2.979,4.712,5.678,9.147c0,0,2.204,4.633,2.204,7.949   c0,0-0.222,1.151,0.35,4.936c0,0,0.35,2.102,0,4.413c0,0-2.296,2.432-1.147,5.888c0,0-0.518,2.854-3.834,4.564   c0,0-2.988,0.735-5.263,0.796c0,0-1.858-0.779-0.696-2.636c0,0-1.491-2.224-2.602-4.074c0,0-1.729-2.576-4-3.132   c0,0-1.863,0.642-3.563-1.877c0,0-1.249-2.097-1.249-3.226c0,0,0.111-0.689-2.363-2.365c0,0-2-2.092-1.804-4.543   c0.014-0.143-0.041-0.354-0.409-0.546c-0.241-0.124-0.6-0.363-1.118-0.815c0,0-0.581,0.739,0.64,2.086c0,0-2.68,0.518-6.86-6.863   c0,0-1.226-1.579-0.65-2.238c0.483-0.55,1.134-1.54,1.906-3.323c0,0,0.897-1.114,0.444-1.565c0,0-0.504-1.156-1.908,0   c0,0-0.62,0.708-0.697,1.587c0,0-0.224,1.071-1.068,1.071c0,0-2.012-0.409-2.012-2.014c0,0,2.206-10.179,0.504-14.277   c0,0-0.941-2.548-6.097-4.382c0,0-1.993-1-4.495-4.062c0,0-1.989-2.69-5.494-5.003c0,0-1.909-0.977-5.119-0.879   c0,0-2.91,0.273-1.803,2.984c0,0-2.194,0.02-3.703,1.525c0,0-3.932,2.354-6.846,2.354c0,0-7.024-12.308-25.427-5.886   c0,0-1.961,1.024-0.956-0.434c0,0,0.733-0.88-0.863-1.406c0.021-1.293,0.145-2.574-1.218-3.257   c-1.737-0.868-2.355-2.709-0.693-3.864l11.197-1.129l18.847-2.257c0,0,1.13,2.005,2.068,3.63l31.839-2.294   c0,0,0.521,2.773,2.028,2.479c0,0,1.578-0.831,0.302-4.369c0,0-0.39-1.1,0.451-1.662   C476.684,280.883,478.899,280.331,482.281,281.104"/>
	<path id="fl_key_5_" d="M510.14,352.951   c0,0-0.656,0.15-0.941,1.339c0,0,0.044,1.196-2.248,4.462C506.949,358.752,509.446,356.358,510.14,352.951z"/>
</g>
<path id="ga" class="state south eastcoast ga" d="M440.688,225.919l13.893-1.951  c-1.438,1.438-2.17,4.167-2.17,4.167c0.888,2.124,4.165,2.928,4.165,2.928c1.894,0,2.427,1.315,2.427,1.315  c1.156,3.87,7.329,7.173,7.329,7.173c4.036,3.127,4.785,4.262,4.785,4.262c1.82,2.906,3.81,4.146,3.81,4.146  c3.813,2.415,3.968,4.49,3.968,4.49c0.545,2.384,2.284,2.892,2.284,2.892c1.527,1.526,1.619,3.091,1.619,3.091  c1.015,2.405,3.737,3.137,3.737,3.137l0.631,0.217c-2.042,2.672-2.89,6.222-2.89,6.222c-0.178,3.399-1.751,6.826-1.751,6.826  c-0.749,2.245-0.243,6.272-0.243,6.272c-3.383-0.772-5.599-0.222-5.599-0.222c-0.841,0.563-0.451,1.662-0.451,1.662  c1.276,3.538-0.302,4.368-0.302,4.368c-1.508,0.296-2.028-2.479-2.028-2.479l-31.839,2.293c-0.938-1.625-2.068-3.629-2.068-3.629  s-1.203-2.433-1.566-6.402c0,0-0.326-1.859-1.333-4.973c0,0-0.341-1.42,1.688-6.391c0,0,0.415-1.106-2.644-5.025  c0,0-1.271-2.222-1.704-3.779l-8.511-28.744L440.688,225.919"/>
<g id="hi" class="state hi">
<path d="M140.121 352.456C140.556 351.759 141.808 351.352 141.951 350.567C142.123 349.616 142.795 348.39 142.795 347.477C142.795 345.832 139.348 344.87 138.186 345.565C137.114 346.209 134.077 347.356 134.18 349.038C134.288 350.821 138.837 352.105 140.121 352.456Z"/>
<path d="M193.896 376.519C195.068 376.425 201.132 375.096 200.241 373.314C199.529 371.891 198.24 371.496 196.95 370.593C196.512 370.287 196.571 370.013 195.998 369.908C194.991 369.723 194.079 370.421 193.302 370.281C191.778 370.007 191.523 368.635 190.352 368.421C189.249 368.221 187.393 369.205 188.414 370.663C189.375 372.038 190.384 372.463 191.875 373.208C192.864 373.702 192.667 375.559 193.896 376.519Z"/>
<path d="M206.524 406.381C208.268 407.551 209.085 405.625 209.637 404.241C209.966 403.415 212.294 402.089 213.134 401.478C214.335 400.604 215.859 401.031 217.327 400.495C218.852 399.936 219.584 398.947 220.869 398.048C223.746 396.034 219.451 393.761 218.109 391.525C216.107 388.183 214.268 386.672 210.461 385.289C209.087 384.79 207.952 384.556 206.671 383.804C205.451 383.09 203.911 381.258 203.403 383.804C203.049 385.583 205.432 386.149 204.37 387.665C203.436 388.998 202.904 389.975 201.555 390.919C199.985 392.019 202.723 397.032 203.398 398.719C204.012 400.257 202.672 402.178 203.107 403.709C203.636 405.569 205.154 405.375 206.524 406.381Z"/>
<path d="M168.643 363.894C169.669 363.586 171.149 363.432 171.078 362.18C171 360.83 170.319 360.058 169.238 359.366C168.211 358.705 167.754 358.058 167.05 357.054C166.188 355.823 165.973 355.443 164.485 356.319C164.002 356.602 163.568 357.141 163.152 357.517C162.753 357.875 161.818 357.349 161.512 357.657C160.494 358.676 161.784 360.304 162.474 360.995C163.302 361.823 163.857 363.054 165.077 362.93C166.33 362.804 167.473 363.463 168.643 363.894Z"/>
<path d="M185.282 367.905C186.539 367.452 187.919 367.19 187.212 365.529C184.43 366.056 181.388 365.064 178.595 364.786C178.585 365.586 178.118 366.266 177.557 366.864C178.682 366.864 179.829 366.927 180.95 366.825C182.579 366.68 183.686 367.584 185.282 367.905Z"/>
<path d="M184.538 373.699C185.138 373.497 185.637 372.749 186.067 372.319C186.225 372.161 186.378 372.128 186.223 371.954C185.926 371.623 185.628 371.295 185.331 370.963C184.865 370.445 184.347 370.387 183.673 370.187C183.157 370.033 182.377 370.439 181.865 370.579C182.784 371.6 183.668 372.635 184.538 373.699Z"/>

	
</g>
<path id="ia" class="state midwest ia" d="M301.669,114.821l10.508-0.086  l17.539-0.435l14.587-0.607l10.596-0.607c0.491,1.331,1.049,1.579,1.215,2.258c0.365,1.48-0.229,2.77-0.041,4.486  c0.125,1.128,0.74,3.748,1.821,4.24c0.533,0.359,1.575,0.587,1.575,0.587c0.771,0.188,0.973,0.274,0.973,0.274  c0.354,0.203,0.56,0.187,0.732,0.569c0.173,0.382,0.584,1.13,0.584,1.13s0.383,1.027,1.273,1.589  c0.89,0.562,3.508,2.571,4.195,4.447c1.275,3.475-2.313,8.412-5.648,9.095c-2.579,0.528-3.361,0.524-3.469,3.365  c-0.022,0.645,1.643,1.648,1.736,2.69c0.141,1.521-0.92,1.662-1.302,2.997c-0.875,3.042-1.849,3.582-3.302,6.556  c-1.092-0.968-2.733-1.992-3.385-3.387l-7.035,0.782l-16.322,0.953l-7.467,0.174l-11.812-0.087  c-2.579-3.017,0.563-12.186-3.558-13.371c-0.258-3.158-0.67-4.457-1.912-7.293c-0.588-1.344-1.396-5.223-1.941-6.203  c-1.041-2.792-2.018-5.402-0.49-7.951c0.641-1.068-0.876-4.618-1.214-6.165H301.669"/>
<path id="id" class="state west id" d="M89.194,114.474l16.499,3.387  l13.893,2.519l3.994,0.782l14.587,2.431l12.157,1.824l5.124-34.994c-1.708-1.573-3-6.225-4.341-1.301  c-2.791-0.584-12.583-2.64-13.633,0.347c-0.896-0.956-1.987-2.725-1.607-3.995c0.895-2.975-2.619-2.185-3.125-4.037  c-0.963-3.533-0.669-8.846-2.821-12.113c-10.733,5.878-3.079-8.625-1.477-14.067c-3.563-0.194-3.516-2.31-4.95-4.775  c-1.95-3.353-4.332-5.618-6.253-8.77c0.32-0.057,0.637-0.117,0.956-0.174c-0.1-1.899-2.79-6.377-2.473-7.953  c0.912-4.527,1.825-9.053,2.733-13.581l-2.082-0.434l-7.035-1.476l-0.085,0.521L102.48,50.22l-0.349,2.865  c-0.81,1.266,0.323,2.974-0.119,4.566l0.119,1.772l-0.26-0.868l0.26,0.868c0.126,3.453,4.782,4.486,1.787,7.858  c-2.199,2.471-3.2,5.87-5.303,8.206c-1.574,1.75-5.685,4.391-4.124,7.293c0.195,0.363,1.444,0.329,1.736,0.869  c0.673,1.246-0.072,0.706-0.174,1.823c-0.14,1.559-0.654,2.817-1.65,3.995L89.194,114.474"/>
<path id="il" class="state midwest il" d="M355.244,157.369  c1.451-2.975,2.426-3.514,3.301-6.556c0.382-1.335,1.441-1.476,1.302-2.997c-0.095-1.042-1.76-2.045-1.735-2.69  c0.105-2.841,0.889-2.837,3.467-3.365c3.338-0.683,6.926-5.62,5.649-9.095c-0.688-1.876-3.306-3.884-4.196-4.447  c-0.89-0.563-1.272-1.589-1.272-1.589l16.409-0.954l12.854-1.128c1.063,5.287,1.374,6.245,3.992,10.68l3.126,33.342  c-1.912,1.952-0.268,3.663,0.606,5.731c1.105,2.61-0.783,3.805-0.996,6.124c-0.169,1.823-2.436,3.669-2.736,5.166  c-0.484,2.411-0.347,5.47-0.347,5.47c-0.063,1.691-0.466,1.047-0.285,3.229c0.181,2.182-2.21,2.312-2.21,2.312  c-2.764,1.158-1.508,2.614-1.508,2.614c0.904,0.904,0.604,1.958,0.604,1.958c-0.961,1.25-1.906,0.298-1.906,0.298  c-3.666-1.713-4.283-1.174-4.283-1.174c-2.758,1.45-1.352,3.44-1.352,3.44c-0.685-0.654-1.419-0.787-2.171-0.263l-1.391-1.821  c-1.79-1.987-0.663-11.476-6.427-9.898c-3.271-3.852-6.992-3.846-3.818-9.726c0.956-1.768,1.387-4.634-1.303-4.904  c-1.121-0.112-3.213,0.931-3.646,0.389c-1.376-1.715-0.572-3.769-2.043-5.586c-1.202-1.48-3.184-2.042-5.077-4.226  C355.613,165.121,353.414,160.99,355.244,157.369"/>
<path id="in" class="state midwest in" d="M402.046,133.839l5.558-0.522  l15.599-1.888l4.462,37.573c0,0-0.775,0.507-0.078,1.674c0,0,1.28,2.111-1.111,3.657l-0.604,0.259c0,0-1.795,0.281-1.998,0.188  c-2.514-1.159-2.013,3.095-3.289,4.602c-1.491,1.759-2.027,2.213-2.991,4.209c-0.52,1.076,0.539,1.707-0.958,2.431  c-0.707,0.343-2.417-0.306-3.007-0.771c-1.801-1.42-2.574,0.957-3.069,2.667c-0.095,0.327-0.832,0.515-1.111,0.381  c-1.684-0.806-3.227-0.494-4.099,1.095c-0.131,0.238-1.104,0.187-1.467-0.022c-3.498-2.02-5.979,1.558-9.213,1.686  c0,0-0.14-3.059,0.347-5.47c0.301-1.497,2.567-3.343,2.736-5.166c0.213-2.318,2.103-3.514,0.996-6.124  c-0.874-2.068-2.52-3.779-0.606-5.731l-3.126-33.342C397.353,137.45,399.979,135.421,402.046,133.839"/>
<path id="ks" class="state midwest ks" d="M314.087,164.315  c1.597,1.768,3.579,0.773,4.384,2.04c1.458,2.294-2.074,2.314-1.82,3.817c0.416,2.449,0.791,1.211,1.947,3.001  c1.088,1.685,0.643,1.8,3.307,3.47l0.691,30.131l-13.893,0.262h-25.441l-25.269-0.606l-17.799-0.782l2.082-42.635l13.634,0.695  l26.396,0.695l13.805,0.087L314.087,164.315"/>
<path id="ky" class="state south ky" d="M380.945,210.855l15.37-1.303  l-0.124-2.227c19.962-1.463,36.651-3.359,48.828-4.979l0.008-0.002c7.383-3.021,8.696-6.499,8.696-6.499  c0.778-2.285,2.008-3.374,2.008-3.374c2.33-1.137,5.862-5.511,5.862-5.511c-1.387-0.9-3.263-1.466-6.494-5.587  c0,0-1.675-1.759-1.823-3.368c0,0,0.636-1.181-0.085-2.751c-0.907-1.01-4.581-4.233-5.603-3.301  c-2.431,2.213-2.334,0.542-5.166,0.826c-1.313,0.132-6.262,0.56-7.481-1.037c-2.117-2.785-4.099-3.907-7.278-2.742  c0,0-0.775,0.507-0.078,1.674c0,0,1.28,2.111-1.111,3.657l-0.604,0.259c0,0-1.795,0.281-1.998,0.188  c-2.514-1.159-2.012,3.095-3.289,4.602c-1.491,1.759-2.027,2.213-2.991,4.209c-0.52,1.076,0.539,1.707-0.958,2.431  c-0.707,0.343-2.417-0.306-3.007-0.771c-1.801-1.42-2.574,0.957-3.069,2.667c-0.095,0.327-0.832,0.515-1.111,0.381  c-1.684-0.806-3.227-0.494-4.099,1.095c-0.131,0.238-1.104,0.187-1.467-0.022c-3.498-2.02-5.979,1.558-9.213,1.686  c-0.063,1.691-0.467,1.047-0.285,3.229c0.182,2.182-2.21,2.312-2.21,2.312c-2.763,1.158-1.508,2.614-1.508,2.614  c0.905,0.904,0.604,1.958,0.604,1.958c-0.961,1.25-1.908,0.298-1.908,0.298c-3.664-1.713-4.282-1.174-4.282-1.174  c-2.759,1.449-1.351,3.439-1.351,3.439c0.773,1.662-0.177,3.736-0.607,5.905C381.962,209.02,381.021,209.541,380.945,210.855"/>
<path id="la" class="state south la" d="M386.854,300.029  c-3.119,0.971-5.767-3.23-8.943-1.908c-3.195,1.326-1.828,3.843,0.605,4.166c2.273,0.306,2.852-0.956,4.523-1.155  c0.451,0,0.717,0.036,1.205,0.524c-0.422,1.022-0.026,0.885-1.125,1.242c3.349,2.612,2.953-0.017,4.31-0.432  c1.021,0.15,1.681,0.952,1.333,3.035c-1.465-0.196-2.488,0.969-1.043,2.343c-0.693-0.284-1.172-0.575-1.822-0.263  c-1.961,2.802,5.245,2.329,7.655,5.905c-0.158,1.521-0.384,1.405-0.979,2.339c-0.838-0.364-1.604-0.691-2.75-1.431  c-1.93-1.148-2.299-1.019-4.638-2.486c-2.563-1.965-4.146-2.039-5.715-2.676c0.724,1.377,3.179,2.649,1.304,3.993  c0.649,0.95,0.141,2.938-1.475,2.78c-1.285-0.128,0.641-3.438-2.172-2.173c-0.117-0.317-0.232-0.636-0.348-0.953  c-2.791,0.313-2.797,4.807-5.836,2.834c-2.285-1.487-1.884-0.044-2.894-2.269c-0.726-1.604-3.272-2.157-4.647-3.048  c-1.647-1.063-1.723-1.619-4.069-2.373c-1.472-0.678-4.938-0.678-3.134,2.425c-5.16,1.521-10.359-1.444-15.752-2.313  c-3.33,0.283-4.828,1.688-5.498,1.201c-1.03-0.75,0.654-1.256,0.177-3.568c1.378-1.529,0.718-7.32,0.71-7.393  c-0.325-2.186,1.63-4.796,1.52-7.207c-0.111-2.447-0.765-3.737-1.996-6.25c-1.181-2.409-1.555-5.721-4.168-7.469l-0.433-14.327  l14.5-0.521l19.103-1.039c0,0,0.174,4.625,2.031,6.688c0,0,2.273,3.918-0.701,8.189c0,0-3.914,3.146-5.324,13.86l23.098-1.563  c0.087,0.617-0.235,1.574-0.235,1.574c-0.712,1.565-0.845,2.98-0.845,2.98C383.22,295.79,386.854,300.029,386.854,300.029"/>
<path id="ma" class="state northeast newengland eastcoast ma" d="M561.386,103.881  c0,0,0.58,0.547,1.434,0.868c0,0,1.127,0.133,1.218,2.011c0,0,0.64-0.534,1.421-1.137c0,0,0.792-1.143,1.28-1.633  c0,0,0.339-1.073,1.158-1.323c0,0,0.136,1.302,0.694,2.341c0,0,1.918-1.346,3.374-2.074c0,0,2.661-1.256,3.292-1.885  c0,0,1.108-1.638-1.331-3.819c0,0-1.485-0.808-3.042-0.882c0,0,2.918,1.159,3.189,2.893c0,0-0.098,1.506-2.41,2.236  c0,0-1.479,0.335-2.649-0.836c0,0-0.28-0.998-1.543-1.4c0,0-0.884-0.176-0.884-0.905c0,0-0.107-0.578,0.727-0.213  c0,0-0.978-1.57-2.407-2.199c0,0-0.755-0.149-1.71,0.101c0,0-0.999-0.14-1.528-1.226c0,0,0.819,0.003,0.819-0.818  c0,0-0.017-0.781,0.328-1.475c0,0,0.663-1.199,2.067-1.955c0,0,0.234-0.443-0.079-0.757c0,0-0.252-0.131-0.751,0.075  c0,0-0.223,0.271-0.979-0.178c0,0-0.821-0.858-1.081-2.482c0,0-1.447,0.085-2.634,1.762c0,0-0.87,1.423-1.709,2.06l-11.548,2.692  l-7.903,1.65l-0.255,9.636l0.344,0.522l8.731-1.767l8.372-1.967l3.478-1.042c0,0,0.822,0.437,1.126,1.129  C559.993,101.884,560.583,103.17,561.386,103.881"/>
<path id="md" class="state south eastcoast md" d="M510.415,157.195  c0,0,1.852-0.48,1.852,2.779c0,0-2.41,3.712-1.056,4.517c0,0,2.967-1.659,9.8,2.714c0,0,0.149-1.699-2.862-5.975  c0,0-4.518-7.562,1.496-13.448c0.476-0.464,1.016-0.046,0.499,1.863c-0.79,2.927-1.353,7.26,0.867,10.423  c0,0,0.705,0.772,0.454,2.857c0,0,2.008-0.478,4.294,0.97c0,0,1.936,0.797,1.23,3.71l1.475,0.669l0.511-0.442l2.915-0.958  c0,0,1.625-4.796,1.709-7.594l-6.609,1.476l-4.767-17.365l-20.668,4.427l-18.234,3.472l1.216,7.294  c1.966-2.765,3.909-4.66,3.909-4.66c1.354-0.139,2.329-1.744,2.329-1.744c-0.103-0.728,0.145-0.777,0.284-0.832  c0.14-0.055,0.521,0.135,0.521,0.135c1.201,0.861,2.648,0.544,2.648,0.544c1.959-3.994,5.026-2.488,5.026-2.488  c2.762,1.183,3.517,3.661,3.517,3.661c2.49-0.486,3.212,1.477,3.212,1.477c-0.149,1.14,0.782,1.477,0.782,1.477  C508.046,155.906,510.415,157.195,510.415,157.195"/>
<path id="me" class="state northeast newengland eastcoast me" d="M550.18,54.909  c0,0,0.392-0.63,1.563-0.434c0,0,0.992,0.091,0.708-1.164c0,0,0.167-2.766,0.881-3.944c0,0,2.499-2.812,1.548-8.089  c0,0-0.25-2.11,0.553-4.371c0,0,0.336-2.317-0.261-4.174l4.04-11.949c0,0,0.818-0.464,1.649,0c0,0,0.398,2.856,2.509,2.592  c0,0,0.223-0.071,0.528-0.377c0,0,0.697-0.526,1.32-0.772c0,0,0.844-0.506,1.581-1.414c0,0,1.53-2.211,4.31-0.352  c0,0,1.955,1.539,2.952,1.624l5.033,14.935c0,0-0.046,2.335,0.82,3.014c0,0,1.508,0.678,2.487,0.678c0,0,0.979-0.301,1.471,0  c0,0,0.226,0.452,0.11,1.244c0,0-0.057,1.187,0.567,1.809c0,0,0.356,0.743,0.498,1.464c0.143,0.722,0,0.081,0,0.081  s0.367,0.943,1.875,0.566c0,0,1.186-0.433,2.222,0.602c0,0,0.604,0.529,0.416,1.471c0,0-0.789,0.897-0.243,1.598  c0,0,1.04,0.535,1.149-0.457c0,0,2.504,0.843-2.951,4.862c0,0-1.472,0.589-2.966,2.085c0,0-0.493,1.709-4.072,2.349  c0,0-2.108,0.415-1.845,3.468c0,0-1.205-0.527-2.486-0.377c0,0,0.941-1.054-0.87-2.863c0,0-1.009,1.136-0.983,2.792  c0,0-0.602,2.974-0.147,4.406c0,0,0.771,0.587-0.336,1.697c-0.058,0.055-0.581,0.474-1.313,0.164c0,0-1.006-0.315-1.439,0.721  c0,0-0.169,0.791,0,1.206c0,0,0.113,0.83-0.603,1.225c0,0-1.092,1.077-3.502,1.858c0,0-0.663-0.104-1.021-0.689  c0,0-1.13,0.942-1.205,2.45c0,0,0.226,0.627-0.503,2.085c0,0-0.284,0.943-0.477,2.412c-0.173,1.311-0.303,1.232-0.757,2.085  c0,0-0.174,0.83-0.123,1.81c0,0,0.092,0.752-0.444,1.682l-0.435-0.259c-1.303-0.663-1.483-1.899-1.483-1.899  c-2.652-1.419-2.423-4.005-2.423-4.005l-1.042-2.692L550.18,54.909"/>
<path id="mn" class="state midwest mn" d="M297.414,85.3  c0-1.329,1.942-2.424,1.942-2.424c1.248-0.686,1.098-2.438,1.098-2.438c0.109-1.468,0.111-3.775-0.521-5.47  c-0.577-1.542-1.695-2.581-1.741-4.313c-0.057-2.257-0.067-4.26-0.342-6.367c-0.193-1.457-0.715-3.641-0.437-5.036  c0.772-3.861-2.757-7.387-2.561-11.288c0.051-1.013,0.07-2.084-0.086-3.083c-0.158-1.003,0.401-1.611,0.391-2.561  c-0.018-1.526-1.443-3.206-1.131-4.689h12.071l7.313-0.176l-0.106-5.207c1.325,0.585,2.892,0.043,3.229,1.854  c0.303,1.613,0.683,3.116,1.156,4.688c0.334,1.107-0.063,2.662,1.795,2.662c1.586,0,2.559,0.614,4.131,0.79  c0.594,0.066,1.746-0.034,2.279,0.252c0.53,0.287,0.219,1.128,1.215,1.39c1.342,0.353,2.51-1.048,3.388-1.476  c1.433-0.698,4.87-0.378,6.954,1.902c2.084,2.28,1.555,2.322,3.205,2.788c-0.028-1.624,1.252-1.904,2.604-1.303  c0.394,0.174,0.685,1.013,1.375,1.313c1.022,0.444,1.146,0.947,1.751,1.379c3.877,2.768,4.854-2.28,8.249-1.997  c0.224,2.497,3.195,1.553,5.297,1.302c0.462-0.054,1.396-0.326,1.824-0.174c0.423,0.151,0.66,0.993,0.956,1.129  c1.152,0.534,2.604,0,3.99,0c-0.752,1.207-5.555,3.56-5.555,3.56c-5.043,1.151-8.906,6.068-8.906,6.068  c-1.739,3.037-6.521,7.095-6.521,7.095c-1.587,1.502-2.2,2.118-2.2,2.118c-2.32,1.847-1.492,4.255-1.369,7.341  c0.193,4.943-3.69,2.913-4.273,5.857c-0.201,1.014-1.305,1.7-1.305,2.648c0,0.946,2.52,2.787,2.52,3.344s-1.182,3.958-0.693,6.947  c0.412,2.517-0.033,4.395,3.561,4.992c1.59,0.264,4.763,2.889,5.676,4.324c1.352,2.122,3.576,2.193,5.18,3.794  c1.696,1.695,1.485,4.113,2.082,6.252l-10.595,0.607l-14.588,0.606l-17.539,0.435l-10.508,0.086l-0.175-25.354  c-0.904-1.458-2.299-1.519-2.299-1.519C298.579,86.633,297.414,85.3,297.414,85.3z"/>
<path id="mo" class="state midwest mo" d="M380.945,210.855  c0,0-0.713,0.334-1.139,0.965c0,0-0.086,2.721-1.724,6.332l-6.513,0.691c-0.377-0.824-0.523-1.107,0.051-1.895  c0.555-0.762,1.289-1.024,1.841-1.711c1.163-1.449-0.041-2.978-1.371-3.775l-20.317,1.303l-17.804,0.782l-11.201,0.261l-0.174-7.035  l-0.692-30.13c-2.664-1.67-2.218-1.785-3.306-3.47c-1.155-1.79-1.532-0.552-1.948-3.001c-0.254-1.503,3.279-1.523,1.821-3.817  c-0.805-1.267-2.787-0.271-4.384-2.04c-1.393-0.93-0.949-2.861-2.258-3.778c-1.25-0.876-2.592-3.296-2.605-4.733l11.811,0.087  l7.468-0.174l16.321-0.953l7.037-0.782c0.649,1.396,2.291,2.419,3.385,3.387c-1.83,3.621,0.369,7.751,2.605,10.331  c1.895,2.184,3.875,2.746,5.077,4.226c1.472,1.817,0.667,3.871,2.043,5.586c0.435,0.542,2.524-0.501,3.647-0.389  c2.688,0.27,2.258,3.136,1.302,4.904c-3.173,5.88,0.549,5.874,3.819,9.726c5.763-1.576,4.636,7.912,6.426,9.898l1.391,1.821  c0.752-0.524,1.486-0.394,2.171,0.263c0.774,1.66-0.176,3.735-0.606,5.904C381.962,209.02,381.021,209.541,380.945,210.855z"/>
<g id="mi" class="state midwest mi">
	<path id="mi_upper" d="M360.193,69.236   c0,0,3.479-1.568,4.59-2.873c0,0,1.182-1.604,3.856-1.511c0,0,2.302,0.225,7.446-5.776c0,0,1.688,0.944,2.463,3.265   c0.775,2.323,0.004,0.08,0.004,0.08s0.257,0.885,0.257,2.439c0,0,1.402-2.484,4.759-2.311c0,0,1.805-0.584,4.707,3.035   c0,0,2.688,3.947,9.956,0.805c0,0,3.684-3.003,8.058-3.003c0,0,1.633-0.347,2.635-0.9c0,0,2.249-1.162,3.372-1.067   c0,0-0.252,2.922,0.51,3.977c0,0,2.455,0.377,4.755-0.226c0,0,2.035-1.658,3.504,2.412c0,0,0.641,1.545,2.396,2.393   c0,0,0.819,0.294,1.078,1.081c0,0,0.068,0.598-1.926,0.598c0,0-0.755,0.338-3.619,0c0,0-3.387-0.751-2.615,2.357   c0,0-1.473-0.694-2.268-1.492c0,0-1.635-1.835-5.667-0.973c0,0-1.468,2.633-6.011,2.481c0,0-1.133,0.022-2.818,2.819   c0,0-1.021-3.043-4.352,1.611c0,0-1.008-0.911-0.736-2.765c0,0-2.961,6.647-4.98,11.95c-1.604-0.635-1.838-2.112-0.957-3.647   c-3.732,1.305-0.711-3.24-2.3-4.687c-0.642-0.584-1.437-0.826-2.302-0.913c-1.012-0.101-0.152-1.418-1.043-1.953   c-0.764-0.459-3.289-1.002-4.168-0.739c-2.737,0.822-8.285-1.921-11.153-2.469c-2.179-0.416-3.759-0.175-4.897-2.073   C362.197,70.29,361.06,69.669,360.193,69.236"/>
	<path id="mi_lower" d="M423.322,132.275   l9.463-1.563l4.254-0.869c0.85-3.398,2.706-6.591,3.905-9.464c0.344-0.82,2.878-7.774,2.868-3.213   c3.937-2.241-1.483-19.644-5.298-20.492c-4.659-1.036-4.81,7.324-8.16,7.033c-2.013-0.174-3.298-3.395-1.521-4.688   c2.195-1.597,1.704-2.091,2.647-4.602c0.303-0.8,1.834-0.608,1.686-1.836c-0.154-1.296-0.291-2.47-0.229-3.769   c0.117-2.466-2.02-2.844-2.324-4.641c-0.374-2.22,1.957-0.781,0-3.387c-1.159-1.546-2.409-1.738-4.452-2.296   c-3.093-0.843-5.4-2.23-8.396-3.13c-3.938-1.18-4.707,3.014-3.041,5.599c-3.734-0.314-8.153,6.392-9.812,8.423   c-1.712,2.1-0.761,3.884-1.042,6.599c-0.264,2.499-1.466,4.169-1.479,6.338c-0.016,2.93-0.271,5.034,1.174,7.771   c1.421,2.694,2.724,4.998,3.161,8.051c0.647,4.51-0.688,12.754-4.683,15.699l5.558-0.522l15.599-1.888"/>
</g>
<path id="ms" class="state south ms" d="M371.021,235.917  c0,0,1.403-2.919,1.504-3.095l15.715-1.215l9.859-0.938l-0.827,44.007l2.865,21.359c0,0-1.937,0.92-4.299,0.459  c0,0-1.33-0.324-3.743,0.352c0,0-2.453,0.516-3.398,1.604c0,0-0.463,1.363-1.844,1.58c0,0-3.634-4.238-4.469-6.731  c0,0,0.133-1.415,0.846-2.979c0,0,0.321-0.959,0.234-1.574l-23.098,1.563c1.41-10.714,5.324-13.861,5.324-13.861  c2.977-4.271,0.701-8.188,0.701-8.188c-1.857-2.063-2.031-6.688-2.031-6.688c0.53-3.121,0.176-5.56,0.176-5.56  c-1.508-1.946-0.525-4.86-0.525-4.86s0.862-1.496,1.354-2.195c0,0,0.844-1.932,1.011-3.034c0,0,0.188-1.461,1.262-2.345  c0,0,2.192-2.811,2.924-5.607C370.561,237.965,370.709,236.73,371.021,235.917z"/>
<path id="mt" class="state west mt" d="M230.12,35.284v0.347l-2.952,42.287  l-0.908,13.188l-0.339-0.026l-13.34-1.006l-19.538-1.911l-17.628-2.083L156.5,83.459l-1.054,6.963c-1.708-1.573-3-6.225-4.341-1.301  c-2.791-0.584-12.583-2.64-13.633,0.347c-0.896-0.956-1.987-2.725-1.607-3.995c0.895-2.975-2.619-2.185-3.125-4.037  c-0.963-3.533-0.669-8.846-2.821-12.113c-10.733,5.878-3.079-8.625-1.477-14.067c-3.563-0.194-3.516-2.31-4.95-4.775  c-1.95-3.353-4.332-5.618-6.253-8.77c0.32-0.057,0.637-0.117,0.956-0.174c-0.1-1.899-2.79-6.377-2.473-7.953  c0.912-4.527,1.825-9.053,2.733-13.581l13.635,2.692l23.964,4.08l21.014,3.04l13.633,1.649l14.5,1.651l18.148,1.65L230.12,35.284"/>
<path id="nc" class="state south eastcoast nc" d="M529.342,187.933  c0,0,0.297,0.816,1.578,2.098c0,0,1.792,1.35,1.886,3.482c0,0-0.652-1.159-2.6-0.281c0,0-1.896,1.119-3.508,2.294  c0,0-1.216,1.852-3.94,0.042c0,0,0.213,2.352,5.186,1.482c0,0,1.435-0.728,3.695-0.728c0,0,1.312,0.211,1.912-0.634  c0,0,2.081,1.69,1.329,4.328c0,0-0.339,2.901-3.241,4.523c0,0-0.834,0.943-9.537,0.244l6.286,2.076c0,0-0.281,1.828-1.049,2.873  c0,0-0.448,1.892-2.938,1.892c0,0,2.031,0.754,4.944-1.466c0,0,1.932-0.978,1.932,0.545c0,0-0.017,1.521-2.054,3.183  c0,0-3.051,1.583-5.217,2.146c0,0-3.56,2.178-6.405,6.008c0,0-1.631,2.324-1.631,4.734c0,0,0.667,0.676-1.441,2.412  c0,0-3.191,0.512-5.855,1.725l-14.845-10.59l-12.593,1.996c-0.228-2.574-3.089-3.558-3.089-3.558  c-2.262-0.655-13.166,0.501-13.166,0.501c-3.065,0.453-4.972,1.961-4.972,1.961c-1.106,0.854-1.812,1.057-1.812,1.057  c-2.063,0.398-3.619,1.688-3.619,1.688l-13.893,1.951c0,0-0.346-1.901,0.869-3.677c0,0,0.887-0.414,1.891-2.217  c0,0,0.231-2.217,3.347-3.021c0,0,2.215-0.4,3.946-2.133c0,0,2.735-1.791,4.493-4.203c0,0,0.972-1.471,1.811-1.508  c0,0,1.432,0.527,3.018-1.055c0,0,1.854-1.306,3.265-1.758c0,0,3.649-3.178,3.792-6.99l16.281-2.566l23.186-4.152l22.942-4.707"/>
<path id="nd" class="state midwest nd" d="M294.028,37.629  c-0.313,1.484,1.113,3.163,1.131,4.689c0.011,0.95-0.549,1.558-0.391,2.561c0.156,1,0.137,2.071,0.086,3.083  c-0.196,3.9,3.333,7.427,2.561,11.288c-0.278,1.395,0.243,3.579,0.437,5.036c0.274,2.107,0.285,4.11,0.342,6.367  c0.046,1.732,1.164,2.771,1.741,4.313c0.631,1.695,0.629,4.002,0.521,5.47l-18.323-0.087l-18.059-0.435l-19.45-0.868l-17.454-1.129  l2.952-42.287v-0.347v0.347v-0.347l14.674,0.956l22.056,0.955l18.842,0.434L294.028,37.629"/>
<path id="ne" class="state midwest ne" d="M309.224,155.804  c0-0.762-0.802-1.448-0.964-2.427c-0.65-3.93,0.706-9.995-2.594-10.943c-0.258-3.158-0.669-4.457-1.912-7.293  c-0.588-1.344-1.396-5.223-1.941-6.203c-1.357-0.578-2.952-1.903-3.962-2.916c-0.851-0.849-2.591-0.578-3.598-1.465  c-1.835-1.62-4.095-0.39-6.437-0.723c-0.944-0.135-1.061,1.249-2.123,1.146c-1.141-0.109-2.795-1.524-3.82-2.083l-1.13-1.128  l-11.373-0.174l-17.107-0.607l-17.714-0.955l-10.593-0.782l-1.909,28.306l9.638,0.696l11.329,0.557l-0.737,14.204l13.634,0.695  l26.396,0.695l13.805,0.087l17.975-0.174c-1.394-0.93-0.949-2.861-2.257-3.778C310.58,159.661,309.292,157.48,309.224,155.804z"/>
<path id="nh" class="state northeast newengland eastcoast nh" d="M561.991,87.209  c0,0-1.447,0.085-2.634,1.762c0,0-0.87,1.423-1.709,2.06l-11.548,2.692c-2.535-1.94-0.954-3.821-0.954-3.821  c-0.396-1.726-0.732-4.416-0.732-4.416c-0.412-1.809-0.338-4.071-0.338-4.071c0.413-2.487,0.722-3.316,0.722-3.316  c0.548-3.087,0.52-4.261,0.52-4.261c-1.053-3.055,0.756-4.068,0.756-4.068c3.241-2.676,1.697-4.636,1.697-4.636  c-0.942-1.206-0.491-1.958-0.491-1.958c0.3-1.131,0.088-1.946,0.088-1.946c-0.374-0.617-0.138-1.283-0.138-1.286  c0,0-0.021-1.178,0.162-2.837c0,0,0.125-0.838,0.508-1.224c0,0,0.32-0.429,1.147-0.617c0,0,0.766-0.125,1.133-0.357l6.862,20.752  l1.042,2.692c0,0-0.229,2.586,2.423,4.005c0,0,0.182,1.236,1.484,1.899l0.434,0.259C562.425,84.517,561.837,86.225,561.991,87.209z"/>
<path id="nj" class="state northeast eastcoast nj" d="M529.08,137.659  c-0.354,0.806-0.342,1.117-0.342,1.117c0,0.828-1.309,1.663-1.309,1.663c-1.303,0.533-1.558,1.351-1.558,1.351  c-0.44,1.069-0.782,2.381-0.782,2.381c0.418,0.834,0.344,1.65,0.344,1.65c1.937,1.657,5.124,3.383,5.124,3.383  c1.142-0.575,2.692-0.433,2.692-0.433c0.515,0.801,0.007,2.512,0.007,2.512c0.005,1.166,0.947,0.788,0.947,0.788  c1.356-2.154,1.914-5.649,1.914-5.649c0.265-0.946,1.558-2.772,1.558-2.772c0.273-1.474,1.65-4.081,1.65-4.081  c0.865-2.672-0.261-9.986-0.261-9.986c-1.236,0-3.388-0.174-3.388-0.174c-0.178-2.092,0.521-3.559,0.521-3.559  c1.06-0.225,1.045-1.39,1.045-1.39c0.359-1.056,0.348-3.212,0.348-3.212l-9.378-3.039c-1.439,1.304-1.303,2.865-1.303,2.865  c-0.519,1.941-1.909,3.214-1.909,3.214c1.588,1.59,0.507,3.47,0.507,3.47c-0.076,1.959,1.909,3.543,1.909,3.543  c1.009,0.904,4.224,3.286,4.224,3.286C530.894,135.839,529.08,137.659,529.08,137.659"/>
<path id="nm" class="state west nm" d="M202.075,274.068l-11.637-0.955  l-9.028-0.953c-0.077,0.631,0.261,1.309,0.438,1.896l0.082,0.271c0.431,0.353,0.859,0.724,1.288,1.111l0.006,0.006l-20.426-2.195  l-0.719,6.281l-10.02-1.207l0,0l10.073-79.625l18.407,2.172l16.412,1.648l19.798,1.65l12.503,0.779l-0.435,7.121l-0.521-0.033  l-2.17,35.199l-1.127,12.852l-1.025,15.609l-11.566-0.76L202.075,274.068z"/>
<path id="nv" class="state west nv" d="M96.835,212.333  c-0.332,1.913-1.21,2.011-1.303,4.862l-13.893-20.494l-32.823-47.844l2.346-9.376l7.728-31.868l17.713,4.168l12.591,2.691  l16.499,3.387l13.893,2.519l-12.504,69.898c-0.62,3.42-0.501,8.78-2.431,11.679c-2.81,4.219-3.006-2.435-6.425-0.826  c-2.25,1.06-1.122,5.028-1.303,7.209C96.826,209.486,97.014,211.294,96.835,212.333z"/>
<g id="ny" class="state northeast eastcoast ny">
	<path id="ny_1_" d="M538.196,95.372l-0.255,9.636   l0.345,0.522l1.823,10.159c0,0,0.687,0.559,0.499,1.911c0,0-0.063,0.175-1.073,1.182c0,0-0.602,0.335-0.101,0.833l0.762,0.764   l-0.02,0.035c0,0-0.645,1.194-0.851,1.911c0,0-0.123,0.69-0.595,1.16c0,0-0.654,0.511-1.046,1.063c0,0,0.556-3.193-0.42-5.921   c0,0-0.381-0.477-0.723-0.721c0,0-0.479-0.406-0.479-0.952c0,0-0.485,0.682,0.839,2.197c0,0,0.513,0.963,0.687,2.097l-9.378-3.039   c-0.587-0.759-1.367-0.641-2.338-1.049c-1.534-0.646-1.394-1.146-2.179-2.338c-1.456-2.209-2.377-2.407-4.083-3.993l-9.549,2.169   l-14.416,3.039l-12.762,2.518l-8.337,1.477l-0.607-3.299l-0.088-0.347c0,0,5.696-5.698,7.458-8.771c0,0-0.035-3.084-0.638-3.688   c0,0-1.523-0.841-1.875-2.348c0,0-0.609-1.643,6.529-3.535c0,0,4.727-0.586,8.446-0.386c0,0,3.377,0.158,6.35-1.148   c0.02-0.008,0.041-0.018,0.061-0.028c2.984-1.336,6.575-6.273,5.198-8.822c0,0-0.873-2.296-1.61-3.367c0,0-0.465-0.82,0.125-1.635   c0,0,2.339-2.203,3.395-4.304c0,0,3.166-9.679,10.103-10.588l12.032-3.044c0.618,1.168,0.993,3.956,0.993,3.956   c0.625,2.48,1.217,3.241,1.217,3.241c0.526,1.545,0.489,3.279,0.489,3.279c-0.188,1.846,0.453,3.73,0.453,3.73   c0.524,1.47,0.906,3.049,0.906,3.049c-0.106,2.032,0.442,2.444,0.442,2.444c0.602-1.968,1.774,0.47,1.774,0.47l1.972,9.005   L538.196,95.372"/>
	<path id="long_island_5_" d="M539.502,123.592   c0,0-1.514,0.705-1.854,1.98c0,0-0.301,0.842,0.19,1.125c0,0,0.892,0.182,1.713-0.076c0,0,2.141-0.922,4.595-2.279   c0,0,2.077-1.282,3.169-1.941c0,0,2.131-1.15,3.486-1.64c0,0,1.169-0.491,1.677-1.243c0,0,0.189-0.377,0.727-0.727   c0,0,1.486-0.511,4.234-3.473c0,0-1.034,0.61-1.792,0.802c0,0-1.057-0.071-2,0.777c0,0-0.979,1.795-2.546,2   c0,0,1.152-1.021,1.585-2.603c0,0,0.372-0.926,0.749-1.51c0,0-1.87,2.547-3.561,3.554c0,0-1.665,0.588-2.938,0.914   c0,0-0.848,0.082-1.731,0.833c0,0-0.302,0.354-2.074,1.053c0,0-0.979,0.245-1.621,0.301   C541.512,121.439,540.221,122.239,539.502,123.592z"/>
</g>
<path id="oh" class="state midwest oh" d="M437.039,129.843  c0.86,0.604,3.358,0.866,3.358,0.866c1.819,0.344,3.693,1.281,3.693,1.281c4.032,1.47,4.938,0.639,4.938,0.639  c2.206-2.02,4.858-2.034,4.858-2.034c1.716-0.339,3.324-1.65,3.324-1.65c0.951-1.387,2.043-2.479,2.043-2.479  c2.196-1.868,7.565-4.786,7.565-4.786l3.218,18.755c-0.471,0.213-1.044,0.435-1.044,0.435s0.682,7.57-0.089,11.461  c-0.488,2.478-0.962,3.336-2.313,5.519c-1.294,2.093-4.374,1.021-4.374,2.991c0,0.219-2.325,3.983-2.824,4.558  c-1.21,1.4-1.75,0.57-2.388,3.082c-0.589,2.334,0.104,6.792-3.906,6.687l0.09,0.087c-0.907-1.01-4.581-4.233-5.603-3.301  c-2.431,2.213-2.334,0.542-5.166,0.826c-1.313,0.132-6.262,0.56-7.481-1.037c-2.117-2.785-4.099-3.907-7.278-2.742l-4.341-36.728  l9.463-1.563L437.039,129.843"/>
<path id="ok" class="state south ok" d="M325.201,229.611l0.164,25.073  v-0.022c-0.938-0.432-1.974-0.568-2.984-1.215c-1.193-0.762-2.396-1.523-3.623-2.291c-2.244-1.404-1.736,0.063-2.934-0.098  c-3.901-0.517-8.813-0.113-11.723,2.778c-0.945-0.583-2.642-2.289-3.299-2.604c-0.658-0.314-2.351-0.883-3.39-0.608  c-1.039,0.274-3.843,4.808-3.387,0.868c-2.028,0.401-2.355-0.146-3.558-0.434c-1.582-0.376-1.532-1.854-3.198-0.188  c-1.673,1.675-3.774-1.668-3.75-3.199c-1.21-0.105-4.377,1.063-4.949,0.564c-1.335-1.168-2.237-0.615-3.956-1.188  c-0.731-0.245-3.658-0.577-3.815-1.155c-0.38-1.382-0.605-2.357-1.868-3.17c-1.882,3.514-5.176-1.497-7.38-1.822l0.087-1.563  l0.798-25.771l-6.704-0.105l-11.547-0.52l-15.371-0.869l0.435-7.121l10.942,0.695l17.799,0.782l25.269,0.606h25.441l13.893-0.262  l0.174,7.034c0,0-0.019,1.649,0.647,4.046C323.417,217.855,324.986,224.658,325.201,229.611z"/>
<path id="or" class="state west westcoast or" d="M35.879,39.973  c-0.396,1.81-1.002,3.565-1.781,5.124c-0.426,0.852-0.969,3.299-1.259,4.427c-1.844,8.264-6.327,15.694-9.318,23.684  c0.049,1.333-1.708,3.688-2.167,3.979c-0.542,0.333-0.67,0.122-0.932,0.383c-0.969,2.035-1.833,3.773-3.201,5.552  c-1.003,1.303,0.412,3.09,0.032,4.477c-0.769,2.814-3.106,6.518-0.044,8.9l-0.433-0.088l0.433,0.088l22.577,6.251l19.103,4.862  l17.713,4.168l12.591,2.691l5.209-25.006c0.996-1.178,1.51-2.436,1.65-3.995c0.102-1.117,0.847-0.577,0.174-1.823  c-0.292-0.54-1.541-0.505-1.736-0.869c-1.561-2.903,2.55-5.543,4.124-7.293c2.103-2.336,3.104-5.735,5.303-8.206  c2.995-3.372-1.66-4.405-1.787-7.858l-11.373-2.345l-8.859-2.083c-4.551,0.439-9.908,0.792-14.761,0.694  c-4.823-0.096-7.854-2.328-12.677-3.386c-2.305-0.506-4.228,1.64-6.772,0.086c-4.157-2.538-0.679-4.289-2.606-8.161  c-1.086-2.18-6.147-3.371-8.248-3.908c-0.175,0.295-0.089,0.556,0.26,0.781C36.72,40.79,36.347,40.292,35.879,39.973"/>
<path id="pa" class="state northeast eastcoast pa" d="M529.08,137.659  c0,0,1.813-1.82,2.562-3.072c0,0-3.215-2.382-4.224-3.286c0,0-1.985-1.584-1.909-3.543c0,0,1.081-1.879-0.507-3.47  c0,0,1.392-1.273,1.909-3.214c0,0-0.139-1.561,1.303-2.865c-0.587-0.759-1.367-0.641-2.338-1.049  c-1.534-0.646-1.394-1.146-2.178-2.338c-1.456-2.209-2.377-2.407-4.083-3.993l-9.55,2.169l-14.416,3.039l-12.762,2.518l-8.337,1.477  l-0.607-3.299l-0.088-0.347l-3.039,2.431l-2.777,2.17l-1.218,0.695l3.218,18.755l2.253,12.851l11.027-1.997l18.234-3.472  l20.668-4.427c0.656-3.694,3.563-2.085,3.563-2.085s0.896-1.117,2.012-1.588C527.796,139.717,528.145,138.596,529.08,137.659"/>
<path id="ri" class="state northeast newengland eastcoast ri" d="M557.474,111.349  c0,0,2.583-1.45,3.43-2.171c0,0,0.319-0.497-0.075-2.325c0,0-0.148-0.941-0.507-1.602c0,0-0.152-0.347,0.166-0.87  c0,0,0.416-0.5,0.898-0.5c-0.803-0.711-1.393-1.997-1.393-1.997c-0.305-0.692-1.126-1.129-1.126-1.129l-3.478,1.042l2.262,7.986  C557.653,109.783,557.301,110.303,557.474,111.349"/>
<path id="sc" class="state south eastcoast sc" d="M486.534,261.568  c0,0-2.724-0.731-3.737-3.138c0,0-0.092-1.563-1.619-3.091c0,0-1.739-0.508-2.284-2.893c0,0-0.155-2.074-3.968-4.489  c0,0-0.938-0.069-3.81-4.146c0,0-0.749-1.136-4.785-4.263c0,0-6.173-3.303-7.329-7.173c0,0-0.533-1.314-2.427-1.314  c0,0-3.277-0.805-4.165-2.929c0,0,0.732-2.729,2.17-4.167c0,0,1.558-1.29,3.619-1.689c0,0,0.704-0.203,1.812-1.056  c0,0,1.905-1.508,4.972-1.961c0,0,10.904-1.157,13.166-0.501c0,0,2.861,0.982,3.09,3.557l12.592-1.996l14.845,10.592  c0,0-4.813,4.025-5.401,9.557c0,0-0.854,3.086-4.421,7.186c0,0-5.477,6.69-9.896,6.783c0,0,3.024,0.858,1.661,2.439  c0,0-1.285,2.119-4.212-1.393c0,0,0.25,2.174,2.129,3.303C488.532,258.787,486.997,259.658,486.534,261.568"/>
<path id="sd" class="state midwest sd" d="M227.169,77.918l-0.908,13.188  l-0.345-0.026l-1.961,28.169l10.593,0.782l17.714,0.955l17.107,0.607l11.373,0.174l1.13,1.128c1.024,0.559,2.679,1.974,3.82,2.083  c1.062,0.103,1.179-1.282,2.123-1.146c2.342,0.333,4.602-0.896,6.437,0.723c1.007,0.887,2.747,0.617,3.598,1.465  c1.01,1.012,2.604,2.337,3.963,2.916c-1.043-2.792-2.019-5.402-0.49-7.951c0.64-1.068-0.877-4.618-1.215-6.165h1.562l-0.175-25.354  c-0.904-1.458-2.299-1.519-2.299-1.519c-0.616-1.316-1.781-2.649-1.781-2.649c0-1.329,1.942-2.424,1.942-2.424  c1.248-0.686,1.098-2.438,1.098-2.438l-18.323-0.087l-18.059-0.435l-19.45-0.868L227.169,77.918z"/>
<path id="tn" class="state south tn" d="M374.813,228.104  c0,0-0.16-1.352,0.629-2.404c0,0,1.602-3.521,2.644-7.547c1.638-3.611,1.724-6.332,1.724-6.332c0.426-0.631,1.139-0.965,1.139-0.965  l15.37-1.303l-0.124-2.227c19.963-1.463,36.651-3.359,48.828-4.979c14.176-1.882,22.237-3.01,22.237-3.01l-0.141,0.021  c-0.143,3.812-3.792,6.99-3.792,6.99c-1.409,0.452-3.265,1.757-3.265,1.757c-1.586,1.584-3.018,1.057-3.018,1.057  c-0.839,0.037-1.811,1.507-1.811,1.507c-1.758,2.413-4.493,4.203-4.493,4.203c-1.731,1.731-3.946,2.133-3.946,2.133  c-3.114,0.806-3.346,3.021-3.346,3.021c-1.005,1.803-1.892,2.219-1.892,2.219c-1.215,1.773-0.869,3.676-0.869,3.676l-14.763,1.865  l-27.826,2.885l-9.858,0.939l-15.717,1.215c0,0,0.545-1.746,1.478-2.678C374.001,230.146,374.762,229.371,374.813,228.104z"/>
<path id="tx" class="state south tx" d="M335.837,298.38  c0.008,0.071,0.668,5.862-0.71,7.392c-1.391,1.517-1.469,2.25-1.469,2.25c-0.142,0.828,0.139,1.791,0.139,1.791  c-4.799,0.033-6.762,3.503-10.505,2.722c-2.972-4.846-1.703,2.432-2.736,3.909c-2.897,4.146-12.534,9.639-12.806,9.639  s-0.256-0.329-1.044-0.694c-0.789-0.365-5.581,0.199-3.214,2.519c-5.352,2.712-6.124,3.862-9.982,8.943  c-2.583-1.003-1.593,3.1-2.779,6.859c-0.819,2.588-1.532,3.758-1.652,6.077c-0.12,2.318,3.541,9.756,2.519,14.5  c-2.225-0.722-3.896-3.019-6.513-2.908c-3.567,0.147-6.809-3.221-9.505-2.734c-5.836,1.051-7.167-7.728-9.946-11.201  c-0.866-1.089-0.829-4.255-0.738-5.256c0.347-3.811-3.953-3.18-4.643-6.64c-0.796-3.981-5.71-8.202-7.296-12.156  c-3.923-9.801-12.297-19.227-22.748-16.106c-3.692,1.1-8.097,6.455-9.336,10.158c-0.864,2.596-12.525-6.889-13.848-7.813  c-5.803-4.061-5.012-13.7-10.161-19.061c-4.911-5.111-9.809-12.05-14.935-16.238l-0.082-0.271c-0.177-0.589-0.515-1.267-0.438-1.896  l9.028,0.953l11.637,0.955l10.333,0.871l11.566,0.76l1.025-15.609l1.127-12.852l2.17-35.199l0.521,0.033l15.371,0.869l11.547,0.52  l6.704,0.105l-0.798,25.771l-0.087,1.563c2.205,0.325,5.498,5.336,7.38,1.822c1.263,0.813,1.488,1.788,1.868,3.17  c0.157,0.578,3.084,0.91,3.815,1.155c1.718,0.573,2.62,0.021,3.956,1.188c0.572,0.498,3.738-0.672,4.949-0.564  c-0.025,1.531,2.077,4.874,3.75,3.199c1.666-1.668,1.616-0.188,3.198,0.188c1.203,0.287,1.53,0.835,3.558,0.434  c-0.456,3.938,2.348-0.596,3.387-0.868c1.039-0.273,2.732,0.294,3.39,0.608c0.657,0.315,2.354,2.021,3.298,2.604  c2.91-2.894,7.821-3.295,11.723-2.778c1.197,0.159,0.689-1.308,2.935,0.098c1.228,0.768,2.431,1.529,3.623,2.291  c1.012,0.646,2.047,0.783,2.985,1.215c0.313,0.146,0.574,0.324,0.877,0.564c0.537,0.43,3.076-0.189,4.254,0.26l0.263,7.642  l0.433,14.327c2.613,1.748,2.987,5.06,4.168,7.469c1.231,2.513,1.885,3.803,1.996,6.25  C337.467,293.584,335.512,296.195,335.837,298.38z"/>
<polyline id="ut" class="state west ut" points="169.252,142.346   162.132,198.699 146.936,196.703 132.261,194.533 117.238,192.099 107.08,190.277 119.585,120.379 123.579,121.161 138.166,123.592   150.322,125.415 148.238,139.482 169.252,142.346 "/>
<g id="va" class="state south eastcoast va">
	<path id="va_eastern_shore" d="M529.647,176.681   c-0.291,1.743-0.875,2.458-1.575,3.458c-1.76-6.431,1.823-9.597,0.393-11.865l0.511-0.442l2.915-0.958   C531.804,169.308,530.458,171.855,529.647,176.681z"/>
	<path id="va_mainland" d="M445.021,202.348   c14.176-1.882,22.237-3.01,22.237-3.01l16.142-2.545l23.186-4.152l22.943-4.707h-0.187c0,0-0.563-1.866-2.866-4.083   c0,0-1.528-1.52-1.805-3.354c0,0-1.43-0.47-1.69-2.132c0,0-0.513-0.155,1.298-0.909c0,0,0.197-1.457-0.302-2.112   c0,0-1.758,0.054-1.411-2.292c0,0,0.707-1.978,0.254-3.134c0,0-1.206-0.253-2.711-0.956c0,0-0.607-0.414-1.758-1.66   c0,0-3.169,0.958-5.178-1.958c0,0-0.471-0.167-1.156,0.201c0,0-1.396,1.271-2.141,0.522c0,0-0.955-1.598,0.711-4.616   c0,0,2.698-2.256-0.172-4.256c0,0-2.369-1.288-3.649-1.041c0,0-0.933-0.336-0.782-1.477c0,0-0.722-1.963-3.212-1.477   c0.11,5.835-4.521-1.488-6.772,0.349c-0.762,0.622-0.752,5.675-1.995,7.207c-2.002,2.464-3.911,2.729-4.517,6.076   c-0.848,4.68-4.913-0.84-5.349,1.766c-0.669,4.034-2.838,7.117-3.854,10.826c-0.306,1.113,0.234,3.704-0.262,4.515   c-0.784,1.29-2.845,1.173-3.98,2.135c-1.172,0.998-4.848,2.376-7.524,2.603c-4.343,0.185-6.138-1.29-6.922-1.713   c0,0-3.532,4.375-5.862,5.511c0,0-1.229,1.089-2.008,3.374c0,0-1.313,3.477-8.695,6.499"/>
</g>
<path id="vt" class="state northeast newengland vt" d="M547.229,59.944  c0,0-0.236,0.669,0.138,1.286c0,0,0.212,0.814-0.089,1.946c0,0-0.45,0.752,0.492,1.958c0,0,1.544,1.96-1.697,4.636  c0,0-1.809,1.013-0.756,4.068c0,0,0.028,1.174-0.52,4.261c0,0-0.309,0.83-0.722,3.316c0,0-0.074,2.262,0.338,4.071  c0,0,0.336,2.689,0.732,4.416c0,0-1.581,1.881,0.954,3.821l-7.904,1.65l-0.521-1.476l-1.972-9.005c0,0-1.173-2.438-1.774-0.47  c0,0-0.55-0.412-0.442-2.444c0,0-0.382-1.58-0.906-3.049c0,0-0.641-1.885-0.453-3.73c0,0,0.037-1.734-0.489-3.279  c0,0-0.592-0.761-1.217-3.241c0,0-0.375-2.788-0.993-3.956L547.229,59.944"/>
<path id="wa" class="state westcoast west wa" d="M42.909,42.356  c-1.464-0.476-1.589-1.535-2.949-2.209c-1.755-0.867-3.091-0.904-4.863-1.476c0.376-1.533,0.752-3.068,1.129-4.602  c-0.167,0.747-0.039,1.854-0.173,2.692c0.205,0.128,1.01,0.127,1.39-0.57c0.835-4.522-1.43-4.066-0.522-6.289  c1.042,0.879,0.995,0.284,3.04,0.087c-0.588-0.595-1.827-1.453-2.606-1.912c-0.086,0.29-0.172,0.58-0.26,0.869  c-0.465-3.702,0.916-8.608-0.174-12.591c-1.357-4.962,0.64-4.887,0.174-7.901c2.414,1.629,4.479,4.54,7.294,5.384  c2.307,0.691,6.804,1.422,6.86,3.472c0.446,0.298,0.815,0.479,1.562,1.043c0.307-0.936,0.591-0.862,1.042-1.65  c0.083,2.296,0.328,2.528,1.043,3.734c0.64,1.999,0.299,1.743-1.303,2.171c-0.075,0.421,0.062,1.36,0.088,1.824  c-0.291-0.087-0.216,0.474-0.216,0.792c0.317,1.492,0.869,1.394,0.869,3.053c-0.32-0.202,0.464,0.687,1.084-0.46  c0.529-0.98-0.209-3.116,0-3.732c0.479-1.422,2.691-2.853,2.43-4.95c-0.085-0.694-0.261-4.388-0.261-5.557  c0.072-0.922-0.052-0.565,0.196-1.453c2.353-2.051-2.697-4.275-0.63-6.623l12.59,3.387l14.241,3.56l16.499,3.821l8.854,1.824  l-0.085,0.521L102.48,50.22l-0.349,2.865c-0.81,1.266,0.323,2.974-0.119,4.566l0.119,1.772l-11.373-2.345l-8.859-2.083  c-4.551,0.439-9.908,0.792-14.761,0.694c-4.823-0.096-7.854-2.328-12.677-3.386c-2.305-0.506-4.228,1.64-6.772,0.086  c-4.157-2.538-0.679-4.289-2.606-8.161C44.718,43.497,43.906,42.877,42.909,42.356"/>
<path id="wi" class="state midwest wi" d="M357.894,124.069  c-1.081-0.493-1.696-3.112-1.821-4.24c-0.188-1.716,0.406-3.006,0.041-4.486c-0.166-0.679-0.724-0.927-1.215-2.258  c-0.598-2.14-0.387-4.558-2.084-6.252c-1.603-1.601-3.826-1.672-5.179-3.794c-0.913-1.436-4.086-4.06-5.676-4.324  c-3.593-0.597-3.147-2.475-3.56-4.992c-0.488-2.988,0.69-6.39,0.692-6.947s-2.521-2.397-2.521-3.344  c0-0.948,1.104-1.634,1.306-2.648c0.583-2.944,4.468-0.915,4.272-5.857c-0.123-3.086-0.951-5.494,1.371-7.341  c1.654,2.614,6.993-0.733,8.944-1.736c0.808-0.416,3.263-2.76,3.907-1.042c0.26,0.699-0.621,1.288-0.782,1.824  c-0.253,0.843-0.049,1.539-0.606,2.344c1.026,0.192,1.537-0.572,2.527-0.392c0.953,0.172,1.633,0.629,2.68,0.653  c0.866,0.433,2.006,1.054,2.53,1.926c1.142,1.898,2.722,1.658,4.897,2.073c2.869,0.548,8.416,3.292,11.154,2.469  c0.879-0.263,3.404,0.279,4.168,0.739c0.891,0.534,0.03,1.852,1.043,1.953c0.864,0.087,1.66,0.329,2.301,0.913  c1.59,1.447-1.432,5.992,2.301,4.687c-0.881,1.535-0.646,3.013,0.957,3.647c-0.03,1.893-1.947,2.554-2.691,4.255  c-1.041,2.371-1.013,5.607,1.387,2.344c0.896-1.212,2.627-5.693,4.125-2.388c0.744,1.641-1.254,4.762-1.344,6.643  c-0.057,1.154,1.305,1.7,0.174,2.604c-0.942,0.755-1.304,2.389-1.304,3.56c0,2.349,0.399,4.271-0.334,6.574  c-0.872,2.749-0.185,4.643,0.509,6.973c0.619,2.084,0.59,3.989,0.955,6.338l-12.854,1.128l-16.409,0.954c0,0-0.41-0.749-0.584-1.13  c-0.175-0.381-0.379-0.366-0.731-0.569c0,0-0.201-0.086-0.974-0.274C359.469,124.656,358.427,124.428,357.894,124.069z"/>
<path id="wv" class="state south wv" d="M483.321,151.29l1.215,7.294  c1.966-2.765,3.91-4.66,3.91-4.66c1.353-0.139,2.328-1.744,2.328-1.744c-0.103-0.728,0.145-0.777,0.284-0.832  c0.141-0.055,0.521,0.135,0.521,0.135c1.202,0.861,2.648,0.544,2.648,0.544c1.959-3.994,5.026-2.488,5.026-2.488  c2.762,1.183,3.517,3.661,3.517,3.661c0.11,5.835-4.521-1.488-6.772,0.349c-0.763,0.622-0.752,5.675-1.995,7.207  c-2.002,2.464-3.911,2.729-4.518,6.076c-0.847,4.68-4.912-0.84-5.348,1.766c-0.669,4.034-2.838,7.117-3.854,10.826  c-0.306,1.113,0.234,3.704-0.262,4.515c-0.785,1.29-2.845,1.173-3.98,2.135c-1.172,0.998-4.849,2.376-7.524,2.603  c-4.343,0.185-6.138-1.29-6.922-1.713c-1.387-0.9-3.263-1.466-6.494-5.587c0,0-1.675-1.759-1.822-3.368c0,0,0.635-1.181-0.085-2.751  l-0.091-0.087c4.011,0.106,3.317-4.353,3.906-6.687c0.638-2.512,1.178-1.682,2.388-3.082c0.499-0.575,2.824-4.339,2.824-4.558  c0-1.97,3.08-0.898,4.374-2.991c1.352-2.182,1.823-3.041,2.313-5.519c0.771-3.891,0.089-11.461,0.089-11.461  s0.574-0.222,1.044-0.435l2.253,12.851L483.321,151.29"/>
<polygon id="wy" class="state west wy" points="225.916,91.08   223.955,119.249 222.046,147.555 205.548,146.254 196.43,145.386 179.324,143.563 169.252,142.346 148.238,139.482 150.322,125.415   155.446,90.422 156.5,83.459 175.416,86.081 193.044,88.164 212.582,90.075 225.922,91.081 "/>


<g id="labels">
	<path d="M45.281 177.59V178.699C44.51 178.319 43.802 178.129 43.155 178.129C42.324 178.129 41.625 178.398 41.056 178.936C40.487 179.473 40.203 180.134 40.203 180.916C40.203 181.714 40.494 182.38 41.076 182.914C41.658 183.448 42.386 183.715 43.262 183.715C43.898 183.715 44.571 183.515 45.282 183.113V184.23C44.635 184.574 43.933 184.746 43.177 184.746C42.069 184.746 41.122 184.371 40.336 183.62C39.55 182.87 39.157 181.965 39.157 180.905C39.157 179.865 39.543 178.974 40.316 178.233C41.089 177.492 42.02 177.121 43.109 177.121C43.809 177.121 44.533 177.278 45.281 177.59Z" fill="black"/>
<path d="M49.1139 177.075L52.4929 184.505H51.4749L50.6399 182.669H47.6069L46.7819 184.505H45.7659L49.1139 177.075ZM49.1139 179.312L47.9719 181.856H50.2709L49.1139 179.312Z" fill="black"/>
<path d="M75.7379 31.3217L78.0389 36.6128L80.1979 31.6107H81.2109L78.0429 38.9778L75.7359 33.6737L73.4329 38.9778L70.2649 31.6107H71.2739L73.4449 36.6608L75.7379 31.3217Z" fill="black"/>
<path d="M84.1148 31.3217L87.4939 38.7518H86.4758L85.6408 36.9158H82.6078L81.7828 38.7518H80.7668L84.1148 31.3217ZM84.1148 33.5587L82.9728 36.1028H85.2719L84.1148 33.5587Z" fill="black"/>
<path d="M53.7029 80.3807C53.7029 79.3476 54.0919 78.4626 54.8699 77.7256C55.6479 76.9876 56.5829 76.6196 57.6749 76.6196C58.7409 76.6196 59.6589 76.9916 60.4299 77.7346C61.2009 78.4776 61.5859 79.3596 61.5859 80.3817C61.5859 81.4637 61.2049 82.3777 60.4439 83.1247C59.6829 83.8717 58.7489 84.2447 57.6409 84.2447C56.5489 84.2447 55.6199 83.8687 54.8529 83.1167C54.0869 82.3637 53.7029 81.4517 53.7029 80.3807ZM60.5469 80.4257C60.5469 79.6357 60.2629 78.9706 59.6939 78.4296C59.1259 77.8886 58.4269 77.6186 57.5969 77.6186C56.8079 77.6186 56.1319 77.8936 55.5699 78.4436C55.0069 78.9936 54.7259 79.6536 54.7259 80.4247C54.7259 81.2067 55.0149 81.8677 55.5919 82.4087C56.1689 82.9497 56.8769 83.2197 57.7149 83.2197C58.4849 83.2197 59.1499 82.9437 59.7079 82.3917C60.2679 81.8407 60.5469 81.1847 60.5469 80.4257Z" fill="black"/>
<path d="M63.0149 76.8456H64.5659C65.3379 76.8456 65.9659 77.0376 66.4519 77.4206C66.9369 77.8046 67.1799 78.2956 67.1799 78.8936C67.1799 79.3726 67.0229 79.7957 66.7089 80.1627C66.3959 80.5297 65.9059 80.7877 65.2419 80.9367L67.3199 84.0017H66.1989L64.2109 81.0567H63.9919V84.0017H63.0149V76.8456ZM63.9909 77.7126V80.2047C65.4329 80.2347 66.1549 79.8177 66.1549 78.9526C66.1549 78.6496 66.0709 78.4016 65.9019 78.2086C65.7329 78.0166 65.5079 77.8846 65.2269 77.8156C64.9469 77.7476 64.5349 77.7126 63.9909 77.7126Z" fill="black"/>
<path d="M76.063 143.941L81.36 149.375V144.223H82.337V151.707L77.04 146.296V151.379H76.063V143.941Z" fill="black"/>
<path d="M83.1941 144.238H84.2251L86.4661 149.31L88.7361 144.238H89.7721L86.4561 151.621L83.1941 144.238Z" fill="black"/>
<path d="M376.477 157.861H377.446V165.017H376.477V157.861Z" fill="black"/>
<path d="M379.162 157.861H380.131V164.049H382.459V165.018H379.162V157.861V157.861Z" fill="black"/>
<path d="M513.336 43.9229H514.367L516.606 48.995L518.877 43.9229H519.913L516.597 51.3061L513.336 43.9229Z" fill="black"/>
<path d="M520.446 43.9069H524.829V44.8839H523.118V51.0641H522.148V44.8839H520.446V43.9069Z" fill="black"/>
<path d="M494.031 174.23H495.061L497.301 179.302L499.572 174.23H500.607L497.292 181.613L494.031 174.23Z" fill="black"/>
<path d="M503.443 173.941L506.823 181.371H505.804L504.969 179.535H501.936L501.113 181.371H500.095L503.443 173.941ZM503.443 176.179L502.301 178.723H504.6L503.443 176.179Z" fill="black"/>
<path d="M413.668 252.325L417.047 259.756H416.028L415.193 257.92H412.161L411.336 259.756H410.319L413.668 252.325ZM413.668 254.563L412.524 257.107H414.824L413.668 254.563Z" fill="black"/>
<path d="M418.087 252.599H419.056V258.787H421.384V259.757H418.087V252.599V252.599Z" fill="black"/>
<path d="M69.4181 344.858L72.7971 352.288H71.7791L70.9441 350.452H67.9111L67.0861 352.288H66.0701L69.4181 344.858ZM69.4181 347.095L68.2761 349.639H70.5751L69.4181 347.095Z" fill="black"/>
<path d="M73.696 345.131H74.673V348.039L77.695 345.131H79.063L75.611 348.453L79.087 352.287H77.836L74.673 348.798V352.287H73.696V345.131Z" fill="black"/>
<path d="M183.781 387.799H184.758V390.549H188.172V387.799H189.141V394.955H188.172V391.517H184.758V394.955H183.781V387.799Z" fill="black"/>
<path d="M190.673 387.799H191.642V394.955H190.673V387.799Z" fill="black"/>
<path d="M132.211 160.363H133.188V164.758C133.188 165.409 133.344 165.912 133.657 166.268C133.97 166.623 134.412 166.801 134.986 166.801C135.555 166.801 135.998 166.637 136.315 166.31C136.631 165.983 136.79 165.522 136.79 164.927V160.364H137.767V164.861C137.767 165.737 137.517 166.437 137.017 166.961C136.517 167.485 135.852 167.747 135.02 167.747C134.17 167.747 133.49 167.481 132.978 166.95C132.467 166.419 132.211 165.635 132.211 164.598V160.363Z" fill="black"/>
<path d="M138.759 160.347H143.142V161.324H141.431V167.504H140.462V161.324H138.759V160.347Z" fill="black"/>
<path d="M184.188 235.068L189.485 240.502V235.351H190.462V242.834L185.165 237.424V242.507H184.188V235.068Z" fill="black"/>
<path d="M197.807 235.052L199.764 242.505H198.809L197.62 237.942L195.588 242.778L193.546 237.922L192.348 242.505H191.396L193.345 235.052L195.585 240.381L197.807 235.052Z" fill="black"/>
<path d="M125.407 225.325L128.786 232.756H127.768L126.933 230.92H123.9L123.075 232.756H122.059L125.407 225.325ZM125.407 227.563L124.265 230.107H126.564L125.407 227.563Z" fill="black"/>
<path d="M129.475 225.599H134.311L130.888 231.787H134.241V232.757H129.303L132.713 226.576H129.475V225.599V225.599Z" fill="black"/>
<path d="M261.742 96.766L260.95 97.401C260.741 97.183 260.551 97.021 260.381 96.913C260.211 96.806 259.965 96.752 259.644 96.752C259.292 96.752 259.008 96.832 258.789 96.991C258.57 97.15 258.461 97.355 258.461 97.605C258.461 97.822 258.556 98.014 258.747 98.181C258.937 98.348 259.263 98.53 259.722 98.7271C260.181 98.9241 260.539 99.1081 260.796 99.2781C261.052 99.4481 261.262 99.6371 261.426 99.8421C261.591 100.048 261.713 100.265 261.793 100.493C261.874 100.722 261.914 100.963 261.914 101.218C261.914 101.813 261.698 102.321 261.265 102.74C260.832 103.159 260.309 103.369 259.695 103.369C259.095 103.369 258.566 103.205 258.107 102.878C257.648 102.55 257.294 102.059 257.047 101.404L258.024 101.127C258.38 101.935 258.927 102.338 259.663 102.338C260.019 102.338 260.316 102.232 260.553 102.019C260.789 101.806 260.907 101.538 260.907 101.213C260.907 101.019 260.845 100.824 260.72 100.628C260.596 100.433 260.442 100.271 260.257 100.144C260.072 100.018 259.78 99.8711 259.38 99.7051C258.98 99.5381 258.672 99.3871 258.456 99.2501C258.24 99.1131 258.053 98.9511 257.895 98.7621C257.737 98.5731 257.621 98.385 257.548 98.198C257.475 98.011 257.438 97.811 257.438 97.597C257.438 97.084 257.644 96.647 258.056 96.286C258.468 95.925 258.968 95.744 259.556 95.744C259.946 95.744 260.341 95.828 260.742 95.997C261.143 96.165 261.476 96.422 261.742 96.766Z" fill="black"/>
<path d="M263.133 95.971H264.867C266.241 95.971 267.263 96.334 267.932 97.061C268.601 97.788 268.937 98.617 268.937 99.5491C268.937 100.489 268.591 101.32 267.898 102.043C267.205 102.766 266.199 103.127 264.878 103.127H263.132L263.133 95.971ZM264.11 96.924V102.158H264.166C264.893 102.158 265.439 102.125 265.807 102.06C266.174 101.995 266.522 101.852 266.852 101.63C267.182 101.408 267.444 101.116 267.639 100.751C267.833 100.386 267.931 99.9841 267.931 99.5461C267.931 98.9951 267.776 98.497 267.465 98.052C267.154 97.607 266.782 97.307 266.35 97.154C265.917 97 265.336 96.924 264.605 96.924H264.11V96.924Z" fill="black"/>
<path d="M267.438 140.316L272.735 145.75V140.598H273.712V148.082L268.415 142.671V147.754H267.438V140.316Z" fill="black"/>
<path d="M275.092 140.597H279.052V141.574H276.06V143.355H279.052V144.324H276.06V146.785H279.052V147.754H275.092V140.597Z" fill="black"/>
<path d="M328.977 131.347H329.946V138.503H328.977V131.347Z" fill="black"/>
<path d="M334.189 131.074L337.568 138.504H336.55L335.715 136.668H332.682L331.859 138.504H330.841L334.189 131.074ZM334.189 133.311L333.046 135.855H335.345L334.189 133.311Z" fill="black"/>
<path d="M275.764 181.362H276.741V184.271L279.763 181.362H281.131L277.679 184.684L281.155 188.518H279.904L276.741 185.029V188.518H275.764V181.362Z" fill="black"/>
<path d="M286.476 182.157L285.684 182.792C285.475 182.574 285.285 182.412 285.115 182.304C284.945 182.197 284.699 182.143 284.378 182.143C284.026 182.143 283.741 182.223 283.523 182.382C283.304 182.541 283.195 182.746 283.195 182.996C283.195 183.213 283.29 183.405 283.481 183.572C283.672 183.739 283.997 183.921 284.457 184.118C284.917 184.315 285.274 184.499 285.53 184.669C285.786 184.839 285.996 185.028 286.161 185.233C286.326 185.439 286.448 185.656 286.528 185.884C286.608 186.113 286.649 186.354 286.649 186.609C286.649 187.204 286.433 187.712 286 188.131C285.567 188.55 285.043 188.76 284.429 188.76C283.829 188.76 283.301 188.596 282.842 188.269C282.383 187.941 282.03 187.45 281.782 186.795L282.759 186.518C283.115 187.326 283.662 187.729 284.397 187.729C284.754 187.729 285.05 187.623 285.287 187.41C285.524 187.197 285.642 186.929 285.642 186.604C285.642 186.41 285.58 186.215 285.455 186.019C285.331 185.824 285.176 185.662 284.992 185.535C284.807 185.409 284.515 185.262 284.116 185.096C283.716 184.929 283.408 184.778 283.192 184.641C282.976 184.504 282.789 184.342 282.631 184.153C282.473 183.964 282.357 183.776 282.284 183.589C282.211 183.402 282.174 183.202 282.174 182.988C282.174 182.475 282.38 182.038 282.792 181.677C283.204 181.316 283.704 181.135 284.292 181.135C284.682 181.135 285.077 181.219 285.478 181.388C285.877 181.556 286.21 181.813 286.476 182.157Z" fill="black"/>
<path d="M267.313 279.6H271.696V280.577H269.985V286.758H269.016V280.577H267.313V279.6Z" fill="black"/>
<path d="M272.506 279.6H273.582L275.18 282.209L276.76 279.6H277.85L275.725 283.112L277.913 286.758H276.837L275.182 284.009L273.518 286.758H272.428L274.637 283.109L272.506 279.6Z" fill="black"/>
<path d="M342.75 276.1H343.719V282.288H346.047V283.258H342.75V276.1V276.1Z" fill="black"/>
<path d="M349.701 275.826L353.081 283.257H352.062L351.228 281.421H348.195L347.371 283.257H346.353L349.701 275.826ZM349.701 278.064L348.558 280.608H350.859L349.701 278.064Z" fill="black"/>
<path d="M318.137 79.5486L320.094 87.0018H319.14L317.95 82.4397L315.92 87.2748L313.879 82.4187L312.68 87.0018H311.729L313.677 79.5486L315.917 84.8778L318.137 79.5486Z" fill="black"/>
<path d="M321.054 79.5647L326.351 84.9988V79.8467H327.329V87.3308L322.032 81.9197V87.0018H321.054V79.5647Z" fill="black"/>
<path d="M343.887 183.801L345.844 191.254H344.889L343.7 186.692L341.67 191.527L339.629 186.671L338.43 191.254H337.48L339.428 183.801L341.668 189.13L343.887 183.801Z" fill="black"/>
<path d="M346.57 187.633C346.57 186.6 346.959 185.715 347.736 184.978C348.514 184.24 349.449 183.872 350.543 183.872C351.607 183.872 352.525 184.244 353.298 184.987C354.069 185.73 354.453 186.612 354.453 187.634C354.453 188.716 354.072 189.63 353.31 190.377C352.548 191.124 351.615 191.497 350.507 191.497C349.415 191.497 348.486 191.121 347.719 190.369C346.952 189.617 346.57 188.704 346.57 187.633ZM353.412 187.678C353.412 186.888 353.129 186.223 352.559 185.682C351.989 185.141 351.291 184.871 350.462 184.871C349.673 184.871 348.997 185.146 348.435 185.696C347.872 186.246 347.591 186.906 347.591 187.677C347.591 188.459 347.88 189.12 348.457 189.661C349.034 190.202 349.741 190.472 350.579 190.472C351.35 190.472 352.014 190.196 352.573 189.644C353.134 189.093 353.412 188.437 353.412 187.678Z" fill="black"/>
<path d="M410.395 214.598H414.778V215.575H413.067V221.757H412.098V215.575H410.395V214.598Z" fill="black"/>
<path d="M415.807 214.317L421.104 219.752V214.6H422.082V222.084L416.785 216.673V221.757H415.807V214.317Z" fill="black"/>
<path d="M287.698 228.139C287.698 227.107 288.087 226.221 288.865 225.484C289.643 224.746 290.578 224.379 291.67 224.379C292.736 224.379 293.654 224.75 294.425 225.492C295.196 226.236 295.581 227.119 295.581 228.139C295.581 229.221 295.2 230.135 294.439 230.882C293.678 231.629 292.744 232.001 291.636 232.001C290.544 232.001 289.615 231.626 288.848 230.874C288.082 230.12 287.698 229.21 287.698 228.139ZM294.542 228.184C294.542 227.394 294.258 226.729 293.689 226.189C293.121 225.648 292.422 225.376 291.592 225.376C290.803 225.376 290.127 225.651 289.565 226.202C289.002 226.751 288.721 227.413 288.721 228.182C288.721 228.964 289.01 229.625 289.587 230.164C290.165 230.705 290.872 230.977 291.71 230.977C292.48 230.977 293.145 230.702 293.703 230.149C294.263 229.599 294.542 228.943 294.542 228.184Z" fill="black"/>
<path d="M296.862 224.604H297.839V227.513L300.861 224.604H302.228L298.776 227.926L302.252 231.76H301.001L297.838 228.271V231.76H296.861V224.604H296.862Z" fill="black"/>
<path d="M423.887 113.299L425.844 120.753H424.89L423.701 116.19L421.67 121.026L419.629 116.169L418.431 120.753H417.479L419.428 113.299L421.668 118.628L423.887 113.299Z" fill="black"/>
<path d="M426.843 113.596H427.812V120.753H426.843V113.596Z" fill="black"/>
<path d="M380.887 257.052L382.844 264.505H381.89L380.7 259.942L378.67 264.778L376.629 259.922L375.431 264.505H374.48L376.428 257.052L378.668 262.381L380.887 257.052Z" fill="black"/>
<path d="M388.234 258.144L387.441 258.779C387.232 258.561 387.044 258.398 386.874 258.291C386.703 258.186 386.458 258.132 386.136 258.132C385.785 258.132 385.5 258.211 385.282 258.369C385.063 258.529 384.954 258.734 384.954 258.984C384.954 259.201 385.05 259.392 385.241 259.559C385.43 259.726 385.757 259.908 386.217 260.105C386.676 260.302 387.034 260.486 387.29 260.656C387.546 260.828 387.756 261.015 387.921 261.22C388.085 261.427 388.207 261.644 388.288 261.872C388.368 262.101 388.407 262.342 388.407 262.597C388.407 263.193 388.19 263.699 387.759 264.118C387.325 264.536 386.803 264.747 386.189 264.747C385.589 264.747 385.06 264.583 384.601 264.256C384.142 263.929 383.788 263.437 383.541 262.782L384.518 262.505C384.874 263.313 385.42 263.716 386.158 263.716C386.513 263.716 386.81 263.611 387.048 263.398C387.283 263.185 387.402 262.916 387.402 262.591C387.402 262.398 387.339 262.202 387.214 262.006C387.09 261.811 386.936 261.65 386.751 261.523C386.565 261.396 386.274 261.25 385.874 261.084C385.475 260.918 385.166 260.767 384.95 260.63C384.733 260.492 384.547 260.33 384.387 260.142C384.227 259.954 384.114 259.765 384.04 259.579C383.966 259.391 383.93 259.191 383.93 258.977C383.93 258.464 384.136 258.028 384.548 257.666C384.96 257.304 385.46 257.123 386.048 257.123C386.44 257.123 386.833 257.207 387.235 257.377C387.634 257.542 387.967 257.8 388.234 258.144Z" fill="black"/>
<path d="M483.922 316.351H487.883V317.329H484.891V319.109H487.883V320.079H484.899V323.509H483.922V316.351V316.351Z" fill="black"/>
<path d="M489.178 316.351H490.147V322.539H492.475V323.508H489.178V316.351V316.351Z" fill="black"/>
<path d="M256.26 53.3141L261.557 58.7482V53.5961H262.534V61.0803L257.237 55.6692V60.7523H256.26V53.3141Z" fill="black"/>
<path d="M264.001 53.5951H265.736C267.109 53.5951 268.131 53.9581 268.801 54.6851C269.471 55.4122 269.806 56.2412 269.806 57.1732C269.806 58.1132 269.46 58.9442 268.767 59.6672C268.074 60.3903 267.068 60.7513 265.746 60.7513H264L264.001 53.5951ZM264.977 54.5481V59.7822H265.033C265.76 59.7822 266.306 59.7492 266.674 59.6842C267.041 59.6192 267.389 59.4762 267.719 59.2542C268.049 59.0322 268.311 58.7402 268.506 58.3752C268.701 58.0102 268.798 57.6082 268.798 57.1702C268.798 56.6192 268.642 56.1212 268.332 55.6762C268.021 55.2312 267.649 54.9311 267.217 54.7781C266.784 54.6241 266.203 54.5481 265.473 54.5481H264.977V54.5481Z" fill="black"/>
<path d="M483.742 233.269L482.95 233.904C482.741 233.686 482.551 233.523 482.381 233.416C482.211 233.311 481.965 233.257 481.645 233.257C481.293 233.257 481.008 233.336 480.791 233.494C480.572 233.654 480.463 233.859 480.463 234.109C480.463 234.326 480.559 234.517 480.749 234.684C480.938 234.851 481.265 235.033 481.725 235.23C482.184 235.427 482.541 235.611 482.798 235.781C483.054 235.953 483.264 236.14 483.428 236.345C483.593 236.552 483.715 236.769 483.795 236.997C483.876 237.226 483.916 237.467 483.916 237.722C483.916 238.318 483.699 238.824 483.267 239.243C482.834 239.661 482.311 239.872 481.698 239.872C481.097 239.872 480.568 239.708 480.109 239.381C479.65 239.054 479.296 238.562 479.049 237.907L480.026 237.63C480.382 238.438 480.928 238.841 481.666 238.841C482.021 238.841 482.317 238.736 482.556 238.523C482.792 238.31 482.91 238.041 482.91 237.716C482.91 237.523 482.847 237.327 482.722 237.131C482.598 236.936 482.444 236.775 482.259 236.648C482.074 236.521 481.781 236.375 481.382 236.209C480.983 236.043 480.674 235.892 480.457 235.755C480.241 235.617 480.055 235.455 479.895 235.267C479.735 235.079 479.623 234.89 479.547 234.704C479.475 234.516 479.438 234.316 479.438 234.102C479.438 233.589 479.644 233.153 480.056 232.791C480.468 232.429 480.968 232.248 481.557 232.248C481.947 232.248 482.341 232.332 482.744 232.502C483.143 232.667 483.477 232.925 483.742 233.269Z" fill="black"/>
<path d="M490.906 232.716V233.825C490.135 233.444 489.427 233.255 488.778 233.255C487.949 233.255 487.25 233.524 486.68 234.062C486.111 234.599 485.826 235.259 485.826 236.042C485.826 236.841 486.117 237.507 486.699 238.04C487.279 238.573 488.009 238.841 488.885 238.841C489.52 238.841 490.194 238.641 490.905 238.239V239.355C490.259 239.7 489.555 239.872 488.801 239.872C487.694 239.872 486.746 239.497 485.96 238.745C485.174 237.995 484.78 237.091 484.78 236.03C484.78 234.991 485.168 234.099 485.939 233.357C486.711 232.618 487.643 232.247 488.732 232.247C489.434 232.247 490.158 232.403 490.906 232.716Z" fill="black"/>
<path d="M491.938 204.567L497.235 210.001V204.85H498.213V212.333L492.916 206.923V212.006H491.938V204.567Z" fill="black"/>
<path d="M505.451 205.09V206.199C504.68 205.818 503.972 205.629 503.325 205.629C502.494 205.629 501.795 205.898 501.225 206.436C500.658 206.973 500.371 207.633 500.371 208.416C500.371 209.215 500.662 209.881 501.244 210.414C501.826 210.947 502.555 211.215 503.43 211.215C504.066 211.215 504.74 211.015 505.451 210.613V211.729C504.805 212.074 504.101 212.246 503.346 212.246C502.24 212.246 501.291 211.871 500.506 211.119C499.72 210.369 499.326 209.465 499.326 208.404C499.326 207.365 499.713 206.473 500.485 205.731C501.257 204.992 502.188 204.621 503.278 204.621C503.979 204.621 504.703 204.777 505.451 205.09Z" fill="black"/>
<path d="M175.887 54.2981L177.844 61.7513H176.889L175.7 57.1892L173.668 62.0243L171.627 57.1682L170.428 61.7513H169.476L171.425 54.2981L173.665 59.6272L175.887 54.2981Z" fill="black"/>
<path d="M178.429 54.5951H182.812V55.5722H181.101V61.7523H180.132V55.5722H178.429V54.5951Z" fill="black"/>
<path d="M114.977 90.8459H115.946V98.002H114.977V90.8459Z" fill="black"/>
<path d="M117.529 90.8459H119.263C120.637 90.8459 121.659 91.2089 122.328 91.9359C122.997 92.6629 123.333 93.4919 123.333 94.4239C123.333 95.364 122.987 96.195 122.294 96.918C121.601 97.641 120.595 98.002 119.274 98.002H117.528L117.529 90.8459ZM118.506 91.7989V97.033H118.562C119.289 97.033 119.835 97 120.203 96.935C120.57 96.87 120.918 96.727 121.248 96.505C121.578 96.283 121.84 95.991 122.035 95.626C122.229 95.261 122.327 94.859 122.327 94.4209C122.327 93.8699 122.172 93.3719 121.861 92.9269C121.55 92.4819 121.178 92.1819 120.746 92.0289C120.313 91.8749 119.732 91.7989 119.001 91.7989H118.506V91.7989Z" fill="black"/>
<path d="M185.988 111.823L188.289 117.114L190.448 112.112H191.461L188.293 119.479L185.986 114.175L183.683 119.479L180.515 112.112H181.524L183.695 117.162L185.988 111.823Z" fill="black"/>
<path d="M192.071 112.096H193.152L194.906 114.988L196.652 112.096H197.727L195.383 115.979V119.252H194.406V115.986L192.071 112.096Z" fill="black"/>
<path d="M203.031 171.09V172.199C202.26 171.819 201.552 171.629 200.905 171.629C200.074 171.629 199.375 171.898 198.806 172.436C198.237 172.973 197.953 173.634 197.953 174.416C197.953 175.214 198.244 175.88 198.826 176.414C199.408 176.948 200.136 177.215 201.012 177.215C201.648 177.215 202.321 177.015 203.032 176.613V177.73C202.385 178.074 201.683 178.246 200.927 178.246C199.819 178.246 198.872 177.871 198.086 177.12C197.3 176.37 196.907 175.465 196.907 174.405C196.907 173.365 197.293 172.474 198.066 171.733C198.839 170.992 199.77 170.621 200.859 170.621C201.559 170.621 202.283 170.778 203.031 171.09Z" fill="black"/>
<path d="M203.9 174.383C203.9 173.35 204.289 172.465 205.067 171.728C205.845 170.99 206.78 170.622 207.872 170.622C208.938 170.622 209.856 170.994 210.627 171.737C211.398 172.48 211.783 173.362 211.783 174.384C211.783 175.466 211.402 176.38 210.641 177.127C209.88 177.874 208.946 178.247 207.838 178.247C206.746 178.247 205.817 177.871 205.05 177.119C204.283 176.366 203.9 175.454 203.9 174.383ZM210.743 174.428C210.743 173.638 210.459 172.973 209.89 172.432C209.322 171.891 208.623 171.621 207.793 171.621C207.004 171.621 206.328 171.896 205.766 172.446C205.203 172.996 204.922 173.656 204.922 174.427C204.922 175.209 205.211 175.87 205.788 176.411C206.365 176.952 207.073 177.222 207.911 177.222C208.681 177.222 209.346 176.946 209.904 176.394C210.464 175.843 210.743 175.187 210.743 174.428Z" fill="black"/>
<path d="M406.727 153.847H407.697V161.003H406.727V153.847Z" fill="black"/>
<path d="M409.209 153.566L414.506 159V153.848H415.483V161.332L410.186 155.921V161.004H409.209V153.566Z" fill="black"/>
<path d="M439.413 149.672C439.413 148.639 439.802 147.754 440.58 147.017C441.356 146.279 442.293 145.911 443.385 145.911C444.451 145.911 445.369 146.283 446.141 147.026C446.912 147.769 447.296 148.651 447.296 149.673C447.296 150.755 446.915 151.669 446.153 152.416C445.391 153.163 444.459 153.536 443.35 153.536C442.258 153.536 441.329 153.16 440.562 152.408C439.796 151.656 439.413 150.743 439.413 149.672ZM446.257 149.717C446.257 148.927 445.973 148.262 445.403 147.721C444.835 147.18 444.135 146.91 443.306 146.91C442.517 146.91 441.841 147.185 441.28 147.735C440.717 148.285 440.435 148.945 440.435 149.716C440.435 150.498 440.723 151.159 441.301 151.7C441.879 152.241 442.586 152.511 443.424 152.511C444.194 152.511 444.858 152.235 445.416 151.683C445.978 151.132 446.257 150.476 446.257 149.717Z" fill="black"/>
<path d="M448.607 146.137H449.585V148.887H452.999V146.137H453.968V153.293H452.999V149.855H449.585V153.293H448.607V146.137Z" fill="black"/>
<path d="M513.938 93.4609L519.235 98.895V93.7419H520.213V101.226L514.916 95.815V100.898H513.938V93.4609Z" fill="black"/>
<path d="M521.24 93.7419H522.321L524.076 96.634L525.821 93.7419H526.895L524.551 97.625V100.898H523.574V97.632L521.24 93.7419Z" fill="black"/>
<path d="M531.188 38.8138L536.485 44.2479V39.0958H537.463V46.58L532.166 41.1689V46.252H531.188V38.8138Z" fill="black"/>
<path d="M538.951 39.0948H539.928V41.8449H543.342V39.0948H544.311V46.251H543.342V42.8129H539.928V46.251H538.951V39.0948Z" fill="black"/>
<path d="M566.356 47.578L568.313 55.0312H567.359L566.17 50.4691L564.139 55.3042L562.098 50.4481L560.9 55.0312H559.949L561.897 47.578L564.137 52.9071L566.356 47.578Z" fill="black"/>
<path d="M569.258 47.875H573.219V48.852H570.227V50.6331H573.219V51.6021H570.227V54.0631H573.219V55.0321H569.258V47.875Z" fill="black"/>
<path d="M466.428 169.884L468.729 175.176L470.888 170.173H471.901L468.733 177.541L466.426 172.237L464.123 177.541L460.955 170.173H461.964L464.135 175.224L466.428 169.884Z" fill="black"/>
<path d="M472.338 170.173H473.369L475.608 175.246L477.879 170.173H478.915L475.599 177.557L472.338 170.173Z" fill="black"/>
<path d="M456.156 253.739L455.43 254.45C454.701 253.737 453.856 253.381 452.898 253.381C452.06 253.381 451.362 253.652 450.804 254.19C450.246 254.729 449.967 255.404 449.967 256.211C449.967 256.919 450.238 257.557 450.78 258.124C451.321 258.69 452.067 258.975 453.018 258.975C454.446 258.975 455.342 258.353 455.709 257.109H453.779V256.131H456.826C456.826 256.622 456.793 257.014 456.726 257.306C456.661 257.598 456.525 257.92 456.32 258.273C456.115 258.627 455.841 258.941 455.498 259.22C455.155 259.499 454.788 259.699 454.396 259.82C454.004 259.938 453.539 260 452.996 260C451.761 260 450.773 259.611 450.039 258.834C449.304 258.059 448.935 257.17 448.935 256.171C448.935 255.119 449.311 254.223 450.063 253.484C450.816 252.744 451.727 252.375 452.797 252.375C453.433 252.375 454.014 252.471 454.539 252.664C455.068 252.853 455.606 253.213 456.156 253.739Z" fill="black"/>
<path d="M460.784 252.325L464.163 259.756H463.144L462.309 257.92H459.276L458.453 259.756H457.435L460.784 252.325ZM460.784 254.563L459.64 257.107H461.939L460.784 254.563Z" fill="black"/>
<path d="M367.988 97.073L370.289 102.364L372.447 97.362H373.461L370.293 104.729L367.986 99.425L365.682 104.729L362.514 97.362H363.523L365.695 102.412L367.988 97.073Z" fill="black"/>
<path d="M374.477 97.346H375.446V104.502H374.477V97.346Z" fill="black"/>
<path d="M494.477 128.847H495.915C496.727 128.847 497.382 129.038 497.88 129.42C498.377 129.802 498.626 130.297 498.626 130.908C498.626 131.522 498.362 132.036 497.838 132.452C497.313 132.868 496.516 133.07 495.446 133.058V136.003H494.476V128.847H494.477ZM495.446 129.699V132.207C496.177 132.2 496.719 132.096 497.073 131.895C497.426 131.694 497.601 131.373 497.601 130.931C497.601 130.598 497.467 130.309 497.202 130.065C496.934 129.821 496.349 129.699 495.446 129.699Z" fill="black"/>
<path d="M501.747 128.574L505.126 136.004H504.107L503.272 134.168H500.24L499.416 136.004H498.399L501.747 128.574ZM501.746 130.811L500.603 133.355H502.903L501.746 130.811Z" fill="black"/>
<path d="M541.383 150.222H543.117C544.491 150.222 545.513 150.585 546.181 151.312C546.85 152.039 547.186 152.868 547.186 153.8C547.186 154.74 546.84 155.571 546.147 156.294C545.457 157.017 544.449 157.378 543.127 157.378H541.381L541.383 150.222ZM542.359 151.175V156.409H542.417C543.144 156.409 543.689 156.376 544.058 156.311C544.424 156.246 544.773 156.103 545.103 155.881C545.432 155.66 545.695 155.367 545.889 155.002C546.083 154.637 546.181 154.235 546.181 153.797C546.181 153.246 546.026 152.748 545.714 152.303C545.403 151.858 545.032 151.558 544.599 151.405C544.167 151.251 543.585 151.175 542.855 151.175H542.359Z" fill="black"/>
<path d="M548.243 150.222H552.204V151.199H549.212V152.98H552.204V153.949H549.212V156.41H552.204V157.379H548.243V150.222Z" fill="black"/>
<path d="M579.512 82.5487L581.469 90.0019H580.514L579.326 85.4398L577.295 90.2749L575.254 85.4188L574.054 90.0019H573.103L575.052 82.5487L577.292 87.8778L579.512 82.5487Z" fill="black"/>
<path d="M585.159 82.5727L588.538 90.0029H587.519L586.684 88.1668H583.651L582.828 90.0029H581.81L585.159 82.5727ZM585.158 84.8098L584.015 87.3538H586.315L585.158 84.8098Z" fill="black"/>
<path d="M566.281 118.588V119.697C565.51 119.317 564.802 119.127 564.153 119.127C563.324 119.127 562.625 119.396 562.055 119.934C561.487 120.471 561.201 121.133 561.201 121.915C561.201 122.713 561.492 123.379 562.074 123.913C562.654 124.447 563.384 124.714 564.26 124.714C564.895 124.714 565.569 124.514 566.28 124.112V125.229C565.634 125.573 564.93 125.745 564.176 125.745C563.069 125.745 562.121 125.37 561.335 124.619C560.549 123.869 560.155 122.964 560.155 121.904C560.155 120.864 560.543 119.972 561.314 119.231C562.086 118.49 563.018 118.119 564.107 118.119C564.809 118.119 565.533 118.276 566.281 118.588Z" fill="black"/>
<path d="M567.009 118.346H571.392V119.323H569.681V125.504H568.712V119.323H567.009V118.346Z" fill="black"/>
<path d="M574.898 109.971H576.45C577.221 109.971 577.849 110.163 578.336 110.546C578.821 110.93 579.064 111.421 579.064 112.019C579.064 112.498 578.909 112.921 578.593 113.288C578.28 113.655 577.79 113.913 577.126 114.062L579.204 117.127H578.083L576.095 114.182H575.876V117.127H574.899L574.898 109.971ZM575.875 110.838V113.33C577.316 113.36 578.039 112.943 578.039 112.078C578.039 111.775 577.955 111.527 577.786 111.334C577.617 111.142 577.391 111.01 577.11 110.941C576.83 110.873 576.418 110.838 575.875 110.838Z" fill="black"/>
<path d="M580.477 109.971H581.447V117.127H580.477V109.971Z" fill="black"/>
<path d="M344.418 233.075L347.797 240.506H346.779L345.943 238.67H342.91L342.086 240.506H341.07L344.418 233.075ZM344.418 235.313L343.275 237.857H345.574L344.418 235.313Z" fill="black"/>
<path d="M348.845 233.349H350.397C351.168 233.349 351.796 233.54 352.282 233.924C352.766 234.308 353.011 234.798 353.011 235.398C353.011 235.877 352.854 236.299 352.54 236.666C352.227 237.033 351.737 237.291 351.071 237.441L353.151 240.505H352.03L350.042 237.56H349.823V240.505H348.845V233.349ZM349.82 234.216V236.708C351.262 236.737 351.984 236.321 351.984 235.456C351.984 235.153 351.9 234.905 351.732 234.712C351.562 234.521 351.337 234.389 351.056 234.319C350.777 234.251 350.365 234.216 349.82 234.216Z" fill="black"/>
<path d="M426.25 187.348H427.227V190.257L430.249 187.348H431.617L428.165 190.67L431.641 194.504H430.39L427.227 191.015V194.504H426.25V187.348Z" fill="black"/>
<path d="M432.166 187.348H433.246L435 190.24L436.746 187.348H437.821L435.477 191.231V194.504H434.5V191.238L432.166 187.348Z" fill="black"/>
<path d="M544.563 133.566L549.86 139V133.848H550.838V141.332L545.541 135.921V141.004H544.563V133.566Z" fill="black"/>
<path d="M553.959 133.863H554.936V139.107C554.936 140.533 554.342 141.246 553.156 141.246C552.745 141.246 552.339 141.139 551.936 140.926L552.419 140.129C552.733 140.238 552.989 140.293 553.19 140.293C553.705 140.293 553.961 139.949 553.961 139.26L553.959 133.863Z" fill="black"/>
<path d="M545.887 166.675L547.844 174.129H546.89L545.701 169.567L543.67 174.402L541.629 169.546L540.431 174.129H539.479L541.428 166.675L543.668 172.005L545.887 166.675Z" fill="black"/>
<path d="M548.874 166.972H550.607C551.981 166.972 553.003 167.335 553.672 168.062C554.341 168.789 554.677 169.619 554.677 170.551C554.677 171.491 554.33 172.322 553.639 173.045C552.946 173.768 551.94 174.129 550.618 174.129H548.872L548.874 166.972ZM549.851 167.925V173.16H549.908C550.635 173.16 551.18 173.127 551.549 173.062C551.918 172.997 552.265 172.854 552.594 172.632C552.924 172.411 553.186 172.118 553.381 171.753C553.575 171.388 553.673 170.986 553.673 170.548C553.673 169.997 553.518 169.499 553.207 169.053C552.894 168.608 552.522 168.308 552.092 168.155C551.658 168.001 551.077 167.925 550.347 167.925H549.851Z" fill="black"/>
<path d="M164.706 295.378H165.782L167.38 297.987L168.96 295.378H170.05L167.925 298.89L170.113 302.536H169.037L167.382 299.787L165.718 302.536H164.628L166.837 298.887L164.706 295.378Z" fill="black"/>
<path d="M162.411 295.006L164.368 302.459H163.413L162.224 297.896L160.192 302.732L158.15 297.876L156.952 302.459H156L157.949 295.006L160.189 300.335L162.411 295.006Z" fill="black"/>
</g>
<g id="lines">
	<g id="dividers">
		<path d="M17.5 299H84L110.5 315.489M236.5 386.5L196.5 352L129 327L110.5 315.489M176 403L165.5 377L119 354L110.5 315.489" fill="none" stroke="black"/>
	</g>
	<line fill="none" stroke="#000000" x1="535.375" y1="136.125" x2="543" y2="137.25"/>
	<line fill="none" stroke="#000000" x1="539.125" y1="154.25" x2="530.125" y2="155.875"/>
	<line fill="none" stroke="#000000" x1="538.125" y1="168.625" x2="512.563" y2="151.313"/>
	<line fill="none" stroke="#000000" x1="560.375" y1="117.375" x2="548.125" y2="109.5"/>
	<line fill="none" stroke="#000000" x1="571.375" y1="111.625" x2="558.375" y2="104.75"/>
	<line fill="none" stroke="#000000" x1="569.75" y1="90.5" x2="556.5" y2="96.625"/>
	<line fill="none" stroke="#000000" x1="524.625" y1="56.5" x2="536.875" y2="70"/>
	<line fill="none" stroke="#000000" x1="540.5" y1="50.875" x2="552.5" y2="79.5"/>
</g>
</svg>