<svg width="97" height="46" viewBox="0 0 97 46" fill="none" xmlns="http://www.w3.org/2000/svg">
<g clip-path="url(#clip0)">
<path d="M9.29932 7.99995C9.79932 8.29995 12.5993 9.49995 15.5993 6.59995C16.7993 5.29995 17.3993 3.39995 17.3993 3.39995C17.3993 3.39995 16.0993 3.99995 15.0993 3.59995C14.3993 3.29995 13.6993 2.49995 13.5993 2.29995C13.2993 1.89995 12.8993 1.59995 12.3993 1.39995C10.5993 0.599947 8.49932 1.39995 7.69932 3.19995C6.89932 4.99995 7.59932 7.09995 9.29932 7.99995Z" fill="#252332"/>
<path d="M21.2 22.3L18.1 12.6C17.6 11 16 9.7 13.6 9.4L3.1 7.9V1.5C3.1 0.7 2.4 0 1.5 0C0.7 0 0 0.7 0 1.5V9.2C0 10 0.6 10.6 1.3 10.7L7.4 11.6L6.8 13.8C6.4 14.8 4.8 19.8 4.7 25.1C4.7 29 7 42.9 7 42.9C7.2 44.8 9.9 44.8 9.9 42.9V27.6H11.3V42.9C11.4 44.8 14 44.8 14.2 42.9C14.2 42.9 16.5 28.9 16.4 25.1C16.3 19.4 14.3 14.7 14.1 14.3H15.5L18.3 23.2C19.1 25.3 21.9 24.5 21.2 22.3Z" fill="#252332"/>
<path d="M36.0996 18.2L33.7996 11C33.3996 9.8 32.1996 8.8 30.3996 8.6L22.4996 7.5V2.7C22.4996 2.1 21.9996 1.5 21.2996 1.5C20.6996 1.5 20.0996 2 20.0996 2.7V8.5C20.0996 9.1 20.4996 9.6 21.0996 9.6L25.6996 10.2L25.2996 11.9C24.9996 12.7 23.7996 16.4 23.6996 20.4C23.5996 23.2 25.3996 33.7 25.3996 33.7C25.4996 35.2 27.4996 35.2 27.5996 33.7V22.2H28.5996V33.7C28.5996 35.2 30.6996 35.2 30.7996 33.7C30.7996 33.7 32.4996 23.2 32.4996 20.4C32.3996 16.1 30.8996 12.6 30.7996 12.3H31.7996L33.9996 19C34.4996 20.5 36.5996 19.9 36.0996 18.2Z" fill="#252332"/>
<path d="M41.2998 6.79996C41.5998 6.99996 43.0998 7.69996 44.8998 5.99996C45.5998 5.29996 45.8998 4.19996 45.8998 4.19996C45.8998 4.19996 45.1998 4.49996 44.5998 4.29996C44.1998 4.09996 43.7998 3.69996 43.6998 3.59996C43.4998 3.39996 43.2998 3.19996 42.9998 3.09996C41.9998 2.59996 40.7998 3.09996 40.2998 4.09996C39.8998 5.19996 40.2998 6.39996 41.2998 6.79996Z" fill="#252332"/>
<path d="M48 14.9L46.3 9.40005C46 8.60005 45 7.80005 43.7 7.70005L37.8 6.90005V3.20005C37.8 2.70005 37.4 2.30005 36.9 2.30005C36.4 2.30005 36 2.70005 36 3.20005V7.60005C36 8.00005 36.3 8.40005 36.8 8.50005L40.3 9.00005L40 10.2C39.8 10.8 38.9 13.6 38.8 16.6C38.8 18.7 40.1 26.6 40.1 26.6C40.2 27.7 41.7 27.7 41.7 26.6V18H42.5V26.6C42.5 27.7 44 27.7 44.1 26.6C44.1 26.6 45.4 18.7 45.4 16.6C45.3 13.4 44.2 10.7 44.1 10.5H44.9L46.5 15.5C46.8 16.6 48.4 16.2 48 14.9Z" fill="#252332"/>
<path d="M69.1996 23.1L66.0996 13.4C65.5996 11.8 63.8996 10.5 61.4996 10.2L51.0996 8.70005V2.30005C51.0996 1.40005 50.3996 0.800049 49.5996 0.800049C48.6996 0.800049 48.0996 1.50005 48.0996 2.30005V10C48.0996 10.8 48.6996 11.4 49.3996 11.5L55.4996 12.4L54.8996 14.6C54.4996 15.6 52.8996 20.6 52.7996 25.9C52.6996 29.8 54.9996 43.7001 54.9996 43.7001C55.1996 45.6001 57.8996 45.6001 57.8996 43.7001V28.4H59.2996V43.7001C59.3996 45.6001 61.9996 45.6001 62.1996 43.7001C62.1996 43.7001 64.4996 29.7 64.3996 25.9C64.2996 20.2 62.2996 15.5 62.0996 15.1H63.4996L66.2996 24C67.0996 26.1 69.8996 25.3001 69.1996 23.1Z" fill="#252332"/>
<path d="M75.2 8.30006C75.6 8.60006 77.7 9.40006 79.9 7.20006C80.8 6.30006 81.3 4.80006 81.3 4.80006C81.3 4.80006 80.3 5.20006 79.6 4.90006C79.1 4.70006 78.6 4.10006 78.5 3.90006C78.3 3.60006 78 3.40006 77.6 3.20006C76.3 2.60006 74.7 3.20006 74 4.60006C73.4 6.10006 73.9 7.60006 75.2 8.30006Z" fill="#252332"/>
<path d="M84.0996 19L81.7996 11.7C81.3996 10.5 80.1996 9.50005 78.3996 9.30005L70.4996 8.20005V3.50005C70.4996 2.90005 69.9996 2.30005 69.2996 2.30005C68.6996 2.30005 68.0996 2.80005 68.0996 3.50005V9.30005C68.0996 9.90005 68.4996 10.4 69.0996 10.4L73.6996 11L73.2996 12.7C72.9996 13.5 71.7996 17.2001 71.6996 21.2001C71.5996 24.0001 73.3996 34.5 73.3996 34.5C73.4996 36 75.4996 36 75.5996 34.5V23H76.5996V34.5C76.5996 36 78.6996 36 78.7996 34.5C78.7996 34.5 80.4996 24.0001 80.4996 21.2001C80.3996 16.9001 78.8996 13.4 78.7996 13.1H79.7996L81.8996 19.7001C82.4996 21.3001 84.5996 20.7 84.0996 19Z" fill="#252332"/>
<path d="M96 15.7L94.3 10.2C94 9.39998 93 8.59998 91.7 8.49998L85.8 7.69998V3.99998C85.8 3.49998 85.4 3.09998 84.9 3.09998C84.4 3.19998 84 3.49998 84 3.99998V8.39998C84 8.79998 84.3 9.19998 84.7 9.29998L88.2 9.79998L87.9 11C87.7 11.6 86.8 14.4 86.7 17.4C86.7 19.5 88 27.4 88 27.4C88.1 28.5 89.6 28.5 89.6 27.4V18.8H90.4V27.4C90.4 28.5 91.9 28.5 92 27.4C92 27.4 93.3 19.5 93.3 17.4C93.2 14.2 92.1 11.5 92 11.3H92.8L94.4 16.3C94.8 17.4 96.4 17 96 15.7Z" fill="#252332"/>
<path d="M28.7992 7.89995C30.2352 7.89995 31.3992 6.73589 31.3992 5.29995C31.3992 3.86401 30.2352 2.69995 28.7992 2.69995C27.3633 2.69995 26.1992 3.86401 26.1992 5.29995C26.1992 6.73589 27.3633 7.89995 28.7992 7.89995Z" fill="#252332"/>
<path d="M90.6 8.00005C91.7598 8.00005 92.7 7.05985 92.7 5.90005C92.7 4.74025 91.7598 3.80005 90.6 3.80005C89.4402 3.80005 88.5 4.74025 88.5 5.90005C88.5 7.05985 89.4402 8.00005 90.6 8.00005Z" fill="#252332"/>
<path d="M59.2008 9.49995C61.3547 9.49995 63.1008 7.75386 63.1008 5.59995C63.1008 3.44604 61.3547 1.69995 59.2008 1.69995C57.0469 1.69995 55.3008 3.44604 55.3008 5.59995C55.3008 7.75386 57.0469 9.49995 59.2008 9.49995Z" fill="#252332"/>
</g>
<defs>
<clipPath id="clip0">
<rect width="96.1" height="45.2" fill="white"/>
</clipPath>
</defs>
</svg>
