<svg width="442" height="316" viewBox="0 0 442 316" fill="none" xmlns="http://www.w3.org/2000/svg">
<circle cx="284.5" cy="31.5" r="31.5" fill="#FCABF2"/>
<circle cx="284.5" cy="31.5" r="31.5" fill="#FCABF2"/>
<circle cx="347.5" cy="31.5" r="31.5" fill="#FCABF2"/>
<circle cx="347.5" cy="31.5" r="31.5" fill="#73E3F2"/>
<ellipse cx="158" cy="31.5" rx="32" ry="31.5" fill="#FCABF2"/>
<ellipse cx="158" cy="31.5" rx="32" ry="31.5" fill="#FCABF2"/>
<ellipse cx="32" cy="31.5" rx="32" ry="31.5" fill="#FCABF2"/>
<ellipse cx="32" cy="31.5" rx="32" ry="31.5" fill="#FCABF2"/>
<circle cx="221.5" cy="31.5" r="31.5" fill="#FCABF2"/>
<circle cx="221.5" cy="31.5" r="31.5" fill="#73E3F2"/>
<ellipse cx="95" cy="31.5" rx="31" ry="31.5" fill="#FCABF2"/>
<ellipse cx="95" cy="31.5" rx="31" ry="31.5" fill="#73E3F2"/>
<circle cx="284.5" cy="94.5" r="31.5" fill="#FCABF2"/>
<circle cx="284.5" cy="94.5" r="31.5" fill="#FF5E6B"/>
<ellipse cx="284.5" cy="221" rx="31.5" ry="32" fill="#FCABF2"/>
<ellipse cx="284.5" cy="221" rx="31.5" ry="32" fill="#FF5E6B"/>
<circle cx="347.5" cy="94.5" r="31.5" fill="#FCABF2"/>
<circle cx="347.5" cy="94.5" r="31.5" fill="#FF5E6B"/>
<ellipse cx="347.5" cy="221" rx="31.5" ry="32" fill="#FCABF2"/>
<ellipse cx="347.5" cy="221" rx="31.5" ry="32" fill="#FF5E6B"/>
<circle cx="410.5" cy="94.5" r="31.5" fill="#FCABF2"/>
<circle cx="410.5" cy="94.5" r="31.5" fill="#FF5E6B"/>
<ellipse cx="410.5" cy="221" rx="31.5" ry="32" fill="#FCABF2"/>
<ellipse cx="410.5" cy="221" rx="31.5" ry="32" fill="#FF5E6B"/>
<ellipse cx="158" cy="94.5" rx="32" ry="31.5" fill="#FCABF2"/>
<ellipse cx="158" cy="94.5" rx="32" ry="31.5" fill="#FF5E6B"/>
<circle cx="158" cy="221" r="32" fill="#FCABF2"/>
<circle cx="158" cy="221" r="32" fill="#FF5E6B"/>
<ellipse cx="32" cy="94.5" rx="32" ry="31.5" fill="#FCABF2"/>
<ellipse cx="32" cy="94.5" rx="32" ry="31.5" fill="#FF5E6B"/>
<circle cx="32" cy="221" r="32" fill="#FCABF2"/>
<circle cx="32" cy="221" r="32" fill="#FF5E6B"/>
<circle cx="221.5" cy="94.5" r="31.5" fill="#FCABF2"/>
<circle cx="221.5" cy="94.5" r="31.5" fill="#FF5E6B"/>
<ellipse cx="221.5" cy="221" rx="31.5" ry="32" fill="#FCABF2"/>
<ellipse cx="221.5" cy="221" rx="31.5" ry="32" fill="#FF5E6B"/>
<ellipse cx="95" cy="94.5" rx="31" ry="31.5" fill="#FCABF2"/>
<ellipse cx="95" cy="94.5" rx="31" ry="31.5" fill="#FF5E6B"/>
<ellipse cx="95" cy="221" rx="31" ry="32" fill="#FCABF2"/>
<ellipse cx="95" cy="221" rx="31" ry="32" fill="#FF5E6B"/>
<circle cx="284.5" cy="157.5" r="31.5" fill="#73E3F2"/>
<circle cx="284.5" cy="157.5" r="31.5" fill="#FCABF2"/>
<circle cx="347.5" cy="157.5" r="31.5" fill="#73E3F2"/>
<circle cx="347.5" cy="157.5" r="31.5" fill="#73E3F2"/>
<circle cx="410.5" cy="157.5" r="31.5" fill="#73E3F2"/>
<circle cx="410.5" cy="157.5" r="31.5" fill="#FCABF2"/>
<ellipse cx="158" cy="157.5" rx="32" ry="31.5" fill="#73E3F2"/>
<ellipse cx="158" cy="157.5" rx="32" ry="31.5" fill="#FCABF2"/>
<ellipse cx="32" cy="157.5" rx="32" ry="31.5" fill="#73E3F2"/>
<ellipse cx="32" cy="157.5" rx="32" ry="31.5" fill="#FCABF2"/>
<circle cx="221.5" cy="157.5" r="31.5" fill="#73E3F2"/>
<circle cx="221.5" cy="157.5" r="31.5" fill="#73E3F2"/>
<ellipse cx="95" cy="157.5" rx="31" ry="31.5" fill="#73E3F2"/>
<ellipse cx="95" cy="157.5" rx="31" ry="31.5" fill="#73E3F2"/>
<circle cx="284.5" cy="284.5" r="31.5" fill="#73E3F2"/>
<circle cx="284.5" cy="284.5" r="31.5" fill="#FCABF2"/>
<circle cx="347.5" cy="284.5" r="31.5" fill="#73E3F2"/>
<circle cx="347.5" cy="284.5" r="31.5" fill="#73E3F2"/>
<circle cx="410.5" cy="284.5" r="31.5" fill="#73E3F2"/>
<circle cx="410.5" cy="284.5" r="31.5" fill="#FCABF2"/>
<ellipse cx="158" cy="284.5" rx="32" ry="31.5" fill="#73E3F2"/>
<ellipse cx="158" cy="284.5" rx="32" ry="31.5" fill="#FCABF2"/>
<ellipse cx="32" cy="284.5" rx="32" ry="31.5" fill="#73E3F2"/>
<ellipse cx="32" cy="284.5" rx="32" ry="31.5" fill="#FCABF2"/>
<circle cx="221.5" cy="284.5" r="31.5" fill="#73E3F2"/>
<circle cx="221.5" cy="284.5" r="31.5" fill="#73E3F2"/>
<ellipse cx="95" cy="284.5" rx="31" ry="31.5" fill="#73E3F2"/>
<ellipse cx="95" cy="284.5" rx="31" ry="31.5" fill="#73E3F2"/>
<path d="M407.464 30.2855V12.9795H413.612V33.2458L403.441 43.4169L398.887 38.8627L407.464 30.2855Z" fill="#252332"/>
<path fill-rule="evenodd" clip-rule="evenodd" d="M407.464 30.2855V12.9795H413.612V33.2458L403.441 43.4169L398.887 38.8627L407.464 30.2855Z" fill="#252332"/>
<path d="M410.5 63C427.897 63 442 48.897 442 31.5H435.548C435.548 45.3337 424.334 56.5482 410.5 56.5482C396.666 56.5482 385.452 45.3337 385.452 31.5C385.452 17.6663 396.666 6.45181 410.5 6.45181C418.172 6.45181 425.038 9.90068 429.632 15.3325L422.991 21.9741H433.673H440.534H441.587V3.37771L434.207 10.7577C428.433 4.16395 419.953 0 410.5 0C393.103 0 379 14.103 379 31.5C379 48.897 393.103 63 410.5 63Z" fill="#252332"/>
</svg>
