<svg width="345" height="346" viewBox="0 0 345 346" fill="none" xmlns="http://www.w3.org/2000/svg">
<path d="M81.8179 130.099C81.8179 151.231 64.6866 168.362 43.5542 168.362C22.4218 168.362 5.29054 151.231 5.29054 130.099C5.29054 108.966 22.4218 91.8349 43.5542 91.8349C64.6866 91.8349 81.8179 108.966 81.8179 130.099Z" fill="#FF5E6B"/>
<path d="M74.0295 160.445C69.934 164.54 65.1569 167.711 59.8323 169.871C54.6902 171.956 49.258 173.014 43.686 173.014C38.1141 173.014 32.6819 171.956 27.5397 169.871C22.2142 167.712 17.438 164.54 13.3426 160.445C9.24718 156.349 6.07615 151.572 3.91619 146.248C1.83106 141.105 0.773438 135.673 0.773438 130.101C0.773438 124.529 1.83106 119.097 3.91619 113.955C6.07523 108.629 9.24719 103.853 13.3426 99.7578C17.4381 95.6624 22.2151 92.4914 27.5398 90.3314C32.6819 88.2463 38.1141 87.1887 43.686 87.1887C49.2579 87.1887 54.6902 88.2463 59.8323 90.3314C65.1579 92.4905 69.934 95.6624 74.0295 99.7578C78.1249 103.853 81.2959 108.63 83.4559 113.955C85.541 119.097 86.5987 124.529 86.5987 130.101C86.5987 135.673 85.541 141.105 83.4559 146.248C81.2969 151.573 78.1249 156.349 74.0295 160.445ZM18.1389 104.554C11.315 111.378 7.55718 120.45 7.55718 130.101C7.55718 139.752 11.315 148.825 18.1389 155.648C24.9628 162.472 34.0351 166.23 43.686 166.23C53.337 166.23 62.4093 162.472 69.2332 155.648C76.0571 148.825 79.8149 139.752 79.8149 130.101C79.8149 120.45 76.0571 111.378 69.2332 104.554C62.4093 97.7302 53.337 93.9724 43.686 93.9724C34.0351 93.9724 24.9628 97.7302 18.1389 104.554Z" fill="#FCABF2"/>
<path d="M68.7103 100.279L13.6528 155.336L18.45 160.133L73.5075 105.076L68.7103 100.279Z" fill="#FCABF2"/>
<path d="M167.695 130.099C167.695 151.231 150.564 168.362 129.431 168.362C108.299 168.362 91.1675 151.231 91.1675 130.099C91.1675 108.966 108.299 91.8349 129.431 91.8349C150.564 91.8349 167.695 108.966 167.695 130.099Z" fill="#4759CC"/>
<path d="M159.906 160.445C155.811 164.54 151.034 167.711 145.709 169.871C140.567 171.956 135.135 173.014 129.563 173.014C123.991 173.014 118.559 171.956 113.417 169.871C108.091 167.712 103.315 164.54 99.2196 160.445C95.1241 156.349 91.9531 151.572 89.7931 146.248C87.708 141.105 86.6504 135.673 86.6504 130.101C86.6504 124.529 87.708 119.097 89.7931 113.955C91.9522 108.629 95.1241 103.853 99.2196 99.7578C103.315 95.6624 108.092 92.4914 113.417 90.3314C118.559 88.2463 123.991 87.1887 129.563 87.1887C135.135 87.1887 140.567 88.2463 145.709 90.3314C151.035 92.4905 155.811 95.6624 159.906 99.7578C164.002 103.853 167.173 108.63 169.333 113.955C171.418 119.097 172.476 124.529 172.476 130.101C172.476 135.673 171.418 141.105 169.333 146.248C167.174 151.573 164.002 156.349 159.906 160.445ZM104.016 104.554C97.1919 111.378 93.4341 120.45 93.4341 130.101C93.4341 139.752 97.1919 148.825 104.016 155.648C110.84 162.472 119.912 166.23 129.563 166.23C139.214 166.23 148.286 162.472 155.11 155.648C161.934 148.825 165.692 139.752 165.692 130.101C165.692 120.45 161.934 111.378 155.11 104.554C148.286 97.7302 139.214 93.9724 129.563 93.9724C119.912 93.9724 110.84 97.7302 104.016 104.554Z" fill="#FCABF2"/>
<path d="M154.587 100.279L99.5298 155.336L104.327 160.133L159.384 105.076L154.587 100.279Z" fill="#FCABF2"/>
<path d="M253.572 130.099C253.572 151.231 236.441 168.362 215.308 168.362C194.176 168.362 177.044 151.231 177.044 130.099C177.044 108.966 194.176 91.8349 215.308 91.8349C236.441 91.8349 253.572 108.966 253.572 130.099Z" fill="#73E3F2"/>
<path d="M245.783 160.445C241.688 164.54 236.911 167.711 231.586 169.871C226.444 171.956 221.012 173.014 215.44 173.014C209.868 173.014 204.436 171.956 199.294 169.871C193.968 167.712 189.192 164.54 185.097 160.445C181.001 156.349 177.83 151.572 175.67 146.248C173.585 141.105 172.527 135.673 172.527 130.101C172.527 124.529 173.585 119.097 175.67 113.955C177.829 108.629 181.001 103.853 185.097 99.7578C189.192 95.6624 193.969 92.4914 199.294 90.3314C204.436 88.2463 209.868 87.1887 215.44 87.1887C221.012 87.1887 226.444 88.2463 231.586 90.3314C236.912 92.4905 241.688 95.6624 245.783 99.7578C249.879 103.853 253.05 108.63 255.21 113.955C257.295 119.097 258.353 124.529 258.353 130.101C258.353 135.673 257.295 141.105 255.21 146.248C253.051 151.573 249.879 156.349 245.783 160.445ZM189.893 104.554C183.069 111.378 179.311 120.45 179.311 130.101C179.311 139.752 183.069 148.825 189.893 155.648C196.717 162.472 205.789 166.23 215.44 166.23C225.091 166.23 234.163 162.472 240.987 155.648C247.811 148.825 251.569 139.752 251.569 130.101C251.569 120.45 247.811 111.378 240.987 104.554C234.163 97.7302 225.091 93.9724 215.44 93.9724C205.789 93.9724 196.717 97.7302 189.893 104.554Z" fill="#FCABF2"/>
<path d="M211.942 91.2742V169.137H218.727L218.727 91.2742H211.942Z" fill="#FCABF2"/>
<path d="M339.451 130.099C339.451 151.231 322.32 168.362 301.188 168.362C280.055 168.362 262.924 151.231 262.924 130.099C262.924 108.966 280.055 91.8349 301.188 91.8349C322.32 91.8349 339.451 108.966 339.451 130.099Z" fill="#FF5E6B"/>
<path d="M331.662 160.445C327.567 164.54 322.79 167.711 317.465 169.871C312.323 171.956 306.891 173.014 301.319 173.014C295.747 173.014 290.315 171.956 285.173 169.871C279.847 167.712 275.071 164.54 270.975 160.445C266.88 156.349 263.709 151.572 261.549 146.248C259.464 141.105 258.406 135.673 258.406 130.101C258.406 124.529 259.464 119.097 261.549 113.955C263.708 108.629 266.88 103.853 270.975 99.7578C275.071 95.6624 279.848 92.4914 285.173 90.3314C290.315 88.2463 295.747 87.1887 301.319 87.1887C306.891 87.1887 312.323 88.2463 317.465 90.3314C322.791 92.4905 327.567 95.6624 331.662 99.7578C335.758 103.853 338.929 108.63 341.089 113.955C343.174 119.097 344.231 124.529 344.231 130.101C344.231 135.673 343.174 141.105 341.089 146.248C338.93 151.573 335.758 156.349 331.662 160.445ZM275.772 104.554C268.948 111.378 265.19 120.45 265.19 130.101C265.19 139.752 268.948 148.825 275.772 155.648C282.596 162.472 291.668 166.23 301.319 166.23C310.97 166.23 320.042 162.472 326.866 155.648C333.69 148.825 337.448 139.752 337.448 130.101C337.448 120.45 333.69 111.378 326.866 104.554C320.042 97.7302 310.97 93.9724 301.319 93.9724C291.668 93.9724 282.596 97.7302 275.772 104.554Z" fill="#FCABF2"/>
<path d="M278.81 98.1862L317.741 165.618L323.617 162.225L284.685 94.7941L278.81 98.1862Z" fill="#FCABF2"/>
<path d="M43.6827 5.55519C64.8152 5.55519 81.9464 22.6864 81.9464 43.8189C81.9464 64.9513 64.8152 82.0825 43.6827 82.0825C22.5503 82.0825 5.41906 64.9513 5.41906 43.8189C5.41906 22.6864 22.5503 5.55519 43.6827 5.55519Z" fill="#73E3F2"/>
<path d="M74.0295 13.3436C78.1249 17.439 81.2959 22.2161 83.4559 27.5407C85.541 32.6828 86.5987 38.1151 86.5987 43.687C86.5987 49.2589 85.541 54.6912 83.4559 59.8333C81.2969 65.1588 78.1249 69.935 74.0295 74.0304C69.934 78.1259 65.1569 81.2969 59.8323 83.4569C54.6902 85.542 49.2579 86.5996 43.686 86.5996C38.1141 86.5996 32.6819 85.542 27.5398 83.4569C22.2142 81.2978 17.438 78.1259 13.3426 74.0304C9.24718 69.935 6.07614 65.1579 3.91618 59.8333C1.83105 54.6912 0.773438 49.2589 0.773438 43.687C0.773437 38.1151 1.83106 32.6828 3.91619 27.5407C6.07523 22.2152 9.24718 17.439 13.3426 13.3436C17.438 9.24817 22.2151 6.07713 27.5397 3.91717C32.6819 1.83204 38.1141 0.774414 43.686 0.774414C49.258 0.774414 54.6902 1.83203 59.8323 3.91716C65.1579 6.0762 69.934 9.24816 74.0295 13.3436ZM18.1389 69.2342C24.9628 76.0581 34.0351 79.8159 43.686 79.8159C53.337 79.8159 62.4093 76.0581 69.2332 69.2342C76.0571 62.4103 79.8149 53.3379 79.8149 43.687C79.8149 34.0361 76.0571 24.9637 69.2332 18.1398C62.4093 11.316 53.337 7.55816 43.686 7.55816C34.0351 7.55816 24.9628 11.316 18.1389 18.1399C11.315 24.9637 7.55718 34.0361 7.55718 43.687C7.55718 53.3379 11.315 62.4103 18.1389 69.2342Z" fill="#FCABF2"/>
<path d="M13.8629 18.6626L68.9203 73.7201L73.7175 68.9229L18.66 13.8655L13.8629 18.6626Z" fill="#FCABF2"/>
<path d="M167.695 43.6845C167.695 64.8169 150.564 81.9482 129.431 81.9482C108.299 81.9482 91.1675 64.8169 91.1675 43.6845C91.1675 22.5521 108.299 5.42084 129.431 5.42084C150.564 5.42084 167.695 22.5521 167.695 43.6845Z" fill="#FF5E6B"/>
<path d="M159.906 74.0306C155.811 78.1261 151.034 81.2971 145.709 83.4571C140.567 85.5422 135.135 86.5998 129.563 86.5998C123.991 86.5998 118.559 85.5422 113.417 83.4571C108.091 81.298 103.315 78.1261 99.2196 74.0306C95.1241 69.9352 91.9531 65.1581 89.7931 59.8335C87.708 54.6914 86.6504 49.2591 86.6504 43.6872C86.6504 38.1153 87.708 32.683 89.7931 27.5409C91.9522 22.2154 95.1241 17.4392 99.2196 13.3438C103.315 9.24833 108.092 6.0773 113.417 3.91734C118.559 1.83221 123.991 0.774593 129.563 0.774593C135.135 0.774593 140.567 1.83221 145.709 3.91734C151.035 6.07639 155.811 9.24834 159.906 13.3438C164.002 17.4392 167.173 22.2163 169.333 27.5409C171.418 32.683 172.476 38.1153 172.476 43.6872C172.476 49.2591 171.418 54.6914 169.333 59.8335C167.174 65.159 164.002 69.9352 159.906 74.0306ZM104.016 18.14C97.1919 24.9639 93.4341 34.0363 93.4341 43.6872C93.4341 53.3381 97.1919 62.4105 104.016 69.2344C110.84 76.0583 119.912 79.8161 129.563 79.8161C139.214 79.8161 148.286 76.0583 155.11 69.2344C161.934 62.4105 165.692 53.3381 165.692 43.6872C165.692 34.0363 161.934 24.9639 155.11 18.14C148.286 11.3161 139.214 7.55833 129.563 7.55833C119.912 7.55833 110.84 11.3161 104.016 18.14Z" fill="#FCABF2"/>
<path d="M154.587 13.8645L99.5298 68.922L104.327 73.7191L159.384 18.6617L154.587 13.8645Z" fill="#FCABF2"/>
<path d="M253.572 43.6845C253.572 64.8169 236.441 81.9482 215.308 81.9482C194.176 81.9482 177.044 64.8169 177.044 43.6845C177.044 22.5521 194.176 5.42084 215.308 5.42084C236.441 5.42084 253.572 22.5521 253.572 43.6845Z" fill="#40C2B0"/>
<path d="M245.783 74.0306C241.688 78.1261 236.911 81.2971 231.586 83.4571C226.444 85.5422 221.012 86.5998 215.44 86.5998C209.868 86.5998 204.436 85.5422 199.294 83.4571C193.968 81.298 189.192 78.1261 185.097 74.0306C181.001 69.9352 177.83 65.1581 175.67 59.8335C173.585 54.6914 172.527 49.2591 172.527 43.6872C172.527 38.1153 173.585 32.683 175.67 27.5409C177.829 22.2154 181.001 17.4392 185.097 13.3438C189.192 9.24833 193.969 6.0773 199.294 3.91734C204.436 1.83221 209.868 0.774593 215.44 0.774593C221.012 0.774593 226.444 1.83221 231.586 3.91734C236.912 6.07639 241.688 9.24834 245.783 13.3438C249.879 17.4392 253.05 22.2163 255.21 27.5409C257.295 32.683 258.353 38.1153 258.353 43.6872C258.353 49.2591 257.295 54.6914 255.21 59.8335C253.051 65.159 249.879 69.9352 245.783 74.0306ZM189.893 18.14C183.069 24.9639 179.311 34.0363 179.311 43.6872C179.311 53.3381 183.069 62.4105 189.893 69.2344C196.717 76.0583 205.789 79.8161 215.44 79.8161C225.091 79.8161 234.163 76.0583 240.987 69.2344C247.811 62.4105 251.569 53.3381 251.569 43.6872C251.569 34.0363 247.811 24.9639 240.987 18.14C234.163 11.3161 225.091 7.55833 215.44 7.55833C205.789 7.55833 196.717 11.3161 189.893 18.14Z" fill="#FCABF2"/>
<path d="M240.464 13.8645L185.407 68.922L190.204 73.7191L245.261 18.6617L240.464 13.8645Z" fill="#FCABF2"/>
<path d="M81.8179 302.721C81.8179 323.854 64.6866 340.985 43.5542 340.985C22.4218 340.985 5.29054 323.854 5.29054 302.721C5.29054 281.589 22.4218 264.457 43.5542 264.457C64.6866 264.457 81.8179 281.589 81.8179 302.721Z" fill="#FF5E6B"/>
<path d="M74.0295 333.067C69.934 337.163 65.1569 340.334 59.8323 342.494C54.6902 344.579 49.258 345.636 43.686 345.636C38.1141 345.636 32.6819 344.579 27.5397 342.494C22.2142 340.335 17.438 337.163 13.3426 333.067C9.24718 328.972 6.07615 324.195 3.91619 318.87C1.83106 313.728 0.773438 308.296 0.773438 302.724C0.773438 297.152 1.83106 291.72 3.91619 286.578C6.07523 281.252 9.24719 276.476 13.3426 272.38C17.4381 268.285 22.2151 265.114 27.5398 262.954C32.6819 260.869 38.1141 259.811 43.686 259.811C49.2579 259.811 54.6902 260.869 59.8323 262.954C65.1579 265.113 69.934 268.285 74.0295 272.38C78.1249 276.476 81.2959 281.253 83.4559 286.578C85.541 291.72 86.5987 297.152 86.5987 302.724C86.5987 308.296 85.541 313.728 83.4559 318.87C81.2969 324.196 78.1249 328.972 74.0295 333.067ZM18.1389 277.177C11.315 284.001 7.55718 293.073 7.55718 302.724C7.55718 312.375 11.315 321.447 18.1389 328.271C24.9628 335.095 34.0351 338.853 43.686 338.853C53.337 338.853 62.4093 335.095 69.2332 328.271C76.0571 321.447 79.8149 312.375 79.8149 302.724C79.8149 293.073 76.0571 284.001 69.2332 277.177C62.4093 270.353 53.337 266.595 43.686 266.595C34.0351 266.595 24.9628 270.353 18.1389 277.177Z" fill="#FCABF2"/>
<path d="M82.5122 299.436H4.6492V306.22H82.5122V299.436Z" fill="#FCABF2"/>
<path d="M167.695 302.721C167.695 323.854 150.564 340.985 129.431 340.985C108.299 340.985 91.1675 323.854 91.1675 302.721C91.1675 281.589 108.299 264.457 129.431 264.457C150.564 264.457 167.695 281.589 167.695 302.721Z" fill="#73E3F2"/>
<path d="M159.906 333.067C155.811 337.163 151.034 340.334 145.709 342.494C140.567 344.579 135.135 345.636 129.563 345.636C123.991 345.636 118.559 344.579 113.417 342.494C108.091 340.335 103.315 337.163 99.2196 333.067C95.1241 328.972 91.9531 324.195 89.7931 318.87C87.708 313.728 86.6504 308.296 86.6504 302.724C86.6504 297.152 87.708 291.72 89.7931 286.578C91.9522 281.252 95.1241 276.476 99.2196 272.38C103.315 268.285 108.092 265.114 113.417 262.954C118.559 260.869 123.991 259.811 129.563 259.811C135.135 259.811 140.567 260.869 145.709 262.954C151.035 265.113 155.811 268.285 159.906 272.38C164.002 276.476 167.173 281.253 169.333 286.578C171.418 291.72 172.476 297.152 172.476 302.724C172.476 308.296 171.418 313.728 169.333 318.87C167.174 324.196 164.002 328.972 159.906 333.067ZM104.016 277.177C97.1919 284.001 93.4341 293.073 93.4341 302.724C93.4341 312.375 97.1919 321.447 104.016 328.271C110.84 335.095 119.912 338.853 129.563 338.853C139.214 338.853 148.286 335.095 155.11 328.271C161.934 321.447 165.692 312.375 165.692 302.724C165.692 293.073 161.934 284.001 155.11 277.177C148.286 270.353 139.214 266.595 129.563 266.595C119.912 266.595 110.84 270.353 104.016 277.177Z" fill="#FCABF2"/>
<path d="M154.587 272.901L99.5298 327.959L104.327 332.756L159.384 277.698L154.587 272.901Z" fill="#FCABF2"/>
<path d="M253.572 302.721C253.572 323.854 236.441 340.985 215.308 340.985C194.176 340.985 177.044 323.854 177.044 302.721C177.044 281.589 194.176 264.457 215.308 264.457C236.441 264.457 253.572 281.589 253.572 302.721Z" fill="#4759CC"/>
<path d="M245.783 333.067C241.688 337.163 236.911 340.334 231.586 342.494C226.444 344.579 221.012 345.636 215.44 345.636C209.868 345.636 204.436 344.579 199.294 342.494C193.968 340.335 189.192 337.163 185.097 333.067C181.001 328.972 177.83 324.195 175.67 318.87C173.585 313.728 172.527 308.296 172.527 302.724C172.527 297.152 173.585 291.72 175.67 286.578C177.829 281.252 181.001 276.476 185.097 272.38C189.192 268.285 193.969 265.114 199.294 262.954C204.436 260.869 209.868 259.811 215.44 259.811C221.012 259.811 226.444 260.869 231.586 262.954C236.912 265.113 241.688 268.285 245.783 272.38C249.879 276.476 253.05 281.253 255.21 286.578C257.295 291.72 258.353 297.152 258.353 302.724C258.353 308.296 257.295 313.728 255.21 318.87C253.051 324.196 249.879 328.972 245.783 333.067ZM189.893 277.177C183.069 284.001 179.311 293.073 179.311 302.724C179.311 312.375 183.069 321.447 189.893 328.271C196.717 335.095 205.789 338.853 215.44 338.853C225.091 338.853 234.163 335.095 240.987 328.271C247.811 321.447 251.569 312.375 251.569 302.724C251.569 293.073 247.811 284.001 240.987 277.177C234.163 270.353 225.091 266.595 215.44 266.595C205.789 266.595 196.717 270.353 189.893 277.177Z" fill="#FCABF2"/>
<path d="M211.942 263.897V341.76H218.727L218.727 263.897H211.942Z" fill="#FCABF2"/>
<path d="M339.451 302.721C339.451 323.854 322.32 340.985 301.188 340.985C280.055 340.985 262.924 323.854 262.924 302.721C262.924 281.589 280.055 264.457 301.188 264.457C322.32 264.457 339.451 281.589 339.451 302.721Z" fill="#40C2B0"/>
<path d="M331.662 333.067C327.567 337.163 322.79 340.334 317.465 342.494C312.323 344.579 306.891 345.636 301.319 345.636C295.747 345.636 290.315 344.579 285.173 342.494C279.847 340.335 275.071 337.163 270.975 333.067C266.88 328.972 263.709 324.195 261.549 318.87C259.464 313.728 258.406 308.296 258.406 302.724C258.406 297.152 259.464 291.72 261.549 286.578C263.708 281.252 266.88 276.476 270.975 272.38C275.071 268.285 279.848 265.114 285.173 262.954C290.315 260.869 295.747 259.811 301.319 259.811C306.891 259.811 312.323 260.869 317.465 262.954C322.791 265.113 327.567 268.285 331.662 272.38C335.758 276.476 338.929 281.253 341.089 286.578C343.174 291.72 344.231 297.152 344.231 302.724C344.231 308.296 343.174 313.728 341.089 318.87C338.93 324.196 335.758 328.972 331.662 333.067ZM275.772 277.177C268.948 284.001 265.19 293.073 265.19 302.724C265.19 312.375 268.948 321.447 275.772 328.271C282.596 335.095 291.668 338.853 301.319 338.853C310.97 338.853 320.042 335.095 326.866 328.271C333.69 321.447 337.448 312.375 337.448 302.724C337.448 293.073 333.69 284.001 326.866 277.177C320.042 270.353 310.97 266.595 301.319 266.595C291.668 266.595 282.596 270.353 275.772 277.177Z" fill="#FCABF2"/>
<path d="M278.81 270.809L317.741 338.24L323.617 334.848L284.685 267.417L278.81 270.809Z" fill="#FCABF2"/>
<path d="M43.6827 178.178C64.8152 178.178 81.9464 195.309 81.9464 216.442C81.9464 237.574 64.8152 254.706 43.6827 254.706C22.5503 254.706 5.41906 237.574 5.41906 216.442C5.41906 195.309 22.5503 178.178 43.6827 178.178Z" fill="#73E3F2"/>
<path d="M74.0295 185.967C78.1249 190.062 81.2959 194.839 83.4559 200.164C85.541 205.306 86.5987 210.738 86.5987 216.31C86.5987 221.882 85.541 227.314 83.4559 232.456C81.2969 237.782 78.1249 242.558 74.0295 246.653C69.934 250.749 65.1569 253.92 59.8323 256.08C54.6902 258.165 49.2579 259.223 43.686 259.223C38.1141 259.223 32.6819 258.165 27.5398 256.08C22.2142 253.921 17.438 250.749 13.3426 246.653C9.24718 242.558 6.07614 237.781 3.91618 232.456C1.83105 227.314 0.773438 221.882 0.773438 216.31C0.773437 210.738 1.83106 205.306 3.91619 200.164C6.07523 194.838 9.24718 190.062 13.3426 185.967C17.438 181.871 22.2151 178.7 27.5397 176.54C32.6819 174.455 38.1141 173.397 43.686 173.397C49.258 173.397 54.6902 174.455 59.8323 176.54C65.1579 178.699 69.934 181.871 74.0295 185.967ZM18.1389 241.857C24.9628 248.681 34.0351 252.439 43.686 252.439C53.337 252.439 62.4093 248.681 69.2332 241.857C76.0571 235.033 79.8149 225.961 79.8149 216.31C79.8149 206.659 76.0571 197.587 69.2332 190.763C62.4093 183.939 53.337 180.181 43.686 180.181C34.0351 180.181 24.9628 183.939 18.1389 190.763C11.315 197.587 7.55718 206.659 7.55718 216.31C7.55718 225.961 11.315 235.033 18.1389 241.857Z" fill="#FCABF2"/>
<path d="M13.8629 191.286L68.9203 246.343L73.7175 241.546L18.66 186.488L13.8629 191.286Z" fill="#FCABF2"/>
<path d="M167.695 216.307C167.695 237.44 150.564 254.571 129.431 254.571C108.299 254.571 91.1675 237.44 91.1675 216.307C91.1675 195.175 108.299 178.043 129.431 178.043C150.564 178.043 167.695 195.175 167.695 216.307Z" fill="#40C2B0"/>
<path d="M159.906 246.653C155.811 250.749 151.034 253.92 145.709 256.08C140.567 258.165 135.135 259.222 129.563 259.222C123.991 259.222 118.559 258.165 113.417 256.08C108.091 253.921 103.315 250.749 99.2196 246.653C95.1241 242.558 91.9531 237.781 89.7931 232.456C87.708 227.314 86.6504 221.882 86.6504 216.31C86.6504 210.738 87.708 205.306 89.7931 200.163C91.9522 194.838 95.1241 190.062 99.2196 185.966C103.315 181.871 108.092 178.7 113.417 176.54C118.559 174.455 123.991 173.397 129.563 173.397C135.135 173.397 140.567 174.455 145.709 176.54C151.035 178.699 155.811 181.871 159.906 185.966C164.002 190.062 167.173 194.839 169.333 200.163C171.418 205.306 172.476 210.738 172.476 216.31C172.476 221.882 171.418 227.314 169.333 232.456C167.174 237.782 164.002 242.558 159.906 246.653ZM104.016 190.763C97.1919 197.586 93.4341 206.659 93.4341 216.31C93.4341 225.961 97.1919 235.033 104.016 241.857C110.84 248.681 119.912 252.439 129.563 252.439C139.214 252.439 148.286 248.681 155.11 241.857C161.934 235.033 165.692 225.961 165.692 216.31C165.692 206.659 161.934 197.586 155.11 190.763C148.286 183.939 139.214 180.181 129.563 180.181C119.912 180.181 110.84 183.939 104.016 190.763Z" fill="#FCABF2"/>
<path d="M126.065 177.483L126.065 255.346H132.85V177.483H126.065Z" fill="#FCABF2"/>
<path d="M253.572 216.307C253.572 237.44 236.441 254.571 215.308 254.571C194.176 254.571 177.044 237.44 177.044 216.307C177.044 195.175 194.176 178.043 215.308 178.043C236.441 178.043 253.572 195.175 253.572 216.307Z" fill="#73E3F2"/>
<path d="M245.783 246.653C241.688 250.749 236.911 253.92 231.586 256.08C226.444 258.165 221.012 259.222 215.44 259.222C209.868 259.222 204.436 258.165 199.294 256.08C193.968 253.921 189.192 250.749 185.097 246.653C181.001 242.558 177.83 237.781 175.67 232.456C173.585 227.314 172.527 221.882 172.527 216.31C172.527 210.738 173.585 205.306 175.67 200.163C177.829 194.838 181.001 190.062 185.097 185.966C189.192 181.871 193.969 178.7 199.294 176.54C204.436 174.455 209.868 173.397 215.44 173.397C221.012 173.397 226.444 174.455 231.586 176.54C236.912 178.699 241.688 181.871 245.783 185.966C249.879 190.062 253.05 194.839 255.21 200.163C257.295 205.306 258.353 210.738 258.353 216.31C258.353 221.882 257.295 227.314 255.21 232.456C253.051 237.782 249.879 242.558 245.783 246.653ZM189.893 190.763C183.069 197.586 179.311 206.659 179.311 216.31C179.311 225.961 183.069 235.033 189.893 241.857C196.717 248.681 205.789 252.439 215.44 252.439C225.091 252.439 234.163 248.681 240.987 241.857C247.811 235.033 251.569 225.961 251.569 216.31C251.569 206.659 247.811 197.586 240.987 190.763C234.163 183.939 225.091 180.181 215.44 180.181C205.789 180.181 196.717 183.939 189.893 190.763Z" fill="#FCABF2"/>
<path d="M240.464 186.487L185.407 241.545L190.204 246.342L245.261 191.284L240.464 186.487Z" fill="#FCABF2"/>
<path d="M339.451 216.307C339.451 237.44 322.32 254.571 301.188 254.571C280.055 254.571 262.924 237.44 262.924 216.307C262.924 195.175 280.055 178.043 301.188 178.043C322.32 178.043 339.451 195.175 339.451 216.307Z" fill="#73E3F2"/>
<path d="M331.662 246.653C327.567 250.749 322.79 253.92 317.465 256.08C312.323 258.165 306.891 259.222 301.319 259.222C295.747 259.222 290.315 258.165 285.173 256.08C279.847 253.921 275.071 250.749 270.975 246.653C266.88 242.558 263.709 237.781 261.549 232.456C259.464 227.314 258.406 221.882 258.406 216.31C258.406 210.738 259.464 205.306 261.549 200.163C263.708 194.838 266.88 190.062 270.975 185.966C275.071 181.871 279.848 178.7 285.173 176.54C290.315 174.455 295.747 173.397 301.319 173.397C306.891 173.397 312.323 174.455 317.465 176.54C322.791 178.699 327.567 181.871 331.662 185.966C335.758 190.062 338.929 194.839 341.089 200.163C343.174 205.306 344.231 210.738 344.231 216.31C344.231 221.882 343.174 227.314 341.089 232.456C338.93 237.782 335.758 242.558 331.662 246.653ZM275.772 190.763C268.948 197.586 265.19 206.659 265.19 216.31C265.19 225.961 268.948 235.033 275.772 241.857C282.596 248.681 291.668 252.439 301.319 252.439C310.97 252.439 320.042 248.681 326.866 241.857C333.69 235.033 337.448 225.961 337.448 216.31C337.448 206.659 333.69 197.586 326.866 190.763C320.042 183.939 310.97 180.181 301.319 180.181C291.668 180.181 282.596 183.939 275.772 190.763Z" fill="#FCABF2"/>
<path d="M340.144 213.022H262.281V219.806H340.144V213.022Z" fill="#FCABF2"/>
<path d="M296.404 42.8614V19.512H304.699V46.8554L290.976 60.5783L284.831 54.4337L296.404 42.8614Z" fill="#252332"/>
<path fill-rule="evenodd" clip-rule="evenodd" d="M296.404 42.8614V19.512H304.699V46.8554L290.976 60.5783L284.831 54.4337L296.404 42.8614Z" fill="#252332"/>
<path d="M300.5 87C323.972 87 343 67.9721 343 44.5H334.295C334.295 63.1646 319.165 78.2952 300.5 78.2952C281.835 78.2952 266.705 63.1646 266.705 44.5C266.705 25.8354 281.835 10.7048 300.5 10.7048C310.851 10.7048 320.114 15.3581 326.314 22.6867L317.353 31.6476H331.765H341.022H342.443V6.55723L332.486 16.5144C324.696 7.61803 313.254 2 300.5 2C277.028 2 258 21.0279 258 44.5C258 67.9721 277.028 87 300.5 87Z" fill="#252332"/>
</svg>
