<svg width="20" height="20" viewBox="0 0 20 20" fill="none" xmlns="http://www.w3.org/2000/svg">
<path fill-rule="evenodd" clip-rule="evenodd" d="M10 20C15.5228 20 20 15.5228 20 10H18.1013C18.1013 14.4742 14.4742 18.1013 10 18.1013C5.52579 18.1013 1.89873 14.4742 1.89873 10C1.89873 5.52579 5.52579 1.89873 10 1.89873C12.4996 1.89873 14.7348 3.03077 16.2208 4.81013C16.7561 5.451 17.1942 6.17585 17.5124 6.96203H19.5302C19.1097 5.6417 18.4224 4.4404 17.5316 3.42147C15.6986 1.32455 13.004 0 10 0C4.47715 0 0 4.47715 0 10C0 15.5228 4.47715 20 10 20Z" fill="#252332"/>
<path d="M20 1.01266L17.5316 3.42147C18.4224 4.4404 19.1097 5.6417 19.5302 6.96203H20V1.01266Z" fill="#252332"/>
<path d="M16.2208 4.81013L14.0506 6.96203H17.5124C17.1942 6.17585 16.7561 5.451 16.2208 4.81013Z" fill="#252332"/>
<path d="M9.05063 4.05063H11.0127V10.5063L7.72152 13.6709L6.39241 12.2785L9.05063 9.62025V4.05063Z" fill="#252332"/>
</svg>
