<svg width="1440" height="304" viewBox="0 0 1440 304" fill="none" xmlns="http://www.w3.org/2000/svg">
<path d="M-9.11347 16.3024L82.3061 16.1345L82.2965 2.89045L-9.12305 3.05832L-9.11347 16.3024ZM-9.09801 42.5075L82.3216 42.3396L82.3701 29.208L-9.04957 29.3758L-9.09801 42.5075ZM-9.02837 68.542L82.3913 68.3742L82.4398 55.2424L-8.9798 55.4103L-9.02837 68.542ZM-9.0129 94.7471L82.4067 94.5792L82.3971 81.3352L-9.02258 81.5031L-9.0129 94.7471ZM-8.94322 120.782L82.4764 120.614L82.5249 107.482L-8.89471 107.65L-8.94322 120.782ZM-8.92781 146.987L82.4918 146.819L82.5402 133.687L-8.87933 133.855L-8.92781 146.987ZM-8.85812 173.021L82.5615 172.853L82.61 159.722L-8.80956 159.89L-8.85812 173.021ZM-8.84271 199.226L82.5769 199.059L82.6253 185.927L-8.79423 186.095L-8.84271 199.226ZM-8.77302 225.261L82.6466 225.093L82.6951 211.961L-8.72455 212.129L-8.77302 225.261ZM-8.75765 251.466L82.662 251.298L82.7105 238.167L-8.70913 238.334L-8.75765 251.466ZM-8.68793 277.5L82.7317 277.333L82.7802 264.201L-8.63946 264.369L-8.68793 277.5ZM-8.67255 303.706L82.7471 303.538L82.7375 290.294L-8.68213 290.462L-8.67255 303.706ZM206.702 126.828C206.565 58.2319 150.961 2.81975 82.2965 2.89045L82.662 251.298C151.268 251.115 206.781 195.312 206.702 126.828ZM272.723 224.145L285.686 224.131L285.692 237.092L272.729 237.106L272.723 224.145ZM272.681 250.238L285.644 250.223L285.649 263.184L272.686 263.199L272.681 250.238ZM272.808 276.385L285.771 276.37L285.777 289.331L272.814 289.346L272.808 276.385ZM298.762 224.058L311.725 224.043L311.731 237.004L298.768 237.019L298.762 224.058ZM298.89 250.205L311.853 250.19L311.858 263.151L298.895 263.166L298.89 250.205ZM298.847 276.297L311.81 276.283L311.816 289.244L298.853 289.258L298.847 276.297ZM324.971 224.025L337.934 224.01L337.94 236.971L324.977 236.986L324.971 224.025ZM324.928 250.117L337.891 250.103L337.897 263.064L324.934 263.079L324.928 250.117ZM325.056 276.264L338.019 276.25L338.025 289.211L325.062 289.225L325.056 276.264ZM259.69 302.55L442.754 302.098L442.803 288.966L351.271 289.192L351.265 276.231L442.797 276.005L442.846 262.874L351.314 263.1L351.308 250.139L442.84 249.912L442.888 236.781L351.356 237.007L351.35 224.046L442.882 223.82L442.873 210.576L351.341 210.802L351.055 1.67271L337.809 1.6913L338.095 210.82L325.132 210.835L324.846 1.70582L311.712 1.66612L311.998 210.795L299.035 210.81L298.749 1.68069L285.503 1.6992L285.789 210.828L272.826 210.843L272.54 1.71371L259.294 1.7323L259.626 289.477L259.69 302.55ZM586.655 93.4091C612.015 93.3881 633.723 120.474 641.994 158.504L586.746 158.61L586.655 93.4091ZM586.809 171.683L644.321 171.545C644.832 175.839 645.173 180.079 645.459 184.49L586.815 184.644L586.809 171.683ZM586.825 197.888L645.639 197.788C645.569 200.959 645.626 205.203 645.645 210.749L586.831 210.85L586.825 197.888ZM586.782 223.981L645.426 223.826C645.422 227.675 645.367 231.978 645.432 236.788L586.788 236.942L586.782 223.981ZM658.763 184.583C656.163 126.38 624.685 80.1336 586.703 80.2775L586.639 67.204C633.34 67.106 671.434 117.051 671.646 178.627L671.68 181.174C671.671 193.003 671.818 220.565 670.999 302.192L684.191 302.344C684.839 220.663 684.804 193.043 684.814 181.213L684.779 178.667C684.697 109.901 640.633 53.9281 586.688 54.0725L586.628 41.2819C647.877 41.2034 697.708 96.7544 697.845 165.35L697.883 168.18C697.947 181.253 697.966 211.873 697.096 302.217L710.287 302.369C711.27 211.967 711.193 181.235 711.129 168.161L711.091 165.332C710.913 89.4916 655.112 27.913 586.676 28.1503L586.612 15.0768C662.239 14.9637 723.866 76.2331 723.928 151.848L723.971 154.961C723.995 169.337 724.052 202.786 722.963 302.076L736.155 302.228C737.356 202.88 737.241 169.318 737.216 154.942L737.174 151.83C737.071 68.9705 669.475 1.67328 586.603 1.8328L586.661 1.94518L495.129 2.17125L495.384 158.89L495.336 172.022L495.341 184.983L495.293 198.115L495.299 211.076L495.25 224.207L495.265 250.412L495.39 301.35L586.922 301.124L586.798 250.186L645.441 250.032C645.346 263.9 645.239 281.051 645.131 302.333L658.265 302.373L658.763 184.583ZM968.646 14.0597L1060.18 13.8336L1060.17 0.589635L968.636 0.81567L968.646 14.0597ZM968.661 40.2647L1060.19 40.0387L1060.24 26.907L968.71 27.1332L968.661 40.2647ZM968.731 66.2994L1060.26 66.0732L1060.31 52.9416L968.779 53.1678L968.731 66.2994ZM968.746 92.5044L1060.28 92.2783L1060.27 79.0343L968.737 79.2604L968.746 92.5044ZM968.816 118.539L1060.35 118.313L1060.4 105.181L968.864 105.407L968.816 118.539ZM968.831 144.744L1060.36 144.518L1060.41 131.386L968.88 131.612L968.831 144.744ZM789.421 1.26962L789.872 301.917L803.118 301.898L802.629 23.4951L815.604 45.271L815.969 301.942L829.102 301.982L828.754 67.384L841.729 89.16L842.065 301.967L855.311 301.949L854.991 111.215L867.966 132.991L868.274 301.934L881.408 301.974L881.116 155.104L968.866 301.862L1060 301.698L1059.89 301.474L1060.45 301.466L1060.5 288.334L1052.12 288.397L1044.42 275.432L1060.49 275.373L1060.54 262.241L1036.6 262.242L1028.89 249.277L1060.54 249.28L1060.59 236.148L1021.13 236.2L1013.43 223.235L1060.69 223.129L1060.74 209.997L1005.66 210.158L997.959 197.193L1060.74 197.037L1060.73 183.792L990.138 184.004L982.434 171.039L1060.72 170.831L1060.77 157.7L974.613 157.849L881.419 1.94249L881.465 1.20601L789.421 1.26962ZM1370.72 222.344L1440.18 222.148L1440.17 208.904L1370.94 208.983C1339.07 209.097 1311.14 182.666 1311.1 150.348C1311 117.919 1336.97 91.5139 1368.84 91.4003L1440.05 91.2934L1440.1 78.1618L1368.88 78.2688C1329.71 78.3163 1298 110.689 1298.03 150.421C1297.94 190.211 1331.61 222.503 1370.72 222.344ZM1368.98 248.46L1440.19 248.353L1440.24 235.222L1369.03 235.329C1322.9 235.419 1285.42 197.408 1285.41 150.544C1285.28 103.738 1322.8 65.51 1368.77 65.3658L1439.98 65.2589L1440.03 52.1272L1368.82 52.2341C1315.55 52.3123 1272.22 96.3963 1272.27 150.504C1272.21 204.67 1315.6 248.597 1368.98 248.46ZM1369 274.665L1440.21 274.559L1440.26 261.427L1369.5 261.584C1309.38 261.646 1260.37 212.083 1260.28 151.014C1260.19 89.9454 1308.98 39.6143 1369.21 39.4937L1439.97 39.3367L1440.02 26.205L1368.8 26.312C1301.62 26.7579 1247.13 82.8865 1247.31 151.029C1247.16 219.063 1301.8 274.545 1369 274.665ZM1440.28 300.593L1440.33 287.461L1369.12 287.568C1293.49 287.681 1231.8 226.3 1231.74 150.684C1231.68 75.069 1293.11 13.3516 1368.74 13.2385L1439.95 13.1316L1440 0L1368.79 0.106909C1285.92 0.266426 1218.56 67.8975 1218.67 150.757C1218.77 233.616 1286.37 300.914 1369.24 300.754L1440.28 300.593Z" fill="#FCAAF2"/>
</svg>
