<svg width="83" height="59" viewBox="0 0 83 59" fill="none" xmlns="http://www.w3.org/2000/svg">
<path d="M29.129 0L37.3763 11.8C28.3686 18.7274 22.7533 23.8935 20.5307 27.2985C24.5081 27.4159 27.9006 28.9423 30.7082 31.8776C33.5159 34.8129 34.9197 38.2766 34.9197 42.2687C34.9197 46.8478 33.2234 50.7811 29.8309 54.0687C26.4383 57.3562 22.4024 59 17.723 59C12.5758 59 8.30585 57.1801 4.91332 53.5403C1.63777 49.9005 0 45.3214 0 39.803C0 26.0657 9.70965 12.798 29.129 0ZM66.1543 27.2985C70.1318 27.4159 73.5243 28.9423 76.3319 31.8776C79.1395 34.8129 80.5433 38.2766 80.5433 42.2687C80.5433 46.8478 78.8471 50.7811 75.4546 54.0687C72.062 57.3562 68.0261 59 63.3467 59C58.1994 59 53.9295 57.1801 50.537 53.5403C47.2615 49.9005 45.6237 45.3214 45.6237 39.803C45.6237 26.0657 55.3333 12.798 74.7526 0L83 11.8C73.9922 18.7274 68.377 23.8935 66.1543 27.2985Z" fill="#FCAAF2"/>
</svg>
