<svg width="54" height="54" viewBox="0 0 54 54" fill="none" xmlns="http://www.w3.org/2000/svg">
<path d="M51 27C51 40.2548 40.2548 51 27 51C13.7452 51 3 40.2548 3 27C3 13.7452 13.7452 3 27 3C40.2548 3 51 13.7452 51 27Z" fill="#4759CC"/>
<path fill-rule="evenodd" clip-rule="evenodd" d="M54 27C54 41.9117 41.9117 54 27 54C12.0883 54 0 41.9117 0 27C0 12.0883 12.0883 0 27 0C41.9117 0 54 12.0883 54 27ZM27 51C40.2548 51 51 40.2548 51 27C51 13.7452 40.2548 3 27 3C13.7452 3 3 13.7452 3 27C3 40.2548 13.7452 51 27 51Z" fill="#73E3F2"/>
<path d="M29.2355 31.8959H24.4195V30.2439C24.4195 28.6385 24.9795 27.2946 26.0995 26.2119C26.2861 26.0439 26.6221 25.7452 27.1075 25.3159C27.5928 24.8866 27.9475 24.5599 28.1715 24.3359C28.3955 24.1119 28.6101 23.8132 28.8155 23.4399C29.0395 23.0665 29.1515 22.7119 29.1515 22.3759C29.1515 21.8159 28.9648 21.3772 28.5915 21.0599C28.2181 20.7239 27.7235 20.5559 27.1075 20.5559C25.8195 20.5559 24.4568 21.4146 23.0195 23.1319L19.9395 19.7439C21.9181 17.1679 24.4475 15.8799 27.5275 15.8799C29.6928 15.8799 31.4008 16.4679 32.6515 17.6439C33.9208 18.8199 34.5555 20.2759 34.5555 22.0119C34.5555 23.6545 33.9301 25.0639 32.6795 26.2399C32.5301 26.3706 32.2221 26.6319 31.7555 27.0239C31.3075 27.4159 30.9808 27.7146 30.7755 27.9199C30.5701 28.1066 30.3181 28.3679 30.0195 28.7039C29.7395 29.0212 29.5341 29.3386 29.4035 29.6559C29.2915 29.9546 29.2355 30.2719 29.2355 30.6079V31.8959ZM26.9115 38.3639C26.1648 38.3639 25.5208 38.1119 24.9795 37.6079C24.4568 37.0852 24.1955 36.4412 24.1955 35.6759C24.1955 34.9292 24.4568 34.3039 24.9795 33.7999C25.5021 33.2772 26.1461 33.0159 26.9115 33.0159C27.6581 33.0159 28.2835 33.2772 28.7875 33.7999C29.2915 34.3039 29.5435 34.9292 29.5435 35.6759C29.5435 36.4412 29.2821 37.0852 28.7595 37.6079C28.2555 38.1119 27.6395 38.3639 26.9115 38.3639Z" fill="white"/>
</svg>
