<svg width="8" height="13" viewBox="0 0 8 13" fill="none" xmlns="http://www.w3.org/2000/svg">
<path d="M0.792625 0.798485C0.698973 0.891371 0.624641 1.00188 0.573914 1.12364C0.523187 1.2454 0.49707 1.376 0.49707 1.5079C0.49707 1.6398 0.523187 1.7704 0.573914 1.89216C0.624641 2.01392 0.698973 2.12443 0.792625 2.21731L5.08908 6.50378L0.792625 10.7902C0.604476 10.9784 0.498776 11.2336 0.498776 11.4997C0.498776 11.7657 0.604476 12.0209 0.792625 12.2091C0.980774 12.3972 1.23596 12.5029 1.50204 12.5029C1.76812 12.5029 2.02331 12.3972 2.21146 12.2091L7.20734 7.2132C7.30099 7.12031 7.37532 7.0098 7.42605 6.88804C7.47678 6.76628 7.50289 6.63569 7.50289 6.50378C7.50289 6.37188 7.47678 6.24128 7.42605 6.11952C7.37532 5.99776 7.30099 5.88725 7.20734 5.79437L2.21146 0.798485C2.11857 0.704833 2.00806 0.630499 1.8863 0.579772C1.76454 0.529045 1.63394 0.50293 1.50204 0.50293C1.37014 0.50293 1.23954 0.529045 1.11778 0.579772C0.996021 0.630499 0.885511 0.704834 0.792625 0.798485Z" fill="white"/>
</svg>
