<svg width="35" height="35" viewBox="0 0 35 35" fill="none" xmlns="http://www.w3.org/2000/svg">
<path d="M18.3223 13.0651H24.9546C25.148 13.0651 25.3046 13.2218 25.3046 13.4151C25.3046 13.6083 25.148 13.7651 24.9546 13.7651H18.3223C18.1289 13.7651 17.9723 13.6083 17.9723 13.4151C17.9723 13.2218 18.1289 13.0651 18.3223 13.0651ZM11.2024 9.06228V7.26682C11.2024 7.07354 11.3591 6.91682 11.5524 6.91682H23.4466C23.64 6.91682 23.7966 7.07354 23.7966 7.26682V9.06228C23.7966 9.25557 23.64 9.41228 23.4466 9.41228H11.5524C11.3591 9.41228 11.2024 9.25557 11.2024 9.06228ZM11.9024 8.71228H23.0966V7.61682H11.9024V8.71228ZM25.1945 26.0803H18.5623C18.3688 26.0803 18.2123 26.2369 18.2123 26.4303C18.2123 26.6238 18.3688 26.7803 18.5623 26.7803H25.1945C25.388 26.7803 25.5445 26.6238 25.5445 26.4303C25.5445 26.2369 25.388 26.0803 25.1945 26.0803ZM28.1729 4.81768V30.1819C28.1729 30.5678 27.8588 30.8819 27.4729 30.8819H7.52617C7.14011 30.8819 6.82617 30.5678 6.82617 30.1819V4.81768C6.82617 4.43162 7.14011 4.11768 7.52617 4.11768H27.4729C27.8588 4.11768 28.1729 4.43162 28.1729 4.81768ZM27.4736 30.1819L27.4729 4.81768H7.52617V30.1819H27.4736ZM25.1945 22.5181H18.5623C18.3688 22.5181 18.2123 22.6747 18.2123 22.8681C18.2123 23.0616 18.3688 23.2181 18.5623 23.2181H25.1945C25.388 23.2181 25.5445 23.0616 25.5445 22.8681C25.5445 22.6747 25.388 22.5181 25.1945 22.5181ZM10.2323 17.8844C9.51663 17.1685 9.51663 16.0038 10.2323 15.2879L13.0124 12.5079C13.7281 11.7919 14.8933 11.7919 15.609 12.5079C15.9557 12.8547 16.1468 13.3158 16.1468 13.8062C16.1468 14.2967 15.9557 14.7578 15.609 15.1044L12.829 17.8844C12.4822 18.2312 12.0211 18.4222 11.5307 18.4222C11.0402 18.4222 10.5791 18.2312 10.2323 17.8844ZM12.3647 14.1454L13.9715 15.752L15.1141 14.6095C15.3287 14.3948 15.4468 14.1096 15.4468 13.8062C15.4468 13.5027 15.3285 13.2175 15.1141 13.0029C14.6711 12.5599 13.9502 12.5599 13.5073 13.0029L12.3647 14.1454ZM10.7273 17.3895C11.1702 17.8324 11.8911 17.8324 12.3341 17.3895L13.4766 16.2469L11.8698 14.6403L10.7273 15.7829C10.2845 16.2258 10.2845 16.9465 10.7273 17.3895ZM24.9546 17.3273C25.148 17.3273 25.3046 17.1706 25.3046 16.9773C25.3046 16.784 25.148 16.6273 24.9546 16.6273H18.3223C18.1289 16.6273 17.9723 16.784 17.9723 16.9773C17.9723 17.1706 18.1289 17.3273 18.3223 17.3273H24.9546ZM16.7815 24.4175C16.9428 24.9801 16.8753 25.5721 16.5915 26.0841V26.0844C16.3074 26.5965 15.8412 26.9673 15.2785 27.1286C15.078 27.1861 14.874 27.2144 14.6713 27.2144C14.3042 27.2144 13.9412 27.1215 13.6115 26.9383C13.2599 26.7434 12.9849 26.4644 12.7932 26.1413C12.4592 26.3475 12.0673 26.4686 11.6467 26.4686C10.4379 26.4686 9.45459 25.4853 9.45459 24.2767C9.45459 23.0677 10.4379 22.0844 11.6467 22.0844C12.4457 22.0844 13.1443 22.5156 13.5273 23.1563C14.1796 22.7571 15.0222 22.7086 15.7372 23.1043C16.2493 23.3884 16.6202 23.8546 16.7815 24.4175ZM11.2967 22.8302C10.6431 22.9888 10.1546 23.5751 10.1546 24.2767C10.1546 24.9783 10.6431 25.5643 11.2967 25.7228V22.8302ZM12.9842 23.6283C12.7918 23.2331 12.4329 22.9361 11.9967 22.8302V25.7228C12.1936 25.675 12.374 25.5883 12.5319 25.4709C12.427 24.9732 12.4918 24.4375 12.7572 23.9588C12.8234 23.8395 12.9003 23.73 12.9842 23.6283ZM13.6671 26.1163L15.0708 23.5847C14.9408 23.5488 14.8085 23.5299 14.6769 23.5299C14.1517 23.5299 13.6416 23.8071 13.3694 24.2982C13.0292 24.9115 13.1723 25.6609 13.6671 26.1163ZM16.1087 24.6103C16.0319 24.3425 15.882 24.11 15.6818 23.9265L14.2792 26.4562C14.5411 26.5291 14.8177 26.5331 15.0855 26.4556C15.4685 26.3459 15.786 26.0933 15.9793 25.745C16.1724 25.3964 16.2184 24.9934 16.1087 24.6103Z" fill="black"/>
<rect width="21.3468" height="26.7642" transform="translate(4.25 2.3999) rotate(-2)" fill="white"/>
<path d="M16.0514 10.9406L22.6796 10.7092C22.873 10.7024 23.0349 10.8536 23.0416 11.0467C23.0484 11.2399 22.8974 11.402 22.704 11.4087L16.0759 11.6402C15.8825 11.647 15.7206 11.4958 15.7139 11.3026C15.7071 11.1095 15.8581 10.9474 16.0514 10.9406ZM8.7961 7.18877L8.73343 5.3944C8.72669 5.20123 8.87784 5.03915 9.07101 5.0324L20.958 4.6173C21.1513 4.61055 21.3132 4.7617 21.32 4.95487L21.3826 6.74924C21.3894 6.94241 21.2384 7.10449 21.045 7.11124L9.1581 7.52634C8.96493 7.53309 8.80284 7.38194 8.7961 7.18877ZM9.48345 6.81455L20.6708 6.42388L20.6326 5.32909L9.44522 5.71976L9.48345 6.81455ZM23.3736 23.7082L16.7454 23.9396C16.5521 23.9464 16.4011 24.1083 16.4079 24.3016C16.4146 24.495 16.5765 24.6459 16.7699 24.6392L23.3981 24.4077C23.5914 24.401 23.7424 24.2391 23.7356 24.0457C23.7289 23.8524 23.567 23.7014 23.3736 23.7082ZM25.6082 2.35449L26.4934 27.7033C26.5068 28.0889 26.2039 28.4138 25.8182 28.4273L5.88363 29.1234C5.49781 29.1369 5.1731 28.8339 5.15963 28.4483L4.27443 3.09948C4.26096 2.71365 4.56375 2.38895 4.94957 2.37547L24.8842 1.67934C25.2698 1.66587 25.5947 1.96866 25.6082 2.35449ZM25.7945 27.7277L24.9086 2.37891L4.974 3.07505L5.8592 28.4238L25.7945 27.7277ZM23.2493 20.1481L16.6211 20.3796C16.4278 20.3863 16.2768 20.5482 16.2836 20.7416C16.2903 20.9349 16.4522 21.0859 16.6456 21.0792L23.2737 20.8477C23.4671 20.8409 23.6181 20.679 23.6113 20.4857C23.6046 20.2923 23.4427 20.1414 23.2493 20.1481ZM8.13455 16.0394C7.39428 15.3489 7.35364 14.1849 8.04394 13.4445L10.7252 10.5692C11.4155 9.82855 12.58 9.78789 13.3203 10.4785C13.6789 10.813 13.886 11.2671 13.9031 11.7573C13.9202 12.2475 13.7453 12.7149 13.4109 13.0734L10.7296 15.9487C10.3952 16.3074 9.94103 16.5144 9.45085 16.5315C8.96067 16.5487 8.4932 16.3738 8.13455 16.0394ZM10.1352 12.2282L11.797 13.7778L12.899 12.5961C13.106 12.3741 13.2141 12.0849 13.2035 11.7817C13.1929 11.4784 13.0648 11.1975 12.8429 10.9904C12.3848 10.5632 11.6644 10.5883 11.2371 11.0465L10.1352 12.2282ZM8.6119 15.5275C9.07006 15.9547 9.79047 15.9296 10.2177 15.4714L11.3197 14.2897L9.6578 12.7401L8.55583 13.9218C8.12876 14.38 8.15391 15.1002 8.6119 15.5275ZM22.8284 14.9688C23.0217 14.962 23.1727 14.7999 23.1659 14.6068C23.1592 14.4136 22.9973 14.2625 22.8039 14.2692L16.1757 14.5007C15.9824 14.5074 15.8314 14.6695 15.8382 14.8627C15.8449 15.0558 16.0068 15.207 16.2002 15.2002L22.8284 14.9688ZM14.9077 22.3399C15.0886 22.8966 15.0418 23.4905 14.776 24.0122L14.776 24.0125C14.51 24.5341 14.057 24.921 13.5002 25.1019C13.3019 25.1663 13.0989 25.2017 12.8964 25.2088C12.5295 25.2216 12.1635 25.1414 11.8276 24.9698C11.4695 24.7873 11.1848 24.5181 10.982 24.2019C10.6554 24.4196 10.2679 24.5543 9.84763 24.569C8.63961 24.6112 7.62254 23.6628 7.58036 22.4549C7.53817 21.2467 8.4866 20.2296 9.69463 20.1874C10.4932 20.1596 11.2063 20.5661 11.6115 21.193C12.2494 20.7713 13.0899 20.6935 13.8182 21.064C14.34 21.33 14.7269 21.783 14.9077 22.3399ZM9.37087 20.9451C8.72322 21.1263 8.25544 21.7293 8.27993 22.4305C8.30442 23.1316 8.81311 23.7003 9.47182 23.8359L9.37087 20.9451ZM11.0852 21.6837C10.8791 21.2955 10.5101 21.0112 10.0704 20.9206L10.1714 23.8114C10.3665 23.7568 10.5437 23.6638 10.6974 23.541C10.5753 23.0472 10.6213 22.5096 10.8699 22.022C10.9319 21.9004 11.0049 21.7883 11.0852 21.6837ZM11.8545 24.1464L13.169 21.5673C13.0378 21.536 12.905 21.5217 12.7734 21.5263C12.2486 21.5446 11.7484 21.8394 11.4935 22.3398C11.1749 22.9646 11.3441 23.7085 11.8545 24.1464ZM14.242 22.5561C14.156 22.2911 13.9981 22.064 13.7915 21.8876L12.4781 24.4647C12.7423 24.5284 13.0189 24.5227 13.2839 24.436C13.6628 24.313 13.9713 24.0495 14.1524 23.6947C14.3332 23.3395 14.3651 22.9352 14.242 22.5561Z" fill="black"/>
</svg>
