<svg width="29" height="35" viewBox="0 0 29 35" fill="none" xmlns="http://www.w3.org/2000/svg">
<path d="M14.3176 35C14.0509 35 13.7831 34.92 13.5546 34.7575C0.996443 25.9137 0 17.3088 0 6.97625C0 6.3225 0.455832 5.7575 1.08859 5.63625C7.90642 4.30875 13.4821 0.29625 13.5374 0.255C14.0043 -0.085 14.6333 -0.085 15.099 0.255C15.1543 0.295 20.7299 4.30875 27.5478 5.63625C28.1805 5.75875 28.6364 6.3225 28.6364 6.97625C28.6364 17.3088 27.6387 25.9137 15.0818 34.7575C14.852 34.92 14.5842 35 14.3176 35ZM2.68708 8.0825C2.75957 17.4375 3.91328 24.3563 14.3176 31.965C24.7219 24.3563 25.8756 17.4375 25.9481 8.0825C20.5039 6.80375 16.0586 4.15 14.3176 3.0075C12.5766 4.15 8.13127 6.80375 2.68708 8.0825Z" fill="#252332"/>
<path d="M13.4682 22.2728C13.0264 22.2728 12.5884 22.1094 12.2492 21.7837L7.68087 17.3826C6.99499 16.7226 6.98373 15.6411 7.65709 14.9676C8.32919 14.2953 9.43185 14.283 10.1177 14.9443L13.4557 18.1593L20.0967 11.637C20.7763 10.9696 21.8789 10.9696 22.5586 11.637C23.2382 12.3043 23.2382 13.3871 22.5586 14.0545L14.6986 21.7714C14.3581 22.1045 13.9126 22.2728 13.4682 22.2728Z" fill="#252332"/>
</svg>
