<svg width="443" height="273" viewBox="0 0 443 273" fill="none" xmlns="http://www.w3.org/2000/svg">
<path d="M360.349 111.619L358.141 113.432L357.886 112.113L360.349 111.619ZM220.438 82.8889L219.851 85.244L221.054 92.3149L228.301 111.864L258.267 111.156C258.267 111.156 259.222 112.108 259.487 112.369L262.08 108.057C260.238 106.085 259.866 104.83 260.831 103.942C261.091 103.703 263.029 100.917 263.029 100.917H266.881L268.146 98.2906L260.719 90.2468L259.453 83.9415L258.069 82.8889H220.438ZM355.124 112.666L347.267 114.245L346.516 111.422C346.329 112.379 345.781 115.144 345.781 115.144L337.404 122.757L335.54 128.727V131.593L340.251 137.585L342.635 138.759L351.792 134.033L354.972 120.854L356.502 121.428C357.779 121.906 358.587 122.22 359.106 122.438C359.942 121.561 361.575 119.657 362.976 117.93L363.987 113.193L362.467 113.416L356.248 118.52L355.124 112.666ZM290.283 96.9402C289.651 95.558 288.877 93.8939 288.12 92.2618L268.124 93.9099L271.417 97.9291L268.7 103.58H264.582C264.226 104.091 263.757 104.755 263.339 105.255C263.65 105.702 265.559 107.669 265.559 107.669L261.408 114.586C261.617 115.303 262.238 120.216 262.334 120.705C263.097 121.242 268.124 124.075 268.124 124.075L269.033 128.392L270.107 127.398L273.756 131.843L271.66 136.473L278.636 142.231L279.924 146.926H280.133L282.33 145.262L284.866 146.016L287.905 141.115V135.841L291.543 129.679L290.306 126.914L290.283 96.9402ZM290.735 138.829L294.509 136.213L297.824 138.175L305.151 135.75L309.85 127.148L313.307 126L310.031 96.6479L293.328 96.8392C293.255 96.9934 293.193 97.1263 293.113 97.2699L293.136 126.601L294.712 129.764L290.735 136.511V138.829ZM307.145 137.909L297.463 141.115L294.622 139.435L290.385 142.375L286.171 149.174L282.929 148.217L282.5 148.542L284.211 151.088L283.946 151.716C283.737 152.221 283.539 152.662 283.353 153.05L287.668 152.598L289.843 150.934L327.531 147.021L337.427 138.451L332.716 132.465V129.264L329.937 127.611L326.35 129.535L319.882 128.042L318.03 125.07L316.002 124.65L316.358 127.802L311.85 129.302L307.145 137.909ZM250.105 68.8002C251.217 69.4382 253.867 71.3734 261.283 77.2375L262.142 77.918L260.346 81.2088L262.029 82.4901L263.294 88.7635L266.073 91.4111L286.928 89.6939C285.94 87.5673 285.177 85.9299 285.138 85.8767C285.019 85.7066 290.204 61.2137 290.204 61.2137L282.63 68.9172L285.121 63.9623C282.483 62.144 282.477 61.7719 282.477 61.2137V57.0137L277.122 56.062L267.649 53.0688L264.012 50.4053V48.2043L261.362 49.6769L260.645 46.4286L252.957 49.879L252.133 56.498L249.167 59.523L250.591 63.1169L249.06 64.8714C249.393 66.461 249.845 68.1729 250.105 68.8002ZM379.498 116.866C379.498 116.866 378.351 119.599 377.815 120.87C378.707 121.082 379.984 121.353 381.102 121.561L384.463 121.545L381.87 110.944L383.463 106.967L377.216 108.222L378.769 111.97L375.889 114.309C376.572 114.766 379.498 116.866 379.498 116.866ZM388.366 120.088L384.949 110.949L383.571 114.001L387.807 121.614L389.474 131.359L392.518 119.062L388.366 120.088ZM390.626 110.816L386.807 107.892L390.163 116.898L393.473 115.192L390.626 110.816ZM228.47 120.115L176.797 119.881L175.56 148.313C182.637 148.574 217.964 149.467 233.82 149.86V129.147C229.662 125.638 229.662 125.149 229.662 124.586V121.975L228.47 120.115ZM214.202 91.0868C213.456 91.4856 208.892 94.1757 208.892 94.1757C208.892 94.1757 205.74 89.3696 205.153 88.7954C202.566 88.6359 180.124 87.8119 164.341 87.2483C163.81 95.021 163.37 101.502 163.11 105.367L177.367 106.85L176.915 117.223L227.335 117.451L218.506 93.5111C216.874 92.517 215.015 91.4483 214.202 91.0868ZM389.699 138.169L387.802 134.023L385.175 124.198H380.825C375.295 123.193 375.075 122.853 374.764 122.332C374.764 122.332 375.567 118.977 376.081 117.759C374.866 116.898 373.629 116.053 373.155 115.792C372.494 115.718 370.873 115.479 366.512 114.74L365.399 119.301C360.157 125.787 359.728 125.83 358.559 125.128C358.35 125.016 357.655 124.745 356.983 124.485L354.26 135.793L342.663 141.774L339.517 140.232L332.247 146.548L341.251 145.607L389.699 138.169ZM312.872 96.6159L315.691 121.869L319.843 122.73L321.718 125.729L325.932 126.707L329.999 124.511L333.303 126.473L334.908 121.343L343.183 113.836C343.844 110.487 344.821 105.441 344.883 104.957C344.821 104.585 343.415 95.5845 342.307 88.5456L328.762 98.0354L323.3 95.8716L321.611 96.5256L312.872 96.6159ZM375.42 111.183L374.426 108.785L369.805 109.716L372.912 113.07C372.974 113.081 373.013 113.086 373.07 113.092L375.42 111.183ZM349.346 111.114L385.542 103.841L392.078 97.9716L387.293 93.644L385.559 84.3137L383.802 83.7289C377.843 84.0425 375.939 84.0957 375.228 84.0585C373.759 84.2818 349.707 89.6939 349.707 89.6939L346.595 85.5099L344.838 86.738C347.075 100.933 347.544 104.08 347.64 104.809L349.346 111.114ZM350.939 86.6742C374.872 81.2514 375.126 81.3205 375.64 81.4587C375.917 81.4428 380.153 81.2567 383.944 81.06L385.762 81.5597L389.236 81.1876L391.496 87.2749L394.761 85.4567L403.211 88.7423L404.075 88.1947L402.149 84.2924L401.991 77.8116C401.991 77.801 401.991 77.7904 401.991 77.7797L401.81 70.5122L400.042 62.7129L397.415 56.6681V52.9413L395.021 47.9066L380.311 49.9268L372.189 60.6342L373.516 66.4025C373.516 66.4025 366.715 71.9316 366.173 72.2613C365.631 72.5962 360.174 70.358 360.174 70.358L353.819 74.6537L355.988 78.9281L348.894 83.899L350.939 86.6742ZM314.753 168.053L317.115 178.16L322.678 193.822L324.158 207.831L325.458 209.564L347.837 207.767L348.329 208.139V205.151H353.932L358.734 196.581L335.207 170.823L329.078 168.074L330.603 166.852L314.753 168.053ZM172.735 148.239L174.436 109.216L162.376 107.961L123.027 104.032C121.451 115.085 119.463 129.03 117.469 143.066L165.471 148.233L172.735 148.239ZM423.58 62.6704L422.354 55.9132L443 37.0504L429.517 12.7914L419.016 13.9557L415.028 38.1456L413.542 39.8787L422.806 62.7076L423.58 62.6704ZM419.92 63.0532L411.486 42.2658L410.876 42.9782L412.13 48.6456L409.927 54.0364V67.4339L417.022 65.7964L419.92 63.0532ZM400.251 56.4076L402.725 61.9261L404.284 68.7471L407.097 68.0932L407.193 53.3187L409.187 48.4435L408.368 44.722L397.828 47.3802L400.251 52.6701V56.4076ZM360.146 194.067L372.844 171.392L362.784 164.225L355.147 165.725L350.199 161.865L339.828 162.912L334.213 167.442L337.156 168.883L360.146 194.067ZM337.721 151.96L339.958 148.409L290.978 153.491L288.804 155.15L280.003 156.08L278.579 162.359L276.371 165.693L275.953 168.303L320.204 164.991L335.529 151.971L337.721 151.96ZM120.231 103.687L104.5 101.369L105.946 90.7678C98.58 89.6301 88.8587 88.1415 85.5034 87.6737L75.6635 136.659L114.667 142.699C117.034 126.085 119.209 110.832 120.231 103.687ZM160.291 105.074C160.619 100.236 161.76 83.4471 162.969 65.6954L113.261 60.6661L112.521 63.1329L107.646 99.1466L121.96 101.252L160.291 105.074ZM197.335 176.9L198.216 178.665L206.52 180.122L209.05 183.056L215.535 182.115L220.924 184.417L232.617 182.089L235.808 184.034V167.617L233.972 152.529C215.959 152.093 178.006 151.126 174.215 150.902H166.782L166.68 154.198H191.602V175.517L197.335 176.9ZM277.642 153.651L279.969 153.412C280.212 153.05 280.624 152.274 281.042 151.354L279.85 149.573H277.727L276.122 143.683L268.259 137.191L270.502 132.226L269.802 131.375L267.265 133.698L265.588 125.761C260.447 122.906 260.092 122.427 259.928 122.193C259.594 121.742 258.866 115.989 258.696 115.351C258.205 114.968 257.538 114.336 257.053 113.852L229.216 114.506L230.589 118.371L232.464 121.236V124.23C233.006 124.83 234.701 126.346 236.147 127.558L236.621 127.956V151.157L237.096 155.076C240.451 154.799 273.258 154.188 273.258 154.188L276.297 157.277L273.434 159.658L276.235 160.116L277.642 153.651ZM269.824 176.256V172.009L273.004 169.106L273.84 164.523L275.089 162.63L267.203 161.338L272.293 157.096L272.078 156.873C259.786 157.064 242.225 157.415 237.435 157.67L238.627 167.463L238.638 185.486L242.62 186.602V190.738H265.006L264.548 189.213L266.107 179.154L269.824 176.256ZM33.4117 106.776L65.3717 152.556C65.6824 150.009 66.4675 143.773 66.4675 143.773H70.3142L71.1841 144.624L82.713 87.2324C78.1828 86.3446 63.8127 83.3089 39.8568 78.1891L33.4117 106.776ZM290.278 169.887L274.925 171.041L272.648 173.13V177.495L268.762 180.542L267.44 189.027L270.79 200.25L267.316 205.369L265.65 211.616H281.5L281.042 215.938L284.793 219.58C284.934 219.298 285.064 219.091 285.126 219.091C285.245 219.091 288.25 218.676 292.21 218.118L290.312 203.684L290.278 169.887ZM321.249 207.124L319.933 194.375L314.397 178.872L311.923 168.271L293.113 169.68V203.514L295 217.719C296.672 217.491 298.395 217.241 300.118 217.002L297.378 209.474L321.249 207.124ZM282.325 226.396C282.127 226.332 282.856 224.211 283.618 222.265L278.088 216.901L278.365 214.274H262.001L264.797 204.125L267.717 199.824L265.797 193.386H242.615V202.786L245.049 205.167L248.128 212.376L245.75 219.729L246.484 222.063L244.925 226.55C251.336 227.401 277.286 231.377 277.602 231.377C277.958 231.377 278.444 228.166 278.444 228.166L284.737 232.265L287.284 231.93C287.278 231.936 282.68 226.513 282.325 226.396ZM142.656 251.596H147.633L142.656 249.932V251.596ZM148.994 252.84L152.01 255.881L155.179 254.222L149.745 251.596L148.994 252.84ZM245.145 212.509L242.541 206.417L239.796 203.902V188.564L236.463 187.565L232.074 184.885L220.613 187.187L215.145 184.858L207.887 185.9L204.989 182.54L196.285 181.02L195.352 179.143L188.789 177.554V156.841H166.539L162.726 203.147L130.975 199.872L131.212 202.366C135.172 206.395 144.413 215.758 145.142 216.146C146.068 216.646 145.142 223.791 145.142 223.791L156.083 232.962L161.105 225.349L174.091 226.284L193.98 260.012C193.98 260.012 210.869 266.992 211.417 266.992L209.785 250.219C209.785 250.219 234.334 232.983 241.491 227.863L243.518 222.026L242.801 219.718L245.145 212.509ZM354.605 207.82H351.159V213.764L346.939 210.51L324.096 212.35L322.114 209.713L301.185 211.781L302.942 216.598C308.082 215.869 312.347 215.269 312.347 215.269L320.464 223.084C320.464 223.084 331.485 216.438 331.648 216.438C331.812 216.438 347.092 227.071 347.092 227.071C347.092 227.071 346.493 235.269 346.606 235.822C346.725 236.375 366.828 263.515 367.195 263.845C367.562 264.175 373.861 261.075 374.346 260.964C374.832 260.852 374.702 243.908 374.702 243.573C374.708 243.281 358.892 215.386 354.605 207.82ZM266.842 49.1081L269.191 50.8306L277.817 53.4889L285.296 54.8073V60.7086C285.533 60.9053 285.928 61.1924 286.346 61.4954L288.312 57.5985C288.312 57.5985 302.089 55.0147 302.445 54.7489C302.445 54.7489 295.141 70.7407 295.266 71.602C295.384 72.4633 298.564 86.0362 298.564 86.2169C298.564 86.318 296.514 90.4435 294.656 94.165L321.266 93.8567L321.633 93.7025L322.746 69.1139C322.746 69.1139 315.301 74.5952 314.375 74.9301C313.449 75.265 318.391 65.4615 318.391 65.4615L315.855 58.3162L296.604 47.5185L282.624 44.5253L277.371 45.158L284.793 38.8792L282.618 37.8797L266.842 46.6359V49.1081ZM416.7 80.0552L415.068 76.2327C411.006 77.1949 406.662 78.2423 404.838 78.7314L404.968 83.9415L406.414 86.7167L416.7 80.0552ZM417.835 75.5787L419.129 78.6038L420.891 77.5564L418.474 75.4246C418.265 75.4777 418.039 75.5309 417.835 75.5787ZM421.371 65.4509L418.462 68.1995L404.663 71.4053L404.776 76.0147C407.035 75.3714 419.27 72.5164 419.27 72.5164L423.354 76.105L425.755 74.6749L424.06 65.318L421.371 65.4509ZM403.539 91.7461L394.987 88.418L392.45 89.8268L394.569 95.5261L403.409 103.118L403.895 97.7483L416.728 85.2813C416.728 85.2813 415.435 84.9091 414.633 84.723L403.539 91.7461ZM388.129 105.181L395.676 110.694L397.269 102.671L394.156 99.8483C394.038 99.9121 388.129 105.181 388.129 105.181ZM390.394 140.748L343.528 147.946L339.325 154.624H336.619L324.825 164.64L334.247 163.933L338.658 160.376L351.08 159.116L355.898 162.87L363.462 161.397L375.29 169.818L379.306 168.925L380.317 164.491L394.32 148.313L390.824 140.642L390.394 140.748ZM165.29 262.915C165.29 262.915 158.348 259.464 157.744 259.321L158.953 262.5L156.083 264.164L157.744 266.158L156.84 271.607L159.71 272.989L161.37 269.815L165.895 268.71L168.612 266.62L165.29 264.563V262.915ZM146.763 255.307L147.633 254.685L145.887 252.93L146.763 255.307ZM92.5925 38.523L89.4575 49.0921L92.7619 46.0299L95.3151 49.9321L98.5348 61.1286L101.975 59.9962L110.126 61.3413L111.188 57.7739L163.15 63.0319C164.494 43.2281 165.867 22.9511 166.245 17.1615L86.3112 6.48076L83.8314 22.8873L86.5767 29.0863L92.5925 38.523ZM30.4236 33.2916L41.0148 35.078L58.3956 35.0567L70.1222 39.2301L77.8552 5.35367L37.7724 0L39.9528 9.63873L35.2306 16.4491L34.869 8.80405L23.2441 1.49392L22.3686 23.0787L30.4179 28.0603L30.4236 33.2916ZM218.727 39.5597L220.76 57.3008L220.591 57.6357C219.749 59.3104 218.806 61.437 218.732 61.9314C218.862 61.8251 220.726 63.1169 220.726 63.1169V80.2306H257.708L258.6 78.5878C254.352 75.2385 249.862 71.7987 248.777 71.1182C247.874 70.9853 246.026 64.1537 246.026 64.1537L247.371 62.6119L245.902 58.9276L249.444 55.3283L250.336 48.1192L253.889 46.5243L260.639 39.0494L269.779 34.3975H254.951L235.232 27.7519L231.391 21.1701L229.256 25.5934L216.806 23.9294C216.75 26.8215 216.766 34.9238 216.891 35.8116C217.049 36.1466 218.727 39.5597 218.727 39.5597ZM60.7003 79.9063L66.959 59.119L63.694 56.0408L72.6302 44.8549L70.3086 42.1382L57.8816 37.7149H40.7719L27.5992 35.5139V29.4904L21.7134 25.8486L7.0834 55.9078L6.60326 65.3765L39.2185 75.3235C45.7031 76.7164 53.4531 78.3699 60.7003 79.9063ZM205.949 86.2116C206.413 86.3127 207.226 86.4775 209.836 90.4701C211.954 89.2261 213.23 88.5296 213.631 88.4073C214.151 88.2425 214.654 88.1362 217.783 89.9332L216.97 85.1483L217.902 81.4056V64.563C216.97 63.9251 215.908 62.9575 215.908 61.8676C215.908 61.2987 216.343 60.0866 217.168 58.3109L166.448 56.1418C165.793 65.839 165.11 75.8764 164.517 84.5954C180.299 85.159 205.164 86.0628 205.949 86.2116ZM215.947 40.0701C215.467 39.1397 214.36 36.9759 214.179 36.4868C213.936 35.8223 213.897 27.0873 214.055 23.5519L169.047 17.539C168.708 22.7278 167.719 37.3694 166.629 53.4835L217.732 55.6686L215.947 40.0701ZM76.2058 44.8018L67.4165 55.7856L70.1222 58.3321L63.4568 80.4858C74.4886 82.8251 97.8118 86.8124 106.296 88.1256L109.561 63.9463L102.206 62.7342L96.5974 64.5843L92.2423 50.2299L88.678 53.542L86.2829 49.0815L89.5196 38.8792L84.0517 30.2772L80.9111 23.2382L83.5038 6.10328L80.6569 5.7205L72.6754 40.6762L76.2058 44.8018ZM160.133 200.218L163.822 155.453L163.963 150.748L117.096 145.703C113.605 170.27 110.177 194.481 109.002 203.094L113.701 203.684L115.334 200.526H128.196L127.846 196.868L160.133 200.218ZM116.249 242.074H119.118V240.139H116.249V242.074ZM132.85 245.806V247.593L137.076 248.422L134.963 245.806H132.85ZM75.1382 139.275L72.9409 150.206L68.9755 146.431C68.3542 151.386 67.5351 157.989 67.5069 158.537C67.6198 158.834 69.0151 162.088 70.2916 164.932L70.7096 165.868L67.1623 168.505L62.344 175.608L65.1062 177.819L63.084 182.136L62.5022 181.966L88.6441 200.537L106.217 202.748C107.454 193.615 111.007 168.521 114.306 145.336L75.1382 139.275ZM12.8958 149.568L22.7019 153.518L37.0494 168.021L38.1396 177.442L57.1699 179.377L58.8249 178.091L61.5193 178.877L61.6662 178.553L58.6329 176.134L65.2248 166.549L67.2753 165.028C64.6882 159.207 64.6882 158.76 64.6882 158.494C64.6882 158.361 64.7616 157.675 64.8803 156.681L30.4066 107.307L37.1398 77.4873L6.46204 68.1357L6.17396 73.7658L0 81.5597L0.728678 98.0248C0.728678 98.0248 13.986 141.386 13.986 141.886C13.986 142.385 12.8958 149.568 12.8958 149.568ZM78.3805 256.009L69.6308 250.495V212.265L39.6026 204.673L25.7182 210.468L28.4352 213.232C28.4352 213.232 29.0396 216.677 29.1922 217.097C29.3447 217.517 32.0617 218.613 32.0617 218.613C32.0617 218.613 30.8529 222.621 30.401 222.621C29.9491 222.621 27.0796 222.207 27.0796 222.207L26.9271 219.171L20.4368 220.691C20.4368 220.691 19.6799 224.695 19.6799 225.109C19.6799 225.524 30.8472 232.148 30.8472 232.148L21.945 233.531C21.945 233.531 16.0591 237.667 15.6072 238.082C15.1553 238.496 26.622 255.201 26.622 255.201L32.5079 253.68L24.2101 261.687L11.8395 265.552L24.2101 263.893L39.902 255.062L38.0888 254.233L50.0074 247.609L45.7822 253.404C45.7822 253.404 52.2725 252.021 52.7074 252.021C53.1424 252.021 52.7074 248.847 52.7074 248.847L58.9096 249.262L63.2873 252.712L67.2131 252.159L81.8488 259.342L93.0161 273L98.1451 267.205L84.368 253.68L78.3805 256.009Z" fill="#73E3F2"/>
</svg>
